<?xml version="1.0" encoding="utf-8"?>
<!-- Generator: Adobe Illustrator 19.2.1, SVG Export Plug-In . SVG Version: 6.00 Build 0)  -->
<svg version="1.1" id="layer" xmlns="http://www.w3.org/2000/svg" xmlns:xlink="http://www.w3.org/1999/xlink" x="0px" y="0px"
	 viewBox="0 0 652 652" style="enable-background:new 0 0 652 652;" xml:space="preserve">
<style type="text/css">
	.st0{fill:#252A30;}
</style>
<path class="st0" d="M596.3,326.5l25.8,35.1h-19l-23.9-34.2v-8.3c13.8-2.5,20.8-8.1,20.8-16.6c0-6-3.4-9-10.1-9h-10.6h-10v23.9v11.2
	v32.8h-15.4v-81.2h15.4h10h11.6c16.6,0,24.9,7.3,24.9,21.8C615.6,312,609.2,320.1,596.3,326.5z M538.7,280.4v12.9h-41.5v20.5H536
	v13.5h-38.9v21.3h41.7v13.1h-56.5v-81.3H538.7z M435,280.4v68.2h32.3v13.1h-47.4v-81.3H435z M380,280.4c16.6,0,24.9,7.6,24.9,22.9
	c0,16.6-11.4,26.6-34.1,30.1v0c-0.7,0.1-1.4,0.2-2.1,0.2v-13.6c5.4-1,9.6-2.4,12.9-4.3c5-2.9,7.6-6.9,7.6-11.9
	c0-6.7-3.4-10.1-10.1-10.1h-10.3h-10v68.1h-15.1v-81.3h15.1h10H380z M256.3,361.6v-81.3h15.1v81.3L256.3,361.6L256.3,361.6z
	 M293.9,318.3l38.3,43.4h-20.9l-30-36.2v-13.2l28.8-31.9h18.4L293.9,318.3z"/>
<path class="st0" d="M22,337.3l28.2,48.8l14.1-8.1l-28.2-48.8L22,337.3z M22,304.7l14.1,8.1l28.2-48.8l-14.1-8.1L22,304.7z
	 M78.4,255.9h56.4v-16.3H78.4V255.9z M148.8,264.1l28.2,48.8l14.1-8.1l-28.2-48.8L148.8,264.1z M148.8,377.9l14.1,8.1l28.2-48.8
	l-14.1-8.1L148.8,377.9z M78.4,402.3h56.4v-16.3H78.4V402.3z"/>
<path class="st0" d="M120.6,312.9l28.2-48.8l-14.1-8.1l-28.2,48.8L120.6,312.9z M92.5,329.1l-28.2,48.8l14.1,8.1l28.2-48.8
	L92.5,329.1z"/>
<path class="st0" d="M92.5,312.9H36.1v16.3h56.4V312.9z M120.6,329.1H177v-16.3h-56.4V329.1z"/>
<path class="st0" d="M106.6,304.7l-28.2-48.8l-14.1,8.1l28.2,48.8L106.6,304.7z M106.6,337.3l28.2,48.8l14.1-8.1l-28.2-48.8
	L106.6,337.3z"/>
</svg>
