<?xml version="1.0" encoding="utf-8"?>
<!-- Generator: Adobe Illustrator 24.3.0, SVG Export Plug-In . SVG Version: 6.00 Build 0)  -->
<svg version="1.1" id="Layer_1" xmlns="http://www.w3.org/2000/svg" xmlns:xlink="http://www.w3.org/1999/xlink" x="0px" y="0px"
	 viewBox="0 0 697.6 191" style="enable-background:new 0 0 697.6 191;" xml:space="preserve">
<style type="text/css">
	.st0{fill:#3066BE;}
	.st1{fill:#119DA4;}
</style>
<g>
	<path class="st0" d="M672.73,60.11v10.5h-2.4v-10.5h-3.65v-2.15h9.83v2.15H672.73z"/>
	<path class="st0" d="M692.98,57.96v12.65h-2.4v-6.89c0-0.55,0.02-1.17,0.05-1.87l0.05-0.95l0.05-0.94h-0.07l-0.29,0.88l-0.28,0.88
		c-0.26,0.79-0.46,1.37-0.6,1.75l-2.78,7.14h-2.19l-2.81-7.08c-0.15-0.39-0.36-0.97-0.61-1.75l-0.29-0.88l-0.29-0.87h-0.07
		l0.05,0.92l0.05,0.93c0.04,0.72,0.06,1.33,0.06,1.84v6.89h-2.4V57.96h3.91l2.26,5.86c0.15,0.41,0.36,0.99,0.61,1.75l0.28,0.88
		l0.29,0.87h0.08l0.27-0.87l0.28-0.87c0.23-0.74,0.43-1.32,0.59-1.74l2.22-5.87H692.98z"/>
</g>
<g>
	<path class="st0" d="M315.61,143.6h-12.37v-41.84c0-3.16-0.14-6.2-0.43-9.15c-0.29-2.94-0.89-5.28-1.81-7.04
		c-1.01-1.89-2.46-3.31-4.34-4.28c-1.89-0.96-4.61-1.45-8.16-1.45c-3.46,0-6.93,0.87-10.39,2.6c-3.46,1.73-6.93,3.94-10.39,6.61
		c0.13,1.01,0.24,2.18,0.33,3.52c0.09,1.34,0.13,2.66,0.13,3.98v47.04h-12.37v-41.84c0-3.25-0.14-6.32-0.43-9.24
		c-0.29-2.92-0.89-5.25-1.81-7.01c-1.01-1.88-2.46-3.3-4.34-4.24c-1.89-0.94-4.61-1.41-8.16-1.41c-3.38,0-6.77,0.83-10.16,2.5
		c-3.4,1.67-6.79,3.79-10.17,6.38v54.87h-12.37V70.12h12.37v8.16c3.86-3.2,7.71-5.7,11.55-7.5c3.84-1.8,7.93-2.7,12.27-2.7
		c5,0,9.24,1.05,12.73,3.16c3.49,2.11,6.08,5.02,7.8,8.75c5-4.21,9.56-7.25,13.68-9.11c4.12-1.86,8.53-2.8,13.22-2.8
		c8.07,0,14.02,2.44,17.86,7.34c3.84,4.89,5.75,11.72,5.75,20.49V143.6z"/>
	<path class="st0" d="M389.8,143.6h-12.3v-7.83c-1.09,0.75-2.58,1.79-4.44,3.13c-1.87,1.34-3.67,2.4-5.42,3.19
		c-2.06,1.01-4.43,1.85-7.11,2.53c-2.68,0.68-5.81,1.02-9.41,1.02c-6.62,0-12.24-2.19-16.84-6.58c-4.61-4.39-6.91-9.98-6.91-16.78
		c0-5.57,1.2-10.08,3.58-13.52c2.39-3.44,5.8-6.15,10.23-8.12c4.47-1.98,9.85-3.31,16.12-4.01c6.27-0.7,13-1.23,20.2-1.58v-1.91
		c0-2.8-0.49-5.13-1.48-6.97c-0.99-1.84-2.4-3.29-4.24-4.34c-1.76-1.01-3.86-1.69-6.32-2.04c-2.46-0.35-5.03-0.53-7.7-0.53
		c-3.25,0-6.87,0.43-10.85,1.28c-3.99,0.85-8.12,2.09-12.37,3.72h-0.66V71.7c2.41-0.66,5.9-1.38,10.46-2.17s9.06-1.18,13.49-1.18
		c5.17,0,9.68,0.43,13.52,1.28c3.84,0.85,7.16,2.31,9.97,4.37c2.76,2.02,4.87,4.63,6.32,7.83c1.45,3.2,2.17,7.17,2.17,11.91V143.6z
		 M377.49,125.51v-20.46c-3.77,0.22-8.21,0.55-13.32,0.99c-5.11,0.44-9.16,1.08-12.14,1.91c-3.55,1.01-6.43,2.58-8.62,4.7
		c-2.19,2.13-3.29,5.06-3.29,8.78c0,4.21,1.27,7.38,3.82,9.51c2.54,2.13,6.42,3.19,11.65,3.19c4.34,0,8.31-0.84,11.91-2.53
		C371.09,129.91,374.42,127.88,377.49,125.51z"/>
	<path class="st0" d="M445.03,142.94c-2.32,0.61-4.86,1.12-7.6,1.51c-2.74,0.4-5.19,0.59-7.34,0.59c-7.5,0-13.2-2.02-17.1-6.05
		c-3.9-4.04-5.86-10.5-5.86-19.41V80.51h-8.35V70.12h8.35V49h12.37v21.12h25.53v10.39H419.5V114c0,3.86,0.09,6.87,0.26,9.05
		c0.18,2.17,0.79,4.2,1.84,6.08c0.96,1.75,2.29,3.04,3.98,3.85c1.69,0.81,4.26,1.22,7.73,1.22c2.02,0,4.12-0.3,6.32-0.89
		c2.19-0.59,3.77-1.08,4.74-1.48h0.66V142.94z"/>
	<path class="st0" d="M466.52,57.81h-13.95V44.98h13.95V57.81z M465.73,143.6h-12.37V70.12h12.37V143.6z"/>
	<path class="st0" d="M544.39,143.6h-12.37v-8.16c-4.17,3.29-8.16,5.81-11.98,7.57c-3.81,1.75-8.02,2.63-12.63,2.63
		c-7.72,0-13.73-2.36-18.02-7.07c-4.3-4.71-6.45-11.63-6.45-20.76v-47.7h12.37v41.84c0,3.73,0.18,6.92,0.53,9.57
		c0.35,2.65,1.1,4.92,2.24,6.81c1.18,1.93,2.72,3.33,4.6,4.21c1.89,0.88,4.63,1.32,8.22,1.32c3.2,0,6.7-0.83,10.49-2.5
		c3.79-1.67,7.33-3.79,10.63-6.38V70.12h12.37V143.6z"/>
	<path class="st0" d="M669.23,143.6h-12.37v-41.84c0-3.16-0.14-6.2-0.43-9.15c-0.29-2.94-0.89-5.28-1.81-7.04
		c-1.01-1.89-2.46-3.31-4.34-4.28c-1.89-0.96-4.61-1.45-8.16-1.45c-3.47,0-6.93,0.87-10.4,2.6c-3.46,1.73-6.93,3.94-10.39,6.61
		c0.13,1.01,0.24,2.18,0.33,3.52c0.09,1.34,0.13,2.66,0.13,3.98v47.04h-12.37v-41.84c0-3.25-0.14-6.32-0.43-9.24
		c-0.29-2.92-0.89-5.25-1.81-7.01c-1.01-1.88-2.46-3.3-4.34-4.24c-1.89-0.94-4.61-1.41-8.16-1.41c-3.38,0-6.77,0.83-10.16,2.5
		c-3.4,1.67-6.79,3.79-10.17,6.38v54.87h-12.37V70.12h12.37v8.16c3.86-3.2,7.71-5.7,11.55-7.5c3.84-1.8,7.93-2.7,12.27-2.7
		c5,0,9.24,1.05,12.73,3.16c3.49,2.11,6.08,5.02,7.8,8.75c5-4.21,9.56-7.25,13.68-9.11c4.12-1.86,8.53-2.8,13.22-2.8
		c8.07,0,14.02,2.44,17.86,7.34c3.84,4.89,5.76,11.72,5.76,20.49V143.6z"/>
</g>
<polygon class="st1" points="118.27,74.38 93.32,24.85 68.3,74.25 61.74,68.91 93.38,6.54 124.87,68.96 "/>
<path class="st1" d="M93.37,181.98c-26.35,0.28-52.54-14.45-70.17-36.63l23.17-45.97l6.95,5.1l-20.1,40.12
	c17.29,19.86,39.95,29.27,60.15,29.07h0c20.2,0.2,42.86-9.21,60.15-29.07l-20.12-40.15l6.82-5.07l23.32,45.97
	C145.91,167.53,119.72,182.26,93.37,181.98L93.37,181.98z"/>
<path class="st0" d="M26.09,75.54c-1.84,6.23-2.83,12.83-2.83,19.65c0,10.21,1.81,17.29,5.01,25.94l-9.1,18.55
	c-7.3-11.8-11.86-24.89-11.86-39.18c0-33.74,9.46-43.85,15.14-54.8l70.92,56.93l0,0l70.98-56.95c5.68,10.95,15.14,21.06,15.14,54.8
	c0,14.28-4.92,28.7-11.82,39.1l-9.25-18.2c4-11.6,4.9-15.7,5.12-26.22c0.14-6.83-0.99-13.42-2.83-19.65l-67.34,51.63L26.09,75.54z"
	/>
</svg>
