<svg xmlns="http://www.w3.org/2000/svg" width="947" height="315" viewBox="0 0 947 315" fill="none"><path d="M562.202 303.083C558.306 303.083 554.918 302.476 552.034 301.262C549.2 300.047 547 298.327 545.433 296.1C543.915 293.874 543.156 291.268 543.156 288.282V286.081C543.156 285.575 543.41 285.322 543.915 285.322H549.454C549.959 285.322 550.213 285.575 550.213 286.081V287.903C550.213 290.483 551.325 292.609 553.552 294.279C555.779 295.948 558.837 296.783 562.734 296.783C566.224 296.783 568.853 296.05 570.625 294.582C572.397 293.115 573.281 291.192 573.281 288.813C573.281 287.245 572.826 285.904 571.915 284.791C571.005 283.677 569.665 282.665 567.894 281.754C566.175 280.793 563.644 279.655 560.305 278.339C556.614 276.922 553.677 275.632 551.503 274.468C549.379 273.304 547.607 271.786 546.192 269.913C544.776 267.99 544.067 265.587 544.067 262.703C544.067 258.351 545.611 254.935 548.696 252.456C551.833 249.976 556.056 248.736 561.368 248.736C565.113 248.736 568.398 249.369 571.232 250.634C574.067 251.899 576.241 253.67 577.758 255.947C579.325 258.224 580.111 260.855 580.111 263.841V265.359C580.111 265.865 579.856 266.118 579.352 266.118H573.661C573.156 266.118 572.902 265.865 572.902 265.359V264.221C572.902 261.589 571.839 259.413 569.715 257.693C567.639 255.922 564.756 255.036 561.064 255.036C557.927 255.036 555.498 255.694 553.78 257.01C552.061 258.275 551.2 260.122 551.2 262.551C551.2 264.221 551.628 265.587 552.49 266.65C553.351 267.712 554.614 268.674 556.284 269.534C558.002 270.343 560.609 271.406 564.1 272.722C567.692 274.139 570.599 275.454 572.826 276.669C575.053 277.833 576.897 279.401 578.365 281.375C579.834 283.298 580.566 285.701 580.566 288.586C580.566 293.039 578.923 296.581 575.633 299.212C572.397 301.793 567.92 303.083 562.202 303.083ZM607.724 303.159C604.028 303.159 600.765 302.4 597.935 300.882C595.101 299.364 592.9 297.239 591.333 294.506C589.763 291.723 588.981 288.535 588.981 284.942V266.877C588.981 263.284 589.763 260.122 591.333 257.389C592.9 254.657 595.101 252.532 597.935 251.013C600.765 249.495 604.028 248.736 607.724 248.736C611.465 248.736 614.754 249.495 617.588 251.013C620.419 252.532 622.619 254.657 624.19 257.389C625.757 260.122 626.542 263.284 626.542 266.877V284.942C626.542 288.535 625.757 291.723 624.19 294.506C622.619 297.239 620.419 299.364 617.588 300.882C614.754 302.4 611.465 303.159 607.724 303.159ZM607.724 296.859C611.161 296.859 613.946 295.797 616.071 293.671C618.195 291.546 619.258 288.738 619.258 285.246V266.801C619.258 263.259 618.195 260.425 616.071 258.3C613.946 256.124 611.161 255.036 607.724 255.036C604.282 255.036 601.501 256.124 599.377 258.3C597.301 260.425 596.266 263.259 596.266 266.801V285.246C596.266 288.738 597.301 291.546 599.377 293.671C601.501 295.797 604.282 296.859 607.724 296.859ZM638.384 302.476C637.879 302.476 637.625 302.223 637.625 301.717V250.103C637.625 249.597 637.879 249.344 638.384 249.344H644.151C644.659 249.344 644.909 249.597 644.909 250.103V295.872C644.909 296.075 645.012 296.176 645.213 296.176H671.392C671.9 296.176 672.151 296.429 672.151 296.935V301.717C672.151 302.223 671.9 302.476 671.392 302.476H638.384ZM699.036 303.083C695.344 303.083 692.081 302.375 689.247 300.958C686.466 299.49 684.292 297.441 682.721 294.81C681.154 292.128 680.369 289.067 680.369 285.625V250.103C680.369 249.597 680.623 249.344 681.128 249.344H686.895C687.403 249.344 687.653 249.597 687.653 250.103V285.777C687.653 289.067 688.693 291.723 690.765 293.747C692.889 295.771 695.648 296.783 699.036 296.783C702.428 296.783 705.159 295.771 707.231 293.747C709.306 291.723 710.342 289.067 710.342 285.777V250.103C710.342 249.597 710.596 249.344 711.101 249.344H716.868C717.376 249.344 717.627 249.597 717.627 250.103V285.625C717.627 289.067 716.845 292.128 715.274 294.81C713.757 297.441 711.583 299.49 708.748 300.958C705.967 302.375 702.731 303.083 699.036 303.083ZM763.281 249.344C763.785 249.344 764.039 249.597 764.039 250.103V254.96C764.039 255.466 763.785 255.719 763.281 255.719H748.711C748.51 255.719 748.408 255.821 748.408 256.023V301.717C748.408 302.223 748.154 302.476 747.649 302.476H741.882C741.377 302.476 741.123 302.223 741.123 301.717V256.023C741.123 255.821 741.021 255.719 740.82 255.719H726.933C726.429 255.719 726.175 255.466 726.175 254.96V250.103C726.175 249.597 726.429 249.344 726.933 249.344H763.281ZM773.843 302.476C773.339 302.476 773.084 302.223 773.084 301.717V250.103C773.084 249.597 773.339 249.344 773.843 249.344H779.61C780.119 249.344 780.369 249.597 780.369 250.103V301.717C780.369 302.223 780.119 302.476 779.61 302.476H773.843ZM810.099 303.159C806.404 303.159 803.141 302.4 800.311 300.882C797.477 299.364 795.276 297.239 793.709 294.506C792.138 291.723 791.357 288.535 791.357 284.942V266.877C791.357 263.284 792.138 260.122 793.709 257.389C795.276 254.657 797.477 252.532 800.311 251.013C803.141 249.495 806.404 248.736 810.099 248.736C813.84 248.736 817.13 249.495 819.964 251.013C822.794 252.532 824.995 254.657 826.566 257.389C828.133 260.122 828.918 263.284 828.918 266.877V284.942C828.918 288.535 828.133 291.723 826.566 294.506C824.995 297.239 822.794 299.364 819.964 300.882C817.13 302.4 813.84 303.159 810.099 303.159ZM810.099 296.859C813.537 296.859 816.322 295.797 818.446 293.671C820.571 291.546 821.633 288.738 821.633 285.246V266.801C821.633 263.259 820.571 260.425 818.446 258.3C816.322 256.124 813.537 255.036 810.099 255.036C806.658 255.036 803.877 256.124 801.753 258.3C799.677 260.425 798.641 263.259 798.641 266.801V285.246C798.641 288.738 799.677 291.546 801.753 293.671C803.877 295.797 806.658 296.859 810.099 296.859ZM871.264 250.103C871.264 249.597 871.518 249.344 872.022 249.344H877.789C878.294 249.344 878.548 249.597 878.548 250.103V301.717C878.548 302.223 878.294 302.476 877.789 302.476H872.25C871.897 302.476 871.594 302.299 871.34 301.945L847.589 263.158C847.539 263.006 847.463 262.956 847.361 263.006C847.259 263.006 847.209 263.082 847.209 263.234L847.285 301.717C847.285 302.223 847.031 302.476 846.526 302.476H840.759C840.255 302.476 840.001 302.223 840.001 301.717V250.103C840.001 249.597 840.255 249.344 840.759 249.344H846.375C846.727 249.344 847.031 249.521 847.285 249.875L870.96 288.662C871.009 288.813 871.085 288.889 871.188 288.889C871.29 288.839 871.34 288.738 871.34 288.586L871.264 250.103ZM907.448 303.083C903.551 303.083 900.163 302.476 897.28 301.262C894.445 300.047 892.245 298.327 890.678 296.1C889.16 293.874 888.402 291.268 888.402 288.282V286.081C888.402 285.575 888.656 285.322 889.16 285.322H894.7C895.204 285.322 895.458 285.575 895.458 286.081V287.903C895.458 290.483 896.57 292.609 898.797 294.279C901.024 295.948 904.082 296.783 907.979 296.783C911.469 296.783 914.099 296.05 915.871 294.582C917.642 293.115 918.526 291.192 918.526 288.813C918.526 287.245 918.071 285.904 917.16 284.791C916.25 283.677 914.911 282.665 913.139 281.754C911.42 280.793 908.889 279.655 905.551 278.339C901.859 276.922 898.922 275.632 896.748 274.468C894.624 273.304 892.852 271.786 891.437 269.913C890.022 267.99 889.312 265.587 889.312 262.703C889.312 258.351 890.856 254.935 893.941 252.456C897.078 249.976 901.301 248.736 906.613 248.736C910.358 248.736 913.643 249.369 916.478 250.634C919.312 251.899 921.486 253.67 923.003 255.947C924.57 258.224 925.356 260.855 925.356 263.841V265.359C925.356 265.865 925.102 266.118 924.597 266.118H918.906C918.401 266.118 918.147 265.865 918.147 265.359V264.221C918.147 261.589 917.085 259.413 914.96 257.693C912.885 255.922 910.001 255.036 906.31 255.036C903.172 255.036 900.744 255.694 899.025 257.01C897.306 258.275 896.445 260.122 896.445 262.551C896.445 264.221 896.874 265.587 897.735 266.65C898.596 267.712 899.86 268.674 901.529 269.534C903.248 270.343 905.854 271.406 909.345 272.722C912.938 274.139 915.844 275.454 918.071 276.669C920.298 277.833 922.142 279.401 923.61 281.375C925.079 283.298 925.811 285.701 925.811 288.586C925.811 293.039 924.168 296.581 920.879 299.212C917.642 301.793 913.165 303.083 907.448 303.083Z" fill="#F8782E"></path><g><path d="M77.1808 206.875C64.1804 206.875 52.5687 203.972 42.3452 198.166C32.1216 192.359 24.0438 184.344 18.2379 174.182C12.3688 164.021 9.46582 152.471 9.46582 139.533C9.46582 126.594 12.3688 114.855 18.2379 104.693C24.1069 94.532 32.1216 86.5162 42.3452 80.7099C52.5687 74.9033 64.1804 72 77.1808 72C90.1812 72 101.73 74.9033 111.89 80.7099C122.051 86.5162 130.002 94.532 135.871 104.693C141.74 114.855 144.707 126.468 144.896 139.533C144.896 152.408 141.93 163.958 135.998 174.182C130.065 184.344 121.988 192.359 111.89 198.166C101.73 203.972 90.1812 206.875 77.1808 206.875ZM77.1808 189.961C86.584 189.961 95.0402 187.752 102.55 183.397C109.997 179.042 115.866 173.109 120.094 165.473C124.323 157.899 126.405 149.252 126.405 139.596C126.405 129.939 124.26 121.229 120.094 113.593C115.866 105.892 109.997 99.8965 102.55 95.5419C95.0402 91.1869 86.647 88.9777 77.1808 88.9777C67.7146 88.9777 59.3213 91.1869 51.8114 95.5419C44.3647 99.8965 38.4323 105.892 34.1411 113.593C29.8497 121.293 27.704 129.939 27.704 139.596C27.704 149.252 29.8497 157.899 34.1411 165.473C38.4323 173.046 44.3647 179.042 51.8114 183.397C59.258 187.752 67.7146 189.961 77.1808 189.961Z" fill="#2C2C51"></path><path d="M181.246 262.353C178.343 262.353 176.008 261.469 174.304 259.828C172.6 258.124 171.717 255.852 171.717 252.949V138.649C171.843 126.089 174.935 114.728 180.867 104.63C186.799 94.5316 194.814 86.5792 204.974 80.7729C215.135 74.9663 226.557 72.063 239.179 72.063C251.801 72.063 263.791 75.0293 274.015 80.8989C284.238 86.8319 292.316 94.8474 298.248 105.009C304.18 115.17 307.147 126.72 307.147 139.659C307.147 152.597 304.244 163.895 298.501 174.056C292.758 184.217 284.869 192.233 275.024 198.166C265.117 204.035 253.883 207.002 241.388 207.002C230.47 207.002 220.625 204.667 211.79 200.122C202.955 195.515 195.824 189.456 190.46 181.819V253.012C190.46 255.915 189.576 258.187 187.935 259.891C186.231 261.596 184.023 262.416 181.246 262.416V262.353ZM239.242 189.961C248.645 189.961 257.102 187.752 264.612 183.397C272.059 179.042 277.991 173.046 282.282 165.346C286.573 157.646 288.719 149.063 288.719 139.532C288.719 130.002 286.573 121.229 282.282 113.656C277.991 106.082 272.059 100.086 264.612 95.6049C257.102 91.1865 248.708 88.9147 239.242 88.9147C229.776 88.9147 221.635 91.1235 214.125 95.6049C206.678 100.023 200.809 106.082 196.581 113.656C192.353 121.229 190.271 129.876 190.271 139.532C190.271 149.189 192.353 157.646 196.581 165.346C200.809 173.046 206.615 179.042 214.125 183.397C221.572 187.752 229.965 189.961 239.242 189.961Z" fill="#2C2C51"></path><path d="M325.7 94.7346C323.239 94.7346 321.219 93.9775 319.578 92.3994C317.938 90.8848 317.117 88.9913 317.117 86.7192C317.117 84.3206 317.938 82.3012 319.578 80.7865C321.219 79.2715 323.239 78.5144 325.7 78.5144H387.799C390.258 78.5144 392.28 79.2715 393.919 80.7865C395.562 82.3012 396.381 84.2576 396.381 86.7192C396.381 88.9913 395.562 90.8848 393.919 92.3994C392.28 93.9141 390.258 94.7346 387.799 94.7346H325.7ZM386.346 206.068C377.764 206.068 370.065 204.049 363.312 200.009C356.56 195.97 351.259 190.479 347.346 183.411C343.433 176.405 341.477 168.389 341.477 159.301V40.9611C341.477 38.2471 342.361 35.9751 344.065 34.2079C345.768 32.4407 347.977 31.5571 350.754 31.5571C353.531 31.5571 355.803 32.4407 357.57 34.2079C359.336 35.9751 360.22 38.2471 360.22 40.9611V159.364C360.22 167.569 362.681 174.322 367.541 179.561C372.4 184.799 378.648 187.45 386.285 187.45H392.845C395.433 187.45 397.58 188.333 399.159 190.101C400.798 191.868 401.617 194.14 401.617 196.854C401.617 199.568 400.672 201.84 398.715 203.544C396.761 205.248 394.363 206.068 391.396 206.068H386.285H386.346Z" fill="#2C2C51"></path><path d="M435.571 48.4716C431.974 48.4716 428.947 47.2093 426.294 44.6218C423.707 42.0339 422.383 38.8782 422.383 35.1545C422.383 31.1152 423.707 27.9595 426.42 25.5611C429.072 23.2259 432.228 22.0898 435.761 22.0898C439.297 22.0898 442.199 23.289 444.912 25.5611C447.564 27.8964 448.953 31.1152 448.953 35.1545C448.953 38.8782 447.689 42.0339 445.037 44.6218C442.389 47.2093 439.297 48.4716 435.51 48.4716H435.571ZM435.825 206.068C432.923 206.068 430.586 205.185 428.882 203.544C427.179 201.84 426.294 199.568 426.294 196.664V83.0583C426.294 80.1549 427.179 77.8831 428.882 76.1787C430.586 74.4747 432.923 73.6542 435.825 73.6542C438.602 73.6542 440.811 74.5381 442.514 76.1787C444.218 77.8831 445.102 80.1549 445.102 83.0583V196.601C445.102 199.505 444.218 201.777 442.514 203.481C440.811 205.185 438.602 206.005 435.825 206.005V206.068Z" fill="#2C2C51"></path><path d="M492.557 206.069C489.655 206.069 487.317 205.185 485.614 203.544C483.91 201.84 483.026 199.631 483.026 196.854V83.0584C483.026 80.3444 483.91 78.0723 485.614 76.3052C487.317 74.5378 489.655 73.6543 492.557 73.6543C495.334 73.6543 497.542 74.5378 499.246 76.3052C500.95 78.0723 501.834 80.3444 501.834 83.0584V196.854C501.834 199.631 500.95 201.84 499.246 203.544C497.542 205.248 495.334 206.069 492.557 206.069ZM578.132 206.069C575.355 206.069 573.082 205.185 571.314 203.544C569.55 201.84 568.666 199.631 568.666 196.854V127.112C568.666 115.689 565.635 106.6 559.64 99.9097C553.645 93.2196 545.947 89.8745 536.481 89.8745C526.381 89.8745 518.114 93.1566 511.615 99.7207C505.115 106.285 501.898 114.742 501.898 125.282H488.516C488.835 114.931 491.168 105.779 495.46 97.8269C499.751 89.8115 505.685 83.5631 513.129 79.0822C520.641 74.5378 529.033 72.329 538.499 72.329C547.966 72.329 556.548 74.6012 563.931 79.0822C571.314 83.6265 577.059 90.0009 581.225 98.2057C585.39 106.411 587.409 116.13 587.409 127.238V196.98C587.409 199.757 586.525 201.966 584.821 203.67C583.118 205.374 580.91 206.195 578.132 206.195V206.069ZM663.138 206.069C660.361 206.069 658.089 205.185 656.321 203.544C654.556 201.84 653.608 199.631 653.608 196.854V127.112C653.608 115.689 650.641 106.6 644.586 99.9097C638.587 93.2196 630.889 89.8745 621.423 89.8745C611.327 89.8745 603.124 93.2196 596.685 99.9097C590.247 106.6 587.155 115.499 587.344 126.67H570.559C570.685 115.878 573.082 106.348 577.628 98.0797C582.169 89.8745 588.418 83.5001 596.37 78.9558C604.323 74.4118 613.345 72.2026 623.441 72.2026C633.541 72.2026 641.493 74.4748 648.877 78.9558C656.26 83.5001 662 89.8745 666.166 98.0797C670.332 106.285 672.415 116.004 672.415 127.112V196.854C672.415 199.631 671.531 201.84 669.827 203.544C668.124 205.248 665.916 206.069 663.138 206.069Z" fill="#2C2C51"></path><path d="M717.223 48.4716C713.626 48.4716 710.595 47.2093 707.947 44.6218C705.295 42.0339 704.031 38.8782 704.031 35.1545C704.031 31.1152 705.359 27.9595 708.072 25.5611C710.785 23.2259 713.877 22.0898 717.474 22.0898C721.07 22.0898 723.973 23.289 726.625 25.5611C729.277 27.8964 730.666 31.1152 730.666 35.1545C730.666 38.8782 729.338 42.0339 726.75 44.6218C724.163 47.2093 720.945 48.4716 717.223 48.4716ZM717.474 206.068C714.571 206.068 712.238 205.185 710.534 203.544C708.827 201.84 708.007 199.568 708.007 196.664V83.0583C708.007 80.1549 708.891 77.8831 710.534 76.1787C712.238 74.4747 714.571 73.6542 717.474 73.6542C720.251 73.6542 722.459 74.5381 724.163 76.1787C725.866 77.8831 726.75 80.1549 726.75 83.0583V196.601C726.75 199.505 725.866 201.777 724.163 203.481C722.459 205.185 720.251 206.005 717.474 206.005V206.068Z" fill="#2C2C51"></path><path d="M850.57 95.1768H850.319V97.0072H850.57V95.1768Z" fill="white"></path><path d="M844.196 96.1233L793.268 25.9402C791.5 23.5418 788.533 22.4058 784.432 22.4058C781.089 22.4058 778.437 23.5418 776.419 25.7508C774.4 27.9598 773.262 30.6106 772.947 33.577C772.632 36.6065 773.452 39.3835 775.345 41.908L827.916 114.363L772.253 188.081C770.36 190.606 769.351 193.446 769.351 196.538C769.351 199.631 770.295 202.345 772.253 204.617C774.146 206.952 776.988 208.088 780.646 208.088C783.992 208.088 786.894 206.889 789.292 204.554L844.196 131.973V132.099L844.261 96.3127L844.196 96.1233Z" fill="#F8782E"></path><path d="M849.686 95.9964L900.613 25.8132C902.381 23.4149 905.284 22.2788 909.45 22.2788C912.792 22.2788 915.444 23.4149 917.463 25.6239C919.481 27.8329 920.62 30.4837 920.934 33.4501C921.249 36.4796 920.43 39.2565 918.537 41.7811L865.966 114.236L921.629 187.954C923.522 190.479 924.471 193.319 924.471 196.412C924.471 199.504 923.522 202.218 921.629 204.49C919.735 206.825 916.898 207.961 913.236 207.961C909.89 207.961 906.987 206.762 904.59 204.427L849.686 131.846V131.972L849.621 96.1857L849.686 95.9964Z" fill="#2C2C51"></path></g></svg>