<svg xmlns="http://www.w3.org/2000/svg" viewBox="0 0 123 32"><g clip-rule="evenodd" fill-rule="evenodd"><path d="m16 0-4.8151 11.1869-11.1849 4.8131h16z" fill="#33cdc6"></path><path d="m16 32 4.8151-11.1869 11.1849-4.8131h-16z" fill="#33cdc6"></path><g fill="#030c38"><path d="m52.8154 5.62097h3.999l-7.203 19.41403h-3.887l-7.175-19.41403h4.136l5.065 14.43003z"></path><path d="m64.9378 16.7653c-.055-1.341-.931-2.656-3.012-2.656-1.889 0-2.929 1.424-3.012 2.656zm3.395 4.408c-.684 2.328-2.819 4.272-6.133 4.272-3.696 0-6.955-2.656-6.955-7.201 0-4.299 3.176-7.092 6.626-7.092 4.162 0 6.654 2.656 6.654 6.982 0 .521-.054 1.068-.054 1.123h-9.639c.082 1.78 1.588 3.066 3.395 3.066 1.698 0 2.629-.848 3.067-2.053z"></path><path d="m73.3531 20.5988c.082 1.068.876 2.054 2.463 2.054 1.205 0 1.781-.63 1.781-1.342 0-.602-.411-1.095-1.451-1.314l-1.781-.411c-2.601-.575-3.778-2.136-3.778-4.025 0-2.41 2.136-4.408 5.038-4.408 3.834 0 5.121 2.436 5.285 3.888l-3.04.684c-.11-.794-.684-1.807-2.217-1.807-.959 0-1.726.575-1.726 1.341 0 .658.493 1.069 1.232 1.205l1.917.411c2.656.548 3.998 2.164 3.998 4.135 0 2.19-1.698 4.436-5.23 4.436-4.052 0-5.448-2.629-5.613-4.162z"></path><path d="m90.01 14.5202c-1.862 0-3.368 1.396-3.368 3.779 0 2.382 1.506 3.806 3.368 3.806 1.861 0 3.34-1.397 3.34-3.806 0-2.383-1.479-3.779-3.34-3.779zm-6.956 15.717v-18.674h3.533v1.643c.602-1.041 2.108-1.944 4.134-1.944 3.944 0 6.216 3.012 6.216 7.009 0 4.08-2.547 7.092-6.353 7.092-1.862 0-3.23-.739-3.887-1.643v6.517z"></path><path d="m108.615 16.7653c-.055-1.341-.931-2.656-3.012-2.656-1.889 0-2.929 1.424-3.012 2.656zm3.395 4.408c-.684 2.328-2.819 4.272-6.133 4.272-3.696 0-6.9554-2.656-6.9554-7.201 0-4.299 3.1764-7.092 6.6264-7.092 4.162 0 6.654 2.656 6.654 6.982 0 .521-.054 1.068-.054 1.123h-9.639c.082 1.78 1.588 3.066 3.395 3.066 1.698 0 2.629-.848 3.067-2.053z"></path><path d="m122.401 15.1775c-.41-.082-.766-.11-1.095-.11-1.862 0-3.477.904-3.477 3.806v6.161h-3.643v-13.472h3.533v1.999c.821-1.78 2.683-2.108 3.833-2.108.301 0 .576.027.849.055z"></path></g></g></svg>