<svg class="Logo" xmlns="http://www.w3.org/2000/svg" xmlns:xlink="http://www.w3.org/1999/xlink" viewBox="0 0 155.706 44"><path d="M12.185,67.71c1.039,3.234.924,3.523.924,5.2h2.079c0-1.674-.115-2.021.924-5.2L23.1,45.767h5.2l-9.47,28.872H9.471L0,45.767H5.2Z" transform="translate(-0.001 -34.294)"></path><path d="M379.3,45.768V62.052c0,6.641,3.58,9.412,8.662,9.412,5.947,0,8.662-3.522,8.662-10.163V45.768h4.62V74.64h-4.62V70.367h-2.079c-1.5,4.1-5.255,5.082-8.2,5.082-7.854,0-11.665-5.082-11.665-13.4V45.768Z" transform="translate(-280.757 -34.295)"></path><path d="M524.384,42.543c9.354,0,13.916,6.525,13.916,14.782V58.6H515.2c.173,6.409,3.638,10.567,9.181,10.567,4.273,0,7.044-2.367,8.489-6.294h4.85c-1.617,5.948-5.832,10.163-13.339,10.163-9.181,0-13.8-6.525-13.8-14.84v-.866c0-8.257,4.62-14.782,13.8-14.782m0,3.927c-4.966,0-8.315,3.234-9.008,8.546h18.132c-.693-5.312-4.042-8.546-9.124-8.546" transform="translate(-382.594 -31.879)"></path><path d="M313.89,0h-4.619V36.245a4.116,4.116,0,0,0,4.1,4.1h5.182v-4.5H313.89Z" transform="translate(-231.745)"></path><path d="M153.056,63.617h-13.2L129.74,55.13l-2.293-13,6.6-11.433,12.406-4.515,12.407,4.515,6.6,11.433-2.293,13ZM141.4,59.364h10.107l7.742-6.5,1.755-9.953-5.054-8.753-9.5-3.457-9.5,3.457L131.9,42.914l1.755,9.953Z" transform="translate(-95.5 -19.617)"></path></svg>