<svg xmlns="http://www.w3.org/2000/svg" width="135" height="32" viewBox="0 0 135 32" fill="none"><path d="M16 0C32 3.52261e-06 32 7.16345 32 16C32 24.8366 32 32 16 32C1.30858e-05 32 0 24.8366 0 16C0 7.16344 1.18017e-05 0 16 0ZM25.4785 8.00195C25.2618 7.99507 25.0456 8.03076 24.8428 8.10742C24.6399 8.18414 24.454 8.30061 24.2959 8.44922C24.1379 8.59783 24.0101 8.77579 23.9209 8.97363C22.6547 11.7922 21.3093 14.5685 19.9287 17.3213C19.2413 18.6882 18.5442 20.092 17.8408 21.3945C17.7443 21.5941 17.6177 21.7781 17.4658 21.9395C17.4448 21.9615 17.4675 21.9541 17.4844 21.9619C17.5003 21.9698 17.4711 21.9755 17.4189 21.9521C17.238 21.8436 17.0927 21.6834 17.0029 21.4922L16.4404 20.498C15.656 19.1312 14.7975 17.8074 13.8691 16.5342C13.6018 16.1568 13.2792 15.8212 12.9131 15.5391C12.6906 15.3726 12.4393 15.2475 12.1729 15.1689C11.8728 15.0837 11.5554 15.0762 11.252 15.1484C10.7188 15.2999 10.2627 15.6483 9.97559 16.123C9.75596 16.4742 9.56001 16.8402 9.38965 17.2178L8.37305 19.2949L7.86133 20.333C7.77411 20.5049 7.68952 20.6929 7.62012 20.8057C7.57928 20.8788 7.52565 20.9437 7.46289 20.999C7.47805 20.9965 7.50378 21.0426 7.42871 20.9746C7.33219 20.851 7.25014 20.7158 7.18457 20.5732L5.54883 17.5137C5.50972 17.4354 5.44026 17.3754 5.35742 17.3477C5.27457 17.3202 5.18354 17.3271 5.10547 17.3662C5.02744 17.4055 4.968 17.4746 4.94043 17.5576C4.91302 17.6406 4.91989 17.7314 4.95898 17.8096L6.41309 20.9619C6.49856 21.1743 6.60994 21.3758 6.74512 21.5605C6.8517 21.6952 6.9908 21.8014 7.14844 21.8691C7.3342 21.9442 7.54007 21.9545 7.73242 21.8984C8.01878 21.7984 8.26331 21.6034 8.42383 21.3457C8.56672 21.1359 8.64521 20.9719 8.74316 20.8066L9.31445 19.8008L10.4619 17.791C10.6294 17.4754 10.8172 17.1708 11.0244 16.8799C11.1415 16.6878 11.3293 16.5495 11.5469 16.4932C11.6378 16.4895 11.7293 16.5053 11.8135 16.54C11.8975 16.5748 11.9733 16.6277 12.0352 16.6943C12.2623 16.9041 12.4593 17.1453 12.6191 17.4102C13.4249 18.6873 14.1608 20.008 14.8232 21.3652L15.332 22.4258C15.4456 22.6519 15.5806 22.8673 15.7354 23.0674C15.9248 23.3115 16.1571 23.5195 16.4199 23.6816C16.7286 23.8739 17.0822 23.9839 17.4453 24C17.8362 24.0107 18.2226 23.9077 18.5566 23.7041C19.0151 23.3977 19.3978 22.99 19.6748 22.5127C20.5315 21.1562 21.2939 19.8406 22.085 18.502C23.6443 15.8309 25.1995 13.1638 26.8291 10.5332C26.8672 10.4698 26.9008 10.4037 26.9307 10.3359C27.0199 10.1381 27.0702 9.92407 27.0771 9.70703C27.084 9.49015 27.0472 9.27334 26.9707 9.07031C26.8942 8.86739 26.778 8.68068 26.6299 8.52246C26.4817 8.36444 26.3036 8.23682 26.1064 8.14746C25.909 8.05807 25.6951 8.00889 25.4785 8.00195Z" fill="#7647F7"></path><path d="M44.284 23.9729C43.8853 23.9729 43.5603 23.8769 43.3093 23.6849C43.0729 23.4929 42.8809 23.1902 42.7333 22.7766L38.1031 9.68369C37.9406 9.21108 37.9702 8.81231 38.1917 8.48738C38.428 8.16246 38.8194 8 39.3659 8C39.7646 8 40.0748 8.096 40.2963 8.288C40.5179 8.46523 40.6951 8.75323 40.828 9.152L44.8157 20.9822H43.9296L48.0945 9.17415C48.2422 8.77539 48.4268 8.48 48.6483 8.288C48.8699 8.096 49.1579 8 49.5123 8C49.8668 8 50.1474 8.096 50.3542 8.288C50.5609 8.48 50.7382 8.78277 50.8859 9.19631L54.9179 20.9822H54.1425L58.1966 9.152C58.3296 8.768 58.5068 8.48 58.7283 8.288C58.9499 8.096 59.2526 8 59.6366 8C60.1093 8 60.4563 8.16246 60.6779 8.48738C60.8994 8.81231 60.9289 9.21108 60.7665 9.68369L56.092 22.7988C55.9443 23.1975 55.7523 23.4929 55.516 23.6849C55.2797 23.8769 54.9622 23.9729 54.5634 23.9729C54.1646 23.9729 53.8471 23.8769 53.6108 23.6849C53.3745 23.4929 53.1825 23.1902 53.0348 22.7766L49.18 11.7883H49.6896L45.7905 22.7988C45.6428 23.1975 45.4508 23.4929 45.2145 23.6849C44.9929 23.8769 44.6828 23.9729 44.284 23.9729Z" fill="#291A53"></path><path d="M66.0786 24.0172C64.9561 24.0172 63.9813 23.7883 63.1543 23.3305C62.3272 22.8726 61.6847 22.2228 61.2269 21.3809C60.769 20.5243 60.5401 19.52 60.5401 18.368C60.5401 17.4966 60.6656 16.7212 60.9167 16.0418C61.1826 15.3477 61.5592 14.7569 62.0466 14.2695C62.5339 13.7674 63.1173 13.3908 63.7967 13.1397C64.4761 12.8738 65.2367 12.7409 66.0786 12.7409C67.201 12.7409 68.1758 12.9698 69.0029 13.4277C69.8299 13.8855 70.4724 14.5354 70.9303 15.3772C71.3881 16.2191 71.617 17.216 71.617 18.368C71.617 19.2394 71.4841 20.0222 71.2183 20.7163C70.9672 21.4105 70.5979 22.0086 70.1106 22.5108C69.6232 22.9982 69.0398 23.3748 68.3604 23.6406C67.681 23.8917 66.9204 24.0172 66.0786 24.0172ZM66.0786 21.9126C66.625 21.9126 67.105 21.7797 67.5186 21.5138C67.9321 21.248 68.2496 20.8566 68.4712 20.3397C68.7075 19.808 68.8256 19.1508 68.8256 18.368C68.8256 17.1865 68.5746 16.3077 68.0724 15.7317C67.5703 15.1409 66.9056 14.8455 66.0786 14.8455C65.5321 14.8455 65.0521 14.9785 64.6386 15.2443C64.225 15.4954 63.9001 15.8868 63.6638 16.4185C63.4423 16.9354 63.3315 17.5852 63.3315 18.368C63.3315 19.5348 63.5826 20.4209 64.0847 21.0265C64.5869 21.6172 65.2515 21.9126 66.0786 21.9126Z" fill="#291A53"></path><path d="M77.2088 23.9729C76.8396 23.9729 76.522 23.8843 76.2562 23.7071C75.9903 23.5151 75.7762 23.2197 75.6137 22.8209L72.4014 14.624C72.2685 14.2695 72.2242 13.9594 72.2685 13.6935C72.3276 13.4129 72.4679 13.1914 72.6894 13.0289C72.9109 12.8665 73.2063 12.7852 73.5756 12.7852C73.9005 12.7852 74.1663 12.8665 74.3731 13.0289C74.5799 13.1766 74.7571 13.4646 74.9048 13.8929L77.5854 21.2702H77.0759L79.8451 13.7157C79.9633 13.3908 80.1183 13.1545 80.3103 13.0068C80.5171 12.8591 80.7829 12.7852 81.1079 12.7852C81.4328 12.7852 81.6986 12.8665 81.9054 13.0289C82.1122 13.1766 82.2673 13.4055 82.3706 13.7157L85.0956 21.2702H84.6303L87.3331 13.8265C87.4808 13.4277 87.6654 13.1545 87.8869 13.0068C88.1233 12.8591 88.3817 12.7852 88.6623 12.7852C89.0168 12.7852 89.29 12.8738 89.482 13.0511C89.674 13.2283 89.7848 13.4572 89.8143 13.7378C89.8439 14.0037 89.7922 14.2991 89.6593 14.624L86.4691 22.8209C86.3214 23.2049 86.1073 23.4929 85.8266 23.6849C85.5608 23.8769 85.2433 23.9729 84.874 23.9729C84.5048 23.9729 84.1799 23.8769 83.8993 23.6849C83.6334 23.4929 83.4266 23.2049 83.2789 22.8209L80.3768 15.1335H81.6396L78.8039 22.7988C78.6562 23.1975 78.4494 23.4929 78.1836 23.6849C77.9177 23.8769 77.5928 23.9729 77.2088 23.9729Z" fill="#291A53"></path><path d="M93.544 23.9729C93.1009 23.9729 92.7538 23.8548 92.5027 23.6185C92.2664 23.3674 92.1483 23.0129 92.1483 22.5551V15.0449H91.1292C90.7747 15.0449 90.5015 14.9563 90.3095 14.7791C90.1175 14.5871 90.0215 14.3286 90.0215 14.0037C90.0215 13.664 90.1175 13.4055 90.3095 13.2283C90.5015 13.0511 90.7747 12.9625 91.1292 12.9625H92.9458L92.1483 13.6935V12.9403C92.1483 11.4191 92.5323 10.2818 93.3003 9.52862C94.0683 8.76062 95.176 8.31015 96.6233 8.17723L97.3766 8.11077C97.672 8.08123 97.9083 8.13292 98.0855 8.26585C98.2627 8.384 98.3809 8.54646 98.44 8.75323C98.499 8.94523 98.5064 9.14462 98.4621 9.35139C98.4178 9.55815 98.3218 9.74277 98.1741 9.90523C98.0412 10.0529 97.864 10.1342 97.6424 10.1489L97.3323 10.1711C96.4904 10.2302 95.8775 10.4443 95.4935 10.8135C95.1095 11.1828 94.9175 11.744 94.9175 12.4972V13.3169L94.563 12.9625H96.8006C97.155 12.9625 97.4283 13.0511 97.6203 13.2283C97.8123 13.4055 97.9083 13.664 97.9083 14.0037C97.9083 14.3286 97.8123 14.5871 97.6203 14.7791C97.4283 14.9563 97.155 15.0449 96.8006 15.0449H94.9175V22.5551C94.9175 23.5003 94.4597 23.9729 93.544 23.9729ZM103.181 24.0172C101.955 24.0172 101.032 23.6702 100.412 22.976C99.7913 22.2671 99.4812 21.2332 99.4812 19.8745V9.39569C99.4812 8.93785 99.5993 8.59077 99.8357 8.35446C100.072 8.11815 100.412 8 100.855 8C101.298 8 101.638 8.11815 101.874 8.35446C102.125 8.59077 102.25 8.93785 102.25 9.39569V19.7415C102.25 20.4209 102.391 20.9231 102.671 21.248C102.967 21.5729 103.38 21.7354 103.912 21.7354C104.03 21.7354 104.141 21.7354 104.244 21.7354C104.348 21.7206 104.451 21.7058 104.554 21.6911C104.761 21.6615 104.902 21.7206 104.975 21.8683C105.049 22.0012 105.086 22.2818 105.086 22.7102C105.086 23.0794 105.012 23.3674 104.865 23.5742C104.717 23.7809 104.473 23.9065 104.134 23.9508C103.986 23.9655 103.831 23.9803 103.668 23.9951C103.506 24.0098 103.343 24.0172 103.181 24.0172Z" fill="#291A53"></path><path d="M110.707 24.0172C109.585 24.0172 108.61 23.7883 107.783 23.3305C106.956 22.8726 106.313 22.2228 105.856 21.3809C105.398 20.5243 105.169 19.52 105.169 18.368C105.169 17.4966 105.294 16.7212 105.545 16.0418C105.811 15.3477 106.188 14.7569 106.675 14.2695C107.163 13.7674 107.746 13.3908 108.425 13.1397C109.105 12.8738 109.865 12.7409 110.707 12.7409C111.83 12.7409 112.805 12.9698 113.632 13.4277C114.459 13.8855 115.101 14.5354 115.559 15.3772C116.017 16.2191 116.246 17.216 116.246 18.368C116.246 19.2394 116.113 20.0222 115.847 20.7163C115.596 21.4105 115.227 22.0086 114.739 22.5108C114.252 22.9982 113.669 23.3748 112.989 23.6406C112.31 23.8917 111.549 24.0172 110.707 24.0172ZM110.707 21.9126C111.254 21.9126 111.734 21.7797 112.147 21.5138C112.561 21.248 112.878 20.8566 113.1 20.3397C113.336 19.808 113.454 19.1508 113.454 18.368C113.454 17.1865 113.203 16.3077 112.701 15.7317C112.199 15.1409 111.534 14.8455 110.707 14.8455C110.161 14.8455 109.681 14.9785 109.267 15.2443C108.854 15.4954 108.529 15.8868 108.293 16.4185C108.071 16.9354 107.96 17.5852 107.96 18.368C107.96 19.5348 108.211 20.4209 108.713 21.0265C109.216 21.6172 109.88 21.9126 110.707 21.9126Z" fill="#291A53"></path><path d="M121.838 23.9729C121.468 23.9729 121.151 23.8843 120.885 23.7071C120.619 23.5151 120.405 23.2197 120.242 22.8209L117.03 14.624C116.897 14.2695 116.853 13.9594 116.897 13.6935C116.956 13.4129 117.097 13.1914 117.318 13.0289C117.54 12.8665 117.835 12.7852 118.204 12.7852C118.529 12.7852 118.795 12.8665 119.002 13.0289C119.209 13.1766 119.386 13.4646 119.534 13.8929L122.214 21.2702H121.705L124.474 13.7157C124.592 13.3908 124.747 13.1545 124.939 13.0068C125.146 12.8591 125.412 12.7852 125.737 12.7852C126.062 12.7852 126.327 12.8665 126.534 13.0289C126.741 13.1766 126.896 13.4055 126.999 13.7157L129.724 21.2702H129.259L131.962 13.8265C132.11 13.4277 132.294 13.1545 132.516 13.0068C132.752 12.8591 133.01 12.7852 133.291 12.7852C133.646 12.7852 133.919 12.8738 134.111 13.0511C134.303 13.2283 134.414 13.4572 134.443 13.7378C134.473 14.0037 134.421 14.2991 134.288 14.624L131.098 22.8209C130.95 23.2049 130.736 23.4929 130.455 23.6849C130.19 23.8769 129.872 23.9729 129.503 23.9729C129.134 23.9729 128.809 23.8769 128.528 23.6849C128.262 23.4929 128.055 23.2049 127.908 22.8209L125.006 15.1335H126.268L123.433 22.7988C123.285 23.1975 123.078 23.4929 122.812 23.6849C122.546 23.8769 122.222 23.9729 121.838 23.9729Z" fill="#291A53"></path></svg>