<?xml version="1.0" encoding="UTF-8" standalone="no"?> <svg xmlns="http://www.w3.org/2000/svg" xmlns:xlink="http://www.w3.org/1999/xlink" xmlns:serif="http://www.serif.com/" width="100%" height="100%" viewBox="0 0 985 985" version="1.1" xml:space="preserve" style="fill-rule:evenodd;clip-rule:evenodd;stroke-linejoin:round;stroke-miterlimit:2;"><path d="M604.956,966.778c-36.656,-14.535 -154.846,-323.419 -51.789,-637.597c41.566,-126.565 103.674,-201.918 135.671,-223.673c30.38,-20.812 53.021,-22.545 67.21,-19.522c17.77,3.716 158.08,94.548 208.618,273.614c63.956,226.368 -34.192,432.117 -201.225,548.112c-79.551,55.274 -147.742,63.34 -158.485,59.066Z" style="fill:#eb0000;fill-opacity:0.1;fill-rule:nonzero;"></path><path d="M457.175,972.477c-0.519,-0.154 -1.155,-0.423 -1.983,-0.808c-0.038,-0 -0.077,-0.116 -0.115,-0.116c-0.077,0 -0.193,-0.038 -0.27,-0.077c-23.468,-11.956 -103.808,-99.823 -116.572,-329.445c-14.17,-254.554 75.392,-421.51 156.386,-508.723c53.598,-57.66 129.703,-101.113 201.552,-83.112c4.332,1.078 8.471,2.484 12.38,4.139c-37.234,-15.902 -79.84,-29.687 -111.163,-31.208c-20.908,-0.962 -35.386,-1.983 -80.128,14.497c-50.826,18.829 -217.667,112.029 -279.274,368.085c-35.79,149.032 -20.754,279.023 4.178,377.018c21.543,84.671 49.266,120.557 65.207,140.811c12.36,15.652 23.084,28.493 74.41,39.756c26.068,5.737 56.333,8.259 75.854,9.26c-0.192,-0.038 -0.346,-0.077 -0.462,-0.077Z" style="fill:#eb0000;fill-opacity:0.1;fill-rule:nonzero;"></path><path d="M205.548,886.881c0.404,0.289 0.828,0.501 1.155,0.79c0,-0 -0.038,-0.135 -0.135,-0.289c-0.346,-0.173 -0.654,-0.308 -1.02,-0.501Zm307.209,-874.439c-99.458,-4.216 -307.844,7.528 -437.74,212.488c-162.528,256.498 -33.903,559.067 129.202,661.124c-10.473,-7.74 -44.068,-42.394 -69.038,-96.916c-36.156,-79.108 -106.369,-306.285 23.815,-544.648c78.819,-144.315 215.26,-234.377 350.006,-232.048c4.833,0.116 9.434,0.424 13.862,0.828c-2.695,-0.366 -6.084,-0.616 -10.107,-0.828Zm-308.191,873.823c-0.154,-0.115 -0.231,-0.173 -0.347,-0.211c0.116,0.096 0.193,0.096 0.347,0.211Z" style="fill:#eb0000;fill-opacity:0.1;fill-rule:nonzero;"></path></svg> 