<svg viewBox="0 0 318.74 204.75" xmlns="http://www.w3.org/2000/svg" data-name="Layer 2" id="Layer_2">
  <defs>
    <style>
      .cls-1 {
        fill: #2f5325;
      }
    </style>
  </defs>
  <g id="Motif">
    <g>
      <g>
        <path d="M149.27.06s-.07-.03-.13-.06c.04.02.09.04.13.06Z" class="cls-1"></path>
        <path d="M152.39,2.39s-.05-.07-.08-.12c.03.04.05.08.08.12Z" class="cls-1"></path>
      </g>
      <path d="M144.9,80.04h-.03s-.3,1.13-.3,1.13l.62-.58c.32.05.72.03,1.07-.28.1-.09.23-.19.35-.27.17-.11.33-.11.49,0,.2.14.38.32.53.5.04.05.07.17.08.31,0,.06-.01.14-.03.23-.02.07-.03.14-.04.21-.03.26.04.5.18.66.11.13.27.19.44.19.57-.02,1.1.16,1.67.34.2.06.39.13.59.18.05.01.1.03.15.05.14.05.29.1.45.1.04,0,.08,0,.12-.01.47-.09.93-.21,1.38-.33l.31-.08c.06-.02.14-.06.19-.18.02-.05.07-.19,0-.31-.08-.14-.17-.28-.26-.42v-.02s.71-1.05.71-1.05v-.07c0-.06,0-.11,0-.16,0-.11,0-.19,0-.26,0-.07-.02-.15-.04-.22-.02-.08-.03-.16-.04-.23,0-.1.02-.18.08-.23.06-.05.15-.07.25-.06.05,0,.1.02.14.03.05.01.11.03.16.04.16.03.32-.05.42-.19.11-.15.12-.33.04-.48l-.04-.07c-.07-.13-.15-.28-.28-.39-1.31-1.06-2.83-1.11-4.28-1-.08,0-.29.03-.44.16-.14.12-.32.17-.52.23-.22.06-.45.13-.63.29-.19.16-.42.25-.67.34-.31.12-.63.24-.88.51-.24.25-.55.41-.87.57-.24.12-.49.25-.72.42-.16.12-.27.26-.33.41ZM149.89,79.08c.05-.06.22-.1.31-.12.04,0,.07-.02.1-.03.24,0,.33.09.33.12.03.17-.04.33-.12.51-.06.14-.13.29-.15.46-.02.16-.01.31,0,.46.01.2.03.38-.05.51,0,0-.02.01-.03.02-.09-.03-.19-.08-.27-.15-.12-.1-.17-.25-.23-.42-.04-.11-.08-.22-.14-.33-.19-.36-.06-.64.25-1.03Z" class="cls-1"></path>
      <path d="M206.69,142.79c0-.07,0-.16-.04-.25-.02-.05-.04-.09-.07-.12l.02-.38-.85.42.34.21s0,.03,0,.05c0,.09.02.18.06.24.07.13.22.14.27.14l.28.03-.02-.29s0-.04,0-.05ZM206.1,142.49s0,.03,0,.04h0s0-.07.01-.11v.08ZM206.29,142.41l-.02.02h-.15s.03-.06.05-.08c.08-.08.18-.08.21-.06l-.08.13Z" class="cls-1"></path>
      <path d="M280.67,125.06c1.79,0,3.06-.68,3.83-1.79.05,2.71-1.2,4.37-3.76,4.37-1.25,0-2.44-.38-3.38-1.06l-1.6,2.97c1.39.83,3.43,1.37,5.24,1.37,4.56,0,7.48-3.45,7.48-8.73s-2.63-8.19-6.98-8.19c-3.64,0-6.04,2.2-6.04,5.69,0,3.23,2.02,5.38,5.22,5.38ZM281.65,117.36c1.65,0,2.4,1.06,2.37,2.27.02,1.34-.85,2.34-2.45,2.34-1.46,0-2.28-.85-2.28-2.27,0-1.49.89-2.34,2.35-2.34Z" class="cls-1"></path>
      <polygon points="267.92 130.72 272.22 130.72 272.22 114.18 264.74 114.18 264.74 117.72 267.92 117.72 267.92 130.72" class="cls-1"></polygon>
      <path d="M137.14,65.7h.02c.13,0,.21-.09.27-.15l.17-.18-.17-.18c-.04-.05-.11-.15-.25-.16-.13-.01-.22.08-.28.15l-.17.18.17.18c.04.05.11.15.25.16ZM137.16,65.23h.02s-.02.03-.02.03l-.02-.03h.02ZM137.15,65.48l.02.02h-.02s-.02,0-.02,0l.02-.02Z" class="cls-1"></path>
      <polygon points="35.03 130.61 39.14 130.61 39.14 117.62 43.85 117.62 43.85 114.06 30.36 114.06 30.36 117.62 35.03 117.62 35.03 130.61" class="cls-1"></polygon>
      <path d="M149.59,64.05s.07,0,.11-.02c.25-.11.49-.24.73-.4.15-.1.27-.39.18-.57-.07-.14-.2-.18-.31-.22-.03-.01-.07-.02-.1-.04l-.05-.02h-.06c-.39.02-.7.23-.92.63-.05.09-.11.33.05.46.1.09.24.2.38.2Z" class="cls-1"></path>
      <path d="M148.87,75.54l.2.37.21-.36c.26-.44.15-.86.02-1.22l-.21-.57-.23.56c-.12.29-.25.74,0,1.22Z" class="cls-1"></path>
      <path d="M154.17,95.06c-.18.06-.24.17-.27.23-.03.08-.05.21.05.37.1.16.29.38.61.38.14,0,.31-.04.5-.16l.18-.1-.07-.19c-.25-.66-.73-.62-1-.53Z" class="cls-1"></path>
      <path d="M153.94,67.34s.09,0,.13,0c.03,0,.07,0,.1,0h.22c.08-.02.16-.03.25-.05.33-.09.5-.62.4-.98-.04-.15-.15-.28-.29-.36-.16-.08-.34-.1-.51-.04l-.09.03c-.18.06-.38.13-.54.25-.14.1-.24.27-.31.51-.04.12-.01.25.06.36.11.16.33.26.58.28Z" class="cls-1"></path>
      <path d="M146.63,65.38s.05,0,.07,0c.07,0,.14-.03.19-.05l.21-.08-.05-.21c0-.05-.02-.18-.13-.24-.08-.05-.23-.09-.36-.03-.22.1-.23.26-.22.32,0,.08.05.22.29.29ZM146.81,65.06s0,0,0,.01c0-.03,0-.05-.02-.06h0s-.02-.07-.02-.07c.02.02.05.07.05.12ZM146.67,65.14h.01s.08-.01.12-.03c-.01.05-.04.08-.05.09-.01,0-.06.03-.09,0-.03-.02-.05-.03-.06-.05l.07-.02Z" class="cls-1"></path>
      <polygon points="148.64 64.53 148.82 63.7 147.86 63.93 148.64 64.53" class="cls-1"></polygon>
      <path d="M209.73,135.07c-.04-.24-.08-.49-.13-.73-.03-.14-.16-.21-.24-.24-.13-.06-.27-.07-.38-.02-.1.04-.18.13-.21.24-.11.37-.23.76-.35,1.22-.07.26-.04.5.08.7.12.2.33.34.61.41.12.03.24.04.36.05l-.02.09h.34s.01,0,.02,0c.03.02.07.02.1.02.06,0,.12-.02.18-.07l.81-.48-.89.03c-.14-.39-.21-.79-.27-1.21Z" class="cls-1"></path>
      <path d="M22.02,127.23c-1.64,0-4.09-1.04-5.7-2.5l-1.59,3.37c1.89,1.63,4.63,2.64,7.25,2.64,3.5,0,6.33-1.72,6.33-5.1,0-5.95-8.29-4.39-8.29-7.13,0-.76.65-1.13,1.64-1.13,1.3,0,3.41.78,5.08,1.77l1.55-3.42c-1.64-1.11-3.98-1.87-6.29-1.87-3.79,0-6.29,1.96-6.29,5.05,0,5.85,8.29,4.15,8.29,6.96,0,.87-.76,1.35-1.98,1.35Z" class="cls-1"></path>
      <path d="M147.31,53.89s.07,0,.11-.02c.35-.14.68-.31.98-.48.15-.08.16-.26.17-.37,0-.03,0-.05,0-.07v-.07s-.02-.07-.02-.07c-.09-.2-.24-.35-.41-.41-.13-.05-.27-.04-.39.01-.28.14-.69.37-.88.86-.01.03-.1.27.06.41.08.08.22.21.37.21Z" class="cls-1"></path>
      <polygon points="12.64 127.16 4.11 127.16 4.11 124.04 11.61 124.02 11.61 120.6 4.11 120.6 4.11 117.51 12.42 117.51 12.42 114.06 0 114.06 0 130.61 12.64 130.61 12.64 127.16" class="cls-1"></polygon>
      <path d="M297.63,130.84c4.14,0,6.44-3,6.44-8.4s-2.3-8.38-6.44-8.38-6.46,2.97-6.46,8.38,2.28,8.4,6.46,8.4ZM297.63,117.08c1.65,0,2.33,1.56,2.33,5.36s-.68,5.36-2.33,5.36-2.35-1.58-2.35-5.36.68-5.36,2.35-5.36Z" class="cls-1"></path>
      <polygon points="140.51 98.37 139.67 98.27 139.98 99.19 140.51 98.37" class="cls-1"></polygon>
      <path d="M138.64,103.12c.13,0,.26-.04.4-.11.07-.04.11-.1.15-.15,0-.01.02-.03.03-.05l.11-.15-.11-.15s-.05-.06-.07-.09c-.07-.1-.14-.2-.25-.29-.15-.11-.41-.13-.56-.03-.15.1-.22.31-.22.47,0,.21.09.38.25.47.08.05.18.07.28.07Z" class="cls-1"></path>
      <path d="M138.69,96.1v-.14s-.12-.07-.12-.07c-.02-.01-.04-.03-.07-.05-.11-.08-.25-.19-.43-.15-.17.04-.33.16-.49.39-.11.16-.07.43.03.56.1.12.27.2.42.2.03,0,.05,0,.07,0,.33-.06.57-.36.57-.73Z" class="cls-1"></path>
      <path d="M141.32,95.99l-.15.2s-.14.15-.11.29c.03.14.07.36.24.44.05.02.09.03.14.03.09,0,.17-.03.25-.06.04-.01.08-.03.13-.04l.43-.12-.71-.6-.21-.14Z" class="cls-1"></path>
      <path d="M137.4,93.56c-.02.18.02.34.11.45.07.09.17.14.3.15h.03c.14,0,.25-.07.37-.15.04-.03.09-.06.14-.08l.25-.13-.17-.22s-.07-.09-.1-.13c-.07-.1-.14-.2-.24-.27-.11-.08-.26-.09-.39-.03-.16.07-.27.24-.29.42Z" class="cls-1"></path>
      <path d="M138.91,53.09c.05,0,.1,0,.15-.03.27-.11.41-.37.34-.65-.03-.13-.1-.24-.16-.34-.02-.03-.04-.07-.06-.1l-.11-.2-.21.11s-.07.03-.11.05c-.1.04-.23.09-.29.22-.14.3-.07.61.2.85.07.06.17.09.26.09Z" class="cls-1"></path>
      <path d="M138.94,100.06c-.01.17.05.32.17.41.25.18.51.35.77.52.05.03.1.04.15.04.1,0,.21-.05.26-.12.07-.08.12-.19.12-.29,0-.36-.15-.68-.45-.98-.09-.09-.22-.12-.31-.13-.02,0-.05,0-.07-.01l-.07-.02-.1.03s-.1.02-.15.05c-.18.09-.31.29-.33.5Z" class="cls-1"></path>
      <path d="M143.96,81.18c-.11.06-.19.14-.27.24-.03.04-.07.08-.11.12l-.26.26.34.13c.06.02.12.05.16.07.12.05.23.1.36.11h0c.13,0,.26-.08.33-.21.07-.14.1-.35-.02-.52-.09-.12-.34-.29-.54-.19Z" class="cls-1"></path>
      <path d="M146.94,85.77l-.04-.31-.77.17.32.31s.03.03.04.04c0,.04.01.08.02.12.02.11.11.18.27.2l.52.11-.26-.47c-.03-.05-.06-.11-.09-.16ZM146.44,85.84h0s0,0,0,0h0ZM146.66,85.72h0s-.08.05-.08.05h-.1s0,.05,0,.05h-.03s.01-.14.1-.2c.05-.03.09-.04.14-.04.05,0,.09.01.1.03l-.12.12Z" class="cls-1"></path>
      <path d="M142.19,88.12c-.04-.06-.14-.19-.3-.16-.09.01-.18.05-.25.07l-.39.17.24.27c.04.05.12.16.27.16,0,0,.01,0,.03,0,.09-.01.18-.05.25-.07l.38-.17-.24-.27Z" class="cls-1"></path>
      <path d="M144.29,45.56c.05.16.11.32.17.47.08.18.2.35.35.47.13.11.32.19.52.23.02,0,.04,0,.06,0,.11,0,.2-.05.27-.14.11-.16.1-.4-.03-.61-.42-.69-.46-1.45-.44-2.17,0-.3-.04-.59-.08-.86-.06-.39-.11-.76-.03-1.12.05-.21-.14-.29-.29-.36-.03-.01-.06-.03-.09-.04l-.08-.04-.09.02c-.33.09-.56.34-.58.64-.01.2-.02.41-.03.62-.02.32-.03.64-.06.97-.05.53.02.96.21,1.36.08.17.15.36.22.56Z" class="cls-1"></path>
      <path d="M140.09,81.03s0,.06,0,.08c0,.09.02.19.07.29.06.13.18.28.34.34.05.02.11.03.17.03.13,0,.27-.04.36-.13.6-.58,1.11-1.07,1.6-1.59.46-.48,1.04-.86,1.75-1.17.17-.07.32-.14.45-.22.24-.14.32-.43.32-.66,0-.26-.1-.48-.28-.59-.29-.18-.59-.33-.89-.44-.48-.18-.83-.04-1.07.44-.3.59-.61.78-1.1.65-.11-.03-.48-.08-.63.4-.08.27-.14.55-.16.83-.02.27-.13.42-.39.54-.61.29-.58.91-.57,1.18v.03Z" class="cls-1"></path>
      <path d="M141.11,64.72s.07,0,.11-.02l.04-.02c.27-.12.54-.25.8-.41.15-.09.15-.25.15-.38,0-.04,0-.08,0-.13l.02-.15-.13-.08s-.05-.04-.08-.06c-.12-.1-.28-.23-.46-.16-.45.16-.76.49-.85.92-.03.13.03.26.11.34.04.04.15.15.29.15Z" class="cls-1"></path>
      <polygon points="143.63 62.56 143.1 63.35 143.98 63.44 143.63 62.56" class="cls-1"></polygon>
      <path d="M114.93,125.7c-.1-.05-.24-.09-.36-.02-.21.11-.21.27-.2.33.01.08.06.22.3.27.02,0,.04,0,.06,0,.08,0,.15-.03.2-.06l.21-.08-.06-.21c0-.05-.03-.17-.14-.23ZM114.8,126.1s-.09.02-.09.02c-.03-.01-.05-.03-.06-.05l.07-.02h.01s.08-.02.12-.03c0,.05-.03.08-.04.08ZM114.82,125.91h0s-.02-.07-.02-.07c.02.02.05.06.05.11,0,0,0,.01,0,.02,0-.03,0-.05-.02-.06Z" class="cls-1"></path>
      <path d="M126.04,97.81c.12-.11.2-.33.16-.49-.06-.28-.29-.46-.58-.44-.12,0-.23.04-.35.08-.05.01-.1.03-.15.04l-.34.09.21.28s.06.09.09.13c.07.11.14.21.23.29.11.1.24.14.37.14s.25-.05.35-.14Z" class="cls-1"></path>
      <path d="M121.66,102.7c-.01-.06-.03-.11-.06-.17-.06-.1-.16-.17-.26-.17-.13,0-.24.07-.34.21-.03.04-.05.07-.08.11-.04.05-.07.09-.1.14-.11.17-.09.3-.06.38.04.08.12.18.31.22.02,0,.07.01.11.01.08,0,.19-.02.26-.11.07-.09.13-.19.17-.27l.1-.16-.03-.1s-.02-.06-.02-.09Z" class="cls-1"></path>
      <path d="M117.45,104.29l-.12.13s-.17.15-.12.31c.03.12.11.22.21.27.05.02.1.03.16.03.06,0,.12-.01.19-.04.07-.03.12-.08.17-.13l.27-.24-.57-.27-.18-.06Z" class="cls-1"></path>
      <path d="M115.84,90.22c-.19-.02-.36-.03-.51-.02-.12.01-.24.07-.31.17-.09.12-.13.29-.11.46.03.16.11.3.24.38.08.06.18.09.27.09.03,0,.06,0,.09,0,.3-.06.51-.24.63-.51v-.03c.06-.18.01-.3-.04-.37-.06-.09-.15-.14-.27-.16Z" class="cls-1"></path>
      <path d="M123.44,93.25c.11.14.26.28.43.37.07.04.16.06.25.06.1,0,.2-.02.28-.07.15-.09.27-.28.28-.45.03-.58-.19-1.02-.63-1.29-.24-.14-.49-.26-.74-.36-.16-.06-.29.03-.39.09-.02.01-.04.03-.07.04l-.17.08.05.19c.13.53.43.97.71,1.33Z" class="cls-1"></path>
      <path d="M124.75,105.45c-.05-.06-.1-.12-.15-.17-.12-.11-.26-.15-.39-.11-.12.04-.21.14-.25.28-.04.17.03.39.17.49.08.06.19.1.3.1.08,0,.15-.02.22-.05.13-.07.21-.19.21-.32v-.09s-.11-.13-.11-.13Z" class="cls-1"></path>
      <path d="M123.68,100.48l-.16.07c-.2.09-.23.23-.23.3s.03.21.23.3l.14.04.11-.07s.17-.11.17-.26c0-.13-.08-.21-.14-.26l-.12-.13ZM123.54,100.85l-.07.06s0-.04,0-.06c0-.05.02-.1.05-.12l.04.08s-.02.02-.02.04ZM123.73,100.98l-.04-.09s.02-.03.02-.04c0-.02-.01-.03-.03-.05l.04-.09s.06.06.06.14c0,.06-.03.11-.05.13Z" class="cls-1"></path>
      <path d="M202.88,142.4h0c.15,0,.31-.14.32-.29.01-.12.02-.23.03-.35.01-.2.02-.39.06-.57.04-.22.1-.43.17-.66.04-.13.08-.26.11-.39.13-.5-.43-.71-.64-.79l-.26-.1-.06.27c-.05.22-.07.44-.1.65-.05.41-.1.79-.27,1.15-.09.19-.16.56.35.97.08.07.19.11.29.11Z" class="cls-1"></path>
      <path d="M123.25,95.19s-.04-.06-.06-.1c-.06-.09-.12-.2-.22-.28-.17-.15-.46-.15-.63-.07-.12.06-.19.18-.18.31.01.11.06.32.21.43.15.1.31.15.47.2.03,0,.05.01.07.01.12,0,.2-.08.24-.13.02-.02.03-.03.05-.05l.16-.14-.12-.18Z" class="cls-1"></path>
      <path d="M118.73,92.57c0-.07-.05-.19-.25-.24l-.18-.04-.09.13c-.1.14-.2.29-.3.44l-.17.25.54.35.13-.08s.04-.02.06-.03c.1-.05.24-.12.27-.28.03-.15,0-.29-.01-.42v-.08Z" class="cls-1"></path>
      <polygon points="182.76 49.35 181.87 49.3 182.27 50.18 182.76 49.35" class="cls-1"></polygon>
      <path d="M113.81,88.07c-.13-.17-.36-.09-.43-.06-.36.16-.57.38-.64.69-.04.15.06.29.1.35.07.1.16.15.25.15h.04c.42,0,.74-.26.85-.68l.02-.09-.07-.14c-.03-.07-.07-.15-.13-.22Z" class="cls-1"></path>
      <path d="M50.94,113.8h-4.26v10.38h4.16c3.2,0,5.36-2.1,5.36-5.2s-2.13-5.18-5.26-5.18ZM51.01,121.99h-1.75v-5.98h1.62c1.57,0,2.68,1.21,2.68,3.01s-1.06,2.98-2.55,2.98Z" class="cls-1"></path>
      <path d="M181.39,59.93h.18s.07,0,.11,0c.05,0,.1,0,.15,0,.34-.03.63-.35.61-.67-.02-.29-.24-.6-.51-.69-.25-.09-.52-.07-.74.06-.22.12-.37.32-.43.57-.05.22.11.45.26.6.11.11.26.12.38.13Z" class="cls-1"></path>
      <path d="M184.79,55.28v.03s0,.03,0,.03c0,.07.01.14.02.22.02.19.04.41.05.63,0,.79.16,1.42.49,1.96.22.38.27.84.29,1.28.02.33.09.67.19,1,.12.36.36.61.68.71.05.01.11.03.17.03.06,0,.11-.01.17-.04.14-.07.19-.22.2-.28.08-.29-.02-.53-.1-.73-.06-.14-.11-.26-.1-.38.03-.43,0-.87-.02-1.32-.01-.21-.07-.41-.13-.61l-.02-.06c-.05-.19-.12-.38-.18-.56-.2-.62-.39-1.21-.38-1.85,0-.13-.03-.27-.11-.42-.21-.42-.19-.84-.09-1.42.04-.26-.02-.52-.07-.77-.02-.08-.04-.17-.05-.25-.03-.15-.16-.27-.36-.31-.21-.04-.39.02-.48.16-.02.04-.05.07-.08.11-.13.19-.28.4-.22.62.21.79.24,1.47.13,2.21Z" class="cls-1"></path>
      <path d="M131.78,62.39l-.14-.23-.21.16s-.06.04-.09.07c-.1.07-.19.14-.28.24l-.08.12.03.11c.02.09.12.3.27.37.05.02.11.04.17.04.09,0,.19-.03.28-.08.15-.09.24-.23.24-.37,0-.13-.07-.23-.13-.32-.02-.03-.04-.06-.06-.09Z" class="cls-1"></path>
      <path d="M172.82,54.64l.15-.04c.29-.08.51-.25.64-.51l.3-.61c.14-.28.27-.55.41-.82.09-.18.18-.37.28-.55.2-.39.4-.78.58-1.17.09-.18-.01-.42-.11-.54-.03-.04-.09-.09-.2-.09-.11,0-.29.04-.39.13l-.05.04c-.16.13-.33.29-.44.49-.45.82-.91,1.68-1.36,2.55-.17.34-.14.7.08,1l.1.13Z" class="cls-1"></path>
      <path d="M202.19,145.71c.16.08.33.12.5.12s.33-.04.48-.11c.15-.07.23-.2.29-.3.01-.02.03-.04.04-.06l.06-.07v-.09c-.02-.51-.27-.84-.48-1.06-.19-.2-.47-.24-.71-.12l-.06.03c-.08.04-.17.08-.25.14l-.03.02c-.18.12-.44.31-.41.69.03.35.23.63.58.81Z" class="cls-1"></path>
      <path d="M113.17,121.91l-.02-.31-.27.12c-.19.02-.27.14-.29.2-.03.06-.05.19.06.35.05.06.11.09.18.09.05,0,.11-.01.17-.04l.06-.02h.28s-.16-.35-.16-.35c0,0,0-.02-.01-.03ZM113.03,122.11s-.01.02-.02.03l-.04-.09v-.11s.04.03.06.05c.01.02.02.07,0,.13Z" class="cls-1"></path>
      <path d="M211.76,122.4c-.75.07-1.42-.16-2.19-.52-.2-.09-.42-.1-.61-.1h-.1c-.13,0-.24.03-.32.12-.08.08-.12.2-.11.36,0,.07,0,.2.11.29.13.1.26.21.38.31.16.13.32.25.48.39.19.17.38.34.57.52l.32.3h.09c.1,0,.2.01.29.02.22.01.45.03.69.01.36-.02.68.08,1.03.35.04.03.09.05.12.07.01,0,.02,0,.03.02.08.05.17.08.25.08.04,0,.08,0,.11-.02.11-.03.2-.11.25-.22.07-.14.09-.35,0-.51-.26-.49-.65-.85-1.03-1.2l-.26-.25h-.11Z" class="cls-1"></path>
      <path d="M181.74,64.18c-.12-.05-.24-.05-.34,0l-.07.05s-.13.09-.17.2c-.04.11-.08.26-.05.41.03.16.12.32.24.41.1.08.24.12.37.12.04,0,.08,0,.12-.02.13-.04.24-.13.31-.25.07-.14.08-.3.02-.44-.09-.23-.25-.42-.43-.49Z" class="cls-1"></path>
      <path d="M52.76,128.93c0-1.13-.75-1.93-1.82-1.93s-1.81.8-1.81,1.93.75,1.94,1.81,1.94,1.82-.8,1.82-1.94Z" class="cls-1"></path>
      <path d="M208.63,126.02c-.15.05-.28.16-.36.28-.07.11-.11.3-.08.42l.03.12.09.05c.55.34,1.08.51,1.62.51h1.06s.53,0,.53,0l.24.16c.26.17.55.35.83.53.1.06.19.08.28.08.19,0,.35-.11.42-.16.25-.17.37-.64.23-.89l-.03-.06c-.04-.08-.09-.17-.17-.25-.68-.69-1.47-1.06-2.4-1.11-.8-.05-1.55.05-2.28.31Z" class="cls-1"></path>
      <path d="M125.73,102.92c-.13.07-.36.3-.31.53.03.13.12.19.2.23l.06.04c.06.02.11.03.17.03.07,0,.14-.02.2-.06.1-.06.16-.16.17-.28.02-.14-.02-.33-.14-.45-.07-.07-.2-.12-.35-.04Z" class="cls-1"></path>
      <path d="M210.9,118s.07,0,.1,0c.15-.03.54-.1.64-.59l.02-.11-.07-.09s-.03-.04-.04-.06c-.05-.08-.13-.19-.24-.27-.14-.11-.42-.1-.56.02-.14.11-.26.26-.34.43-.07.16-.03.4.09.53.1.1.25.14.39.14Z" class="cls-1"></path>
      <path d="M156.38,82.35c.06.04.22.13.37.09.25-.07.39-.04.53.32.05.13.15.22.28.25.04.01.08.02.13.02.13,0,.25-.05.36-.14.17-.14.35-.28.52-.42l.33-.27-.05-.15s-.01-.06-.02-.09c-.02-.11-.05-.26-.18-.34-.37-.22-.68-.5-1.02-.8-.18-.16-.36-.32-.55-.48-.11-.09-.25-.09-.35-.1-.02,0-.05,0-.07,0-.12-.01-.24.03-.34.11-.12.11-.19.28-.19.46.01.4.03.84.07,1.28,0,.1.07.18.17.25Z" class="cls-1"></path>
      <path d="M157.19,66.85h.01c.17,0,.33-.09.45-.22.11-.13.16-.29.15-.45h0c-.02-.14-.09-.26-.2-.34-.12-.09-.27-.13-.41-.1-.18.03-.4.13-.5.49-.04.13,0,.28.11.41.11.14.25.22.39.22Z" class="cls-1"></path>
      <path d="M140.21,132.21l-.21.06s-.16.03-.23.14c-.02.04-.13.23-.03.39.1.16.22.19.3.19.02,0,.05,0,.05,0,.08-.01.22-.07.27-.3.02-.11-.02-.2-.06-.26l-.09-.2ZM139.98,132.53h0s-.07.03-.07.03c.02-.02.06-.05.1-.06,0,0,.02,0,.02,0-.02,0-.05.01-.06.02ZM140.14,132.71l-.02-.06s0,0,0-.01c0-.03-.02-.08-.04-.12.04,0,.06.02.06.03.04.06.03.11.03.12-.01.02-.03.04-.04.05Z" class="cls-1"></path>
      <path d="M206.81,118.67s.02.08.02.09c-.01.08-.04.3.14.4.04.02.09.04.13.04.08,0,.16-.04.25-.11.07-.06.1-.13.1-.21.2-.01.34-.19.41-.28.09-.12.14-.35.06-.51-.04-.08-.12-.14-.23-.17-.06-.02-.22-.05-.35.03-.13.08-.25.19-.36.29,0,0,0,0-.01.01l-.53-.17.35.52s.01.05.02.07Z" class="cls-1"></path>
      <path d="M156.35,89.35h.02c.14,0,.28-.06.37-.18.09-.11.13-.26.1-.4-.03-.13-.1-.22-.18-.33-.03-.04-.07-.09-.1-.14l-.19-.29-.2.29c-.04.05-.07.1-.11.14-.08.1-.16.2-.19.33-.03.13,0,.26.08.37.09.12.25.2.4.21Z" class="cls-1"></path>
      <path d="M204.3,138.45c.05.18.21.31.3.37.14.09.22.2.25.34.05.27.13.53.2.78.04.15.21.25.34.26h0c.12,0,.29-.07.35-.21.08-.18.16-.36.24-.54l.13-.3-.07-.11s-.06-.1-.08-.15c-.06-.11-.13-.23-.22-.32-.27-.27-.38-.56-.39-.97-.01-.68-.38-1.23-.7-1.71-.08-.12-.22-.15-.32-.18-.03,0-.07-.02-.1-.03l-.3-.11-.02.31c0,.06-.01.13-.02.19-.02.16-.04.33,0,.5.12.63.28,1.26.43,1.85Z" class="cls-1"></path>
      <path d="M125.62,90.4h-.14s-.07.11-.07.11c-.01.02-.03.04-.04.05-.05.07-.13.17-.13.29-.01.32.17.54.31.72.03.03.05.07.08.1.06.08.16.12.27.12.03,0,.06,0,.09,0,.17-.03.37-.15.43-.33.06-.21,0-.46-.15-.68-.17-.24-.41-.38-.65-.39Z" class="cls-1"></path>
      <path d="M206.37,131.52v.1c0,.26.01.52.02.78v.38c0,.19,0,.38.01.57v.04c0,.12,0,.27.09.39.08.11.18.2.27.27.03.03.07.05.1.08l.22.2.15-.26s.04-.06.06-.09c.08-.11.18-.25.15-.42-.09-.63-.22-1.31-.39-2.15-.03-.13-.12-.19-.22-.23v-.12s-.04,0-.04,0c-.05-.23-.21-.4-.34-.53l-.03-.03c-.26-.27-.56-.4-.88-.38-.18.01-.3.18-.38.29-.09.13-.05.34.04.44.34.38.72.6,1.15.67Z" class="cls-1"></path>
      <path d="M209.2,119.27c.21.15.39.27.5.48.21.38.59.77,1.3.77.18,0,.38-.03.6-.08.18-.05.35-.24.37-.42.04-.43.03-.98-.49-1.32l-.11-.07-.22.09c-.07.03-.14.06-.21.09-.1.05-.19.1-.3.16l-.06.03s-.1-.05-.15-.08c-.22-.12-.45-.25-.7-.36-.33-.14-.65-.06-.83.21l-.12.18.17.14c.08.06.16.12.24.18Z" class="cls-1"></path>
      <polygon points="208.43 116.3 207.93 117.15 208.78 117.23 208.43 116.3" class="cls-1"></polygon>
      <path d="M118.62,110.48l.11.04.44-.33-.22-.2s-.11-.13-.23-.14c-.23-.02-.33.09-.37.15-.06.1-.06.22,0,.33.07.11.18.13.26.15ZM118.75,110.07s0,.01.01.02c0,.01.02.03.02.06l-.04-.05v-.02ZM118.78,110.21s0,.02-.01.03c-.03.06-.09.09-.09.09h0s.11-.12.11-.12Z" class="cls-1"></path>
      <path d="M173.72,156.59c-.56.64-.48,1.39-.37,1.89l.14.66.48-.95c.17-.33.33-.65.48-.97.07-.15.01-.32-.03-.44v-.03c-.06-.16-.23-.22-.3-.24-.1-.03-.28-.05-.4.08Z" class="cls-1"></path>
      <path d="M190.2,82.89c-.21.07-.38.23-.47.43-.08.17-.08.35-.02.5.07.17.3.28.47.28h0c.15,0,.4-.11.46-.3.06-.2.06-.41.04-.55-.02-.15-.13-.23-.21-.28-.01-.01-.03-.02-.04-.03l-.1-.09-.13.05Z" class="cls-1"></path>
      <path d="M189.98,92.55l-.06.07c-.18.19-.27.44-.25.7.02.25.15.48.36.64.11.08.44.33.83.15.44-.2.9-.43,1.28-.82.13-.13.27-.26.45-.39.11-.08.46-.06.59.06.12.11.16.31.09.47l-.05.12c-.06.15-.12.3-.2.42-.1.16-.21.31-.32.47-.11.15-.21.3-.31.45-.07.11-.08.24-.08.35v.06c0,.1.03.2.12.28.13.12.34.17.56.13.05,0,.09-.02.13-.04.05.11.11.23.19.33.1.15.26.33.48.39.14.04.27.06.41.06.45,0,.86-.22,1.1-.62.6-1,.6-1.36-.02-2.29-.13-.19-.29-.34-.46-.48l-.03-.02c-.24-.21-.22-.35-.1-.52.33-.48.24-.95-.23-1.29-.35-.25-.51-.52-.52-.88-.02-.55-.28-.98-.51-1.3-.08-.11-.23-.19-.41-.2-.16-.01-.3.03-.38.12-.4.4-.65.87-.74,1.38-.01.08-.02.16-.03.25-.01.13-.03.25-.06.35-.11.34-.26.68-.62.86-.27.13-.57.28-.87.46-.14.08-.24.2-.34.3ZM193.91,94.91c.08-.1.2-.14.38-.15.07,0,.1.04.11.05-.07.15-.13.28-.19.39-.12.2-.21.25-.48.13-.04-.02-.08-.04-.12-.07l.31-.35Z" class="cls-1"></path>
      <path d="M195.43,106.27c-.16.26-.28.5-.38.72-.09.2-.04.45.04.61.07.14.18.24.3.27.26.06.44.24.66.46.17.17.37.36.63.51l.09.05,1.66-.48v-.19c-.03-.54-.32-.96-.86-1.21-.53-.25-.98-.55-1.36-.92-.09-.08-.21-.12-.36-.1-.18.02-.35.13-.43.27Z" class="cls-1"></path>
      <path d="M186.31,79.87c.08.02.15.02.23.03.08,0,.16.01.24.04.1.03.24.07.28.11.24.27.51.51.77.73.3.26.58.5.82.8.21.27.45.51.69.74.05.05.11.11.16.16l-.21.53,1.07-.63-.27-.15c.04-.18.06-.35.08-.53.03-.26.06-.5.15-.73.22-.57.03-1.17-.51-1.55-.61-.44-1.23-.86-1.84-1.27l-.14-.1c-.35-.24-.73-.23-1.08-.2-.32.03-.57.19-.7.47-.09.19-.19.4-.25.62-.06.22-.04.43.07.61.1.16.26.27.45.31ZM189.81,82.51l.03-.02.12.05c-.08.08-.18.08-.2.07l.05-.09Z" class="cls-1"></path>
      <path d="M177.74,144.21c0,.12.02.22.05.41.02.11.05.26.08.46l.47-.03c0-.34.01-.65.02-.94.01-.61.02-1.09.04-1.58v-.18c.02-.3.03-.61.12-.86.3-.8.25-1.6.2-2.37-.01-.19-.02-.38-.03-.57,0-.24-.25-.38-.44-.5l-.1-.05-.1.03c-.13.04-.29.2-.35.32-.1.2-.16.38-.17.55-.02.32-.03.64-.04.96,0,.22-.01.43-.02.65,0,.07,0,.14,0,.21,0,.28,0,.55-.15.76-.17.27-.18.57-.02.85.31.54.45,1.16.44,1.89Z" class="cls-1"></path>
      <path d="M184.86,122.52h.01c.18,0,.31-.19.33-.33h0c.19.01.38-.01.56-.04.05,0,.32-.06.34-.28.02-.17-.05-.27-.1-.33-.06-.06-.16-.13-.33-.12-.04,0-.08,0-.12,0-.17,0-.42-.01-.62.17l-.23-.12v.31s-.11.08-.15.15c-.08.12-.08.26-.02.37.06.12.18.19.33.2Z" class="cls-1"></path>
      <path d="M179.98,140.05v.22s0,.18,0,.18c0,.34,0,.7.13,1.01.15.35.14.63-.05,1-.08.16-.07.36.02.64.05.16.21.21.32.24.02,0,.05.01.07.02l.14.06.11-.1s.04-.03.06-.05c.08-.06.19-.14.23-.27.07-.25.12-.51.16-.81.03-.22.04-.44.06-.66.03-.43.06-.83.17-1.2.18-.61.3-1.24.42-1.84.08-.42.17-.85.27-1.27.14-.55-.09-1.08-.62-1.48-.15-.11-.35-.13-.48-.11-.44.06-.75.27-.95.61-.2.36-.44.92-.27,1.55.2.73.2,1.47.21,2.26Z" class="cls-1"></path>
      <path d="M183.01,154.26c.07.03.13.04.19.04.05,0,.09,0,.14-.03.15-.06.21-.22.23-.27.2-.49.14-.92-.16-1.27-.12-.14-.27-.27-.4-.39-.06-.05-.12-.11-.18-.17l-.24-.23-.14.3s-.04.08-.06.12c-.06.1-.12.2-.1.34.06.52.27.97.49,1.38.06.11.17.15.25.17Z" class="cls-1"></path>
      <path d="M186.64,82.94l.03.02h0s.23.22.23.22l.03-.06.46.28-.28-.61c.03-.06.07-.12.09-.19.07-.22-.03-.34-.08-.38-.06-.05-.18-.13-.4-.06-.07.02-.14.08-.19.16l-1.64-1.02,1.75,1.66h0Z" class="cls-1"></path>
      <path d="M197.39,100.43c.08.04.16.06.25.06.06,0,.12-.01.18-.03.13-.05.22-.14.27-.25.07-.17.06-.38-.02-.55-.07-.15-.19-.26-.33-.3l-.12-.04-.1.08s-.05.04-.07.05c-.08.06-.19.13-.27.24-.08.11-.1.25-.07.39.04.15.14.28.27.35Z" class="cls-1"></path>
      <path d="M183.89,140.22c.57.32,1.16.61,1.71.88.07.03.14.05.21.05s.15-.02.22-.05c.18-.08.33-.24.4-.42.07-.2.05-.43-.06-.6-.08-.13-.21-.22-.36-.23-.37-.04-.65-.21-.91-.54-.21-.27-.19-.4-.15-.49.33-.73-.03-1.27-.35-1.75l-.06-.08c-.08-.12-.21-.12-.29-.13-.02,0-.05,0-.08,0h-.11s-.08.06-.08.06c-.02.02-.05.04-.08.06-.12.08-.29.2-.3.39-.04.7-.06,1.44-.05,2.26,0,.21.13.5.33.62Z" class="cls-1"></path>
      <path d="M195.35,102.76c-.06.04-.17.13-.17.34,0,.18.2.3.34.31h.01c.1,0,.17-.04.21-.07l.2-.12-.07-.2c-.01-.05-.03-.16-.14-.22-.19-.12-.33-.07-.39-.04ZM195.59,103.17s-.1.03-.1.03c-.01,0-.02-.02-.03-.03l.04-.02s.02,0,.02,0c.04,0,.07-.03.11-.05-.01.02-.03.04-.05.06ZM195.65,103.09s-.01-.08-.04-.09c0,0-.01,0-.02,0l-.03-.05c.08.03.08.15.08.15h0Z" class="cls-1"></path>
      <path d="M195.39,148.23c.03-.13.06-.26.08-.38.05-.25.1-.49.19-.69.21-.48.18-.95.15-1.37-.01-.16-.12-.27-.22-.38-.04-.04-.14-.12-.29-.1-.18.02-.39.17-.48.33-.28.53-.6,1.33-.05,2.2.04.06.07.14.1.24.02.06.04.11.07.18l.28.68.17-.71Z" class="cls-1"></path>
      <polygon points="195.08 127.63 195.87 127.83 195.62 126.75 195.08 127.63" class="cls-1"></polygon>
      <path d="M198.73,141.26c.11.08.25.12.38.12.04,0,.07,0,.11-.01.12-.03.22-.1.27-.2.1-.17.23-.49.07-.68-.16-.2-.35-.38-.55-.56-.08-.07-.15-.14-.23-.22l-.28-.26-.11.37c-.15.48-.23,1.03.34,1.44Z" class="cls-1"></path>
      <path d="M198.06,103.72c0,.08.02.22.22.32.04.02.07.03.11.03.11,0,.19-.08.23-.12l.19-.2-.16-.18c-.04-.05-.14-.19-.32-.14-.22.07-.26.21-.27.29ZM198.41,103.67l-.06-.07s.08,0,.12.01c.02.01.06.07.06.14,0,.08-.05.13-.07.13-.05.02-.1.01-.14,0l.07-.06s.06-.05.08-.08c-.02-.03-.05-.07-.07-.09Z" class="cls-1"></path>
      <path d="M198.49,123.33s.03-.06.06-.09l.08-.11-.05-.12s-.02-.06-.04-.1c-.04-.1-.08-.23-.17-.35-.13-.16-.41-.17-.55-.12-.15.06-.34.27-.31.47.03.18.1.36.21.51.08.11.24.17.39.17.06,0,.11,0,.16-.03.12-.05.18-.16.24-.25Z" class="cls-1"></path>
      <path d="M200.05,121.88c.19-.04.27-.28.24-.42-.08-.41-.17-.82-.26-1.26l-.1-.46-.08-.05s-.09-.05-.13-.08c-.1-.07-.22-.14-.33-.23-1.09-.84-2.34-1.1-3.84-.81-.14.03-.31.18-.28.36v.05c.03.12.05.28.18.38.16.13.35.22.52.25.13.02.26.03.38.03.14,0,.27.01.38.04.43.13.87.28,1.29.43.14.05.29.1.43.15.05.09.1.18.15.27.15.28.3.55.47.81.14.21.34.36.52.49.07.05.16.07.24.07s.16-.02.22-.03Z" class="cls-1"></path>
      <path d="M198.91,110.06c.09.07.19.11.3.11.04,0,.07,0,.11-.01.12-.03.22-.09.33-.16.05-.03.1-.07.16-.1l.36-.21-.36-.21c-.06-.04-.12-.07-.16-.1-.11-.07-.21-.14-.33-.16-.15-.03-.3,0-.42.09-.11.09-.18.23-.18.37,0,.15.06.29.18.38Z" class="cls-1"></path>
      <path d="M196.18,130.8h.02s.05,0,.07,0c.05,0,.11,0,.17-.04.22-.13.52-.35.56-.76.02-.19-.16-.4-.32-.46-.35-.11-.71,0-.83.26-.05.11-.21.45,0,.8.05.08.12.12.16.14l.06.04h.09Z" class="cls-1"></path>
      <path d="M199.48,113.36c-.14-.07-.28-.14-.43-.2-.25-.1-.52-.16-.79-.21-.19-.04-.37.06-.46.12-.08.05-.26.19-.3.39-.06.3.01.58.2.79.12.13.27.22.41.29l.04.02c.16.09.33.18.49.26.12.06.23.12.34.18.05.03.11.06.16.1.13.09.28.19.46.22.2.03.41.05.63.05.29,0,.59-.04.89-.18l.19-.08-.38-1.3-.13-.03c-.1-.02-.2-.05-.29-.07-.21-.05-.41-.09-.6-.16-.14-.05-.28-.12-.43-.19Z" class="cls-1"></path>
      <path d="M199.36,144.83c-.05-.11-.11-.18-.18-.23-.12-.08-.33-.07-.44.05-.13.16-.27.33-.4.51-.35.49-.48.53-1.09.31-.09-.03-.18-.07-.27-.11l-.38-.16-.08.26s-.02.08-.04.11c-.03.09-.06.17-.07.27-.02.24-.02.48-.03.72-.02.67-.04,1.3-.26,1.91-.09.24-.03.52.02.76.03.17.09.32.14.48.03.1.07.2.09.3,0,.03-.02.1-.04.15-.06.15-.16.39.02.64l.12.18.23-.13s.09-.05.13-.08c.28-.21.93-.71.42-1.53-.08-.13-.06-.27.07-.53.09-.18.19-.35.29-.53.22-.39.45-.78.54-1.25,0,0,.02-.04.12-.11.04-.03.07-.05.09-.06.09.05.14.1.15.11.03.1,0,.24,0,.38,0,.06-.01.11-.02.16,0,.07-.02.14-.04.21-.05.25-.11.56.12.87l.09.12.15-.03c.83-.15.9-.68.86-.98-.05-.39.07-.75.21-1.17l.09-.27-.19-.42c-.15-.34-.28-.63-.42-.93Z" class="cls-1"></path>
      <path d="M201.06,142.69v-.03s0,0,0,0c0-.43-.15-.79-.46-1.09-.11-.11-.29-.16-.47-.13-.15.02-.27.1-.33.21-.11.21-.13.37-.07.5.18.36.4.73.82.88l-.02.17.08-.02s0,.01,0,.02c.06.21.19.27.26.29.02,0,.05,0,.07,0,.09,0,.17-.04.24-.1.06-.06.13-.18.12-.31-.02-.17-.08-.3-.19-.37-.02-.01-.04-.02-.06-.03Z" class="cls-1"></path>
      <path d="M195.28,151.66s-.03.04-.04.06c-.06.07-.12.16-.14.28-.03.2.08.39.11.44.06.09.15.14.25.14.03,0,.06,0,.09-.01.2-.06.3-.3.3-.51v-.06l-.34-.68-.23.35Z" class="cls-1"></path>
      <path d="M149.6,150.14c-.05-.1-.1-.18-.21-.34-.06-.1-.14-.22-.26-.4l-.44-.7v1.5c0,.35,0,.59,0,.83,0,.4-.01.86-.23,1.28-.09.17-.07.36-.05.47.02.12.09.23.22.34.06.05.12.07.18.07.11,0,.22-.06.27-.1.06-.05.11-.1.16-.16.03-.03.05-.05.08-.08.4-.38.63-.9.71-1.57.05-.38-.13-.65-.29-.89-.06-.08-.11-.17-.15-.26Z" class="cls-1"></path>
      <path d="M157.15,149.19c.04-.25.05-.52.03-.84,0-.18-.19-.42-.4-.45-.52-.07-.99-.11-1.45-.14-.22-.01-.43.07-.57.14-.11.06-.2.12-.29.19-.08.06-.16.12-.24.16-.54.26-.82.71-.86,1.36,0,.04,0,.08-.01.11-.02.17-.05.43.18.65.09.09.2.12.32.1.2-.03.38-.22.6-.62l.06-.11c.04-.08.09-.17.14-.25.03,0,.09,0,.09,0l.06.06c.11.12.22.24.27.36.07.19.07.41.07.64,0,.3,0,.64.16.94,0,.03-.02.11-.03.17-.17.67-.35,1.34-.54,2.01-.03.11-.24.21-.36.19-.25-.06-.44-.23-.42-.38,0-.08.02-.17.04-.25.01-.07.03-.14.04-.21.02-.17.04-.33.05-.5.01-.21-.08-.43-.23-.56-.12-.1-.25-.14-.39-.12-.26.05-.42.23-.46.53-.03.19-.06.44-.05.69.02.44-.11.83-.39,1.18-.43.54-.3,1.19-.22,1.58.05.24.35.41.54.45.13.03.25.04.36.04.35,0,.64-.12.89-.35.78-.73,1.69-1.38,2.88-2.06l.11-.06v-.12c.02-.14.03-.26.04-.38.01-.24.03-.44.07-.62.13-.51.13-.98,0-1.4-.24-.75-.17-1.49-.07-2.11Z" class="cls-1"></path>
      <path d="M148.21,154.15s-.03-.02-.04-.03l-.11-.1-.13.05c-.26.1-.56.33-.47.87.02.12.12.27.26.31.03,0,.06.01.08.01.12,0,.22-.07.26-.1.36-.25.4-.54.36-.75-.03-.14-.14-.22-.21-.27Z" class="cls-1"></path>
      <path d="M160.31,147.36c-.3-.19-.61-.13-.81-.06-.07.02-.12.05-.16.08l-.03.02c-.32.18-.49.4-.5.64,0,.16.06.39.38.6l.17.11c.29.19.57.37.78.63.22.27.27.52.17.82-.07.22-.13.43-.18.61l-.07.23.05.5c.03.26.29.51.56.51h0c.28,0,.55-.21.58-.45l.02-.14c.02-.12.04-.24.05-.35,0-.12,0-.25.01-.37,0-.39,0-.75.23-1.07.13-.18.06-.44.04-.52-.25-.83-.67-1.41-1.29-1.8Z" class="cls-1"></path>
      <path d="M145.14,152.44l-.23-.02c-.24-.03-.5-.06-.75-.05-.59.02-1.05.42-1.1.99-.04.43-.1.86-.36,1.26-.37.6-.51,1.28-.41,1.99-.01.07-.02.15-.04.22-.04.23-.08.47-.08.72,0,.23.22.41.41.52.06.03.12.05.18.05.14,0,.27-.06.35-.11.16-.1.25-.26.29-.34.32-.66.68-1.2,1.11-1.67.21-.23.28-.55.19-.83-.06-.19-.04-.36.07-.6l.06-.14c.13-.28.24-.55.44-.77.11-.12.16-.26.2-.39.01-.04.03-.08.04-.11.07-.17,0-.38-.08-.5-.1-.16-.22-.21-.3-.22Z" class="cls-1"></path>
      <path d="M162.96,151.5c.02.11.07.19.12.26.01.02.03.04.04.06l.13.24.22-.16s.04-.02.06-.04c.08-.05.19-.11.24-.24.32-.78.48-1.61.5-2.54,0-.11-.06-.19-.11-.24-.05-.05-.13-.11-.24-.11-.13,0-.41,0-.48.22-.04.12-.07.25-.09.38-.04.18-.07.35-.14.48-.2.36-.3.75-.28,1.06,0,.09,0,.17,0,.23,0,.15,0,.27.03.39Z" class="cls-1"></path>
      <path d="M318.74,125.15c0-2.95-2.52-5-6.39-5-.33,0-1.13,0-1.48.02v-2.53h7.12v-3.49h-11.07v9.44c1.04-.07,3.74-.09,4.61-.09,1.65,0,2.58.71,2.58,1.96,0,1.35-.94,2.1-2.61,2.1-1.5,0-3.01-.71-4.3-2.08l-1.72,3.35c1.79,1.25,4.33,2.08,6.54,2.08,4.07,0,6.72-2.27,6.72-5.76Z" class="cls-1"></path>
      <path d="M144.16,151.75c.1.04.28.1.49.1.2,0,.42-.06.62-.26l.11-.12-.07-.15c-.19-.42-.54-.63-.98-.6-.18.01-.34.15-.42.27-.07.12-.09.28-.03.43.05.15.15.27.28.31Z" class="cls-1"></path>
      <path d="M253.31,127.47c0-15.97-5.85-31.31-16.91-44.35-10.38-12.23-24.6-21.63-41.22-27.24-.07-.28-.14-.56-.22-.83-.04-1.15-.27-2.24-.68-3.25-.02-.49-.07-1.07-.19-1.71.07-.83.04-1.65-.1-2.45v-.05s0-3.54,0-3.54c0-.43-.03-.85-.08-1.39-.1-1.46-.6-2.85-1.45-4.03-1.1-1.54-2.45-2.8-4.25-3.96-2.91-1.89-6.37-2.12-9.49-.64-1.05.5-2,1.04-2.89,1.64l-.29.19c-.54.36-1.12.76-1.68,1.24-1.12.95-1.98,2.06-2.56,3.28-.54.43-1.42,1.13-2.27,2.27-.22.3-.45.59-.71.91-.58.73-1.31,1.65-1.96,2.7l-.57.92c-.68,1.08-1.3,2.07-1.87,3.08-2.54-.1-4.62-.1-7.02-.03-.06-.12-.12-.23-.18-.34-.03-.17-.07-.36-.11-.55-.07-1.3-.45-2.63-1.06-3.71l-.08-.18s-.03-.07-.05-.1c.15-1.64-.16-3.24-.89-4.68-.27-1.11-.73-2.16-1.37-3.08-.45-1.21-1.16-2.32-2.08-3.23-1.49-1.48-3.36-2.36-5.43-2.55-2.78-.81-5.88-.12-8.02,1.81-.44.37-1.52,1.3-2.26,2.87-.28.59-.55,1.2-.81,1.81l-.24.55c-.29.68-.49,1.38-.58,2.11-.08.18-.18.38-.24.49-.65,1.27-.83,2.48-.9,3.26-.33.73-.58,1.49-.74,2.27-.08.14-.15.27-.21.39-.9.78-1.62,1.63-2.18,2.59-.29.31-.69.75-1.1,1.31-1.23,1.19-2.18,2.67-2.8,4.41-35.2,11.65-58.74,40.35-58.74,71.79,0,42.62,41.82,77.29,93.23,77.29s93.23-34.67,93.23-77.29ZM128.28,73.72c.27-.71.61-1.23,1.07-1.63.25-.22.5-.46.73-.69.14-.14.29-.28.44-.42.03-.03.12-.05.2-.05.05,0,.1,0,.13.02.1.05.16.14.21.41,0,.02,0,.05-.01.07-.02.11-.05.24-.1.35-.07.14-.19.29-.34.44-.43.42-.6.97-.52,1.68.02.17.07.34.11.5.04.15.08.29.1.43,0,.01,0,.09-.11.28-.06.09-.18.12-.21.1-.54-.35-1.07-.71-1.6-1.06-.06-.04-.19-.13-.08-.43ZM103.21,99.08s.07-.1.11-.12c.88-.42.98-1.24.98-1.82,0-.1,0-.2,0-.3,0-.17-.01-.33,0-.48.01-.13,0-.25-.02-.37-.04-.31-.03-.38.09-.43.08-.04.16.01.36.16.09.07.18.13.27.19.37.19.53.49.54.98,0,.28.08.48.24.62.15.14.36.19.65.16.68-.07,1.09.2,1.37.88.04.09.09.17.13.23.04.06.08.12.1.17.15.45.52.57.82.66h.05s.05.08.07.11c-.13.19-.35.3-.5.29-.15-.01-.37-.04-.54-.12-.15-.07-.29-.17-.45-.28-.07-.05-.13-.09-.2-.14-.37-.24-.75-.36-1.15-.36-.18,0-.37.03-.57.08-.71.18-1.48.17-2.36-.04,0-.03,0-.05.02-.07ZM83.21,155.24l-3.2-4.28,18.56-8.93,7,8.27-3.42,2.11-4.21-4.84-2.96,1.54,4.32,5.39-3.4,2.09-4.57-5.51-8.14,4.17ZM101.71,175.78l-10.15-9.78,16.72-12.9,8.76,7.5-3.16,3.06-5.79-5.15-3.07,2.43,6.13,5.49-2.96,2.91-5.95-5.66-3.67,2.85,6.47,6.07-3.34,3.17ZM124.33,188.68l-4.13-1.68-1.53-15.38-7.44,10.87-4.57-2.87,13.24-16.96,2.35,1.36,2.1,13.7,4.91-10.28,4.18,1.82-9.11,19.41ZM150.32,177.74l-4.98-.87-4.12,16.85-5.5-1.26,4.69-16.62-5.27-1.18,1.65-4.34,14.45,2.83-.91,4.59ZM135.86,160.19c.11-.17.26-.26.43-.26h.02c.06,0,.17.14.18.37v.17s0,.06,0,.09c-.01.09-.03.19-.06.27-.05.14-.09.16-.14.17-.23.05-.3,0-.35-.06-.18-.21-.22-.54-.08-.75ZM158.58,195.24l-5.62-.23,1.88-21.79,4.46.34-.71,21.68ZM163.54,160.41l-.15.13s-.08.07-.12.1c-.11.08-.21.16-.29.29-.17.27-.33.55-.49.83-.19.32-.38.65-.58.96-.12.19-.33.29-.56.28-.26-.01-.5-.17-.61-.4-.07-.14-.13-.28-.19-.41-.07-.15-.13-.31-.2-.45-.06-.11-.16-.18-.28-.19-.14-.01-.28.06-.38.19l-.03.04c-.09.11-.19.24-.25.4-.05.11-.07.22-.1.32-.03.1-.05.19-.09.28-.05.11-.25.18-.39.14-.04-.01-.07-.03-.11-.04-.17-.07-.4-.17-.74-.05l-.07.02-.04.06c-.05.07-.1.14-.16.21-.14.18-.29.39-.45.59-.23.27-.54.41-.96.42-.14,0-.29-.05-.37-.14-.06-.07-.08-.17-.07-.28.05-.3.07-.61.09-.9.03-.5.05-.97.24-1.42.12-.29.06-.66-.14-1-.2-.33-.49-.54-.79-.57-.45-.04-.71-.27-1-.65-.11-.15-.29-.23-.49-.23-.04,0-.07,0-.11,0-.27.04-.5.22-.58.46l-.03.08c-.16.44-.34.93-.2,1.46.06.22.02.36-.12.51l-.27.29c-.24.26-.48.51-.71.75,0,0-.01,0-.02,0-.18-.32-.25-.68-.32-1.07-.04-.19-.07-.39-.12-.59l-.08-.3-.27.15s-.07.03-.11.05c-.12.05-.26.11-.34.25-.22.4-.34.83-.45,1.25-.03.1-.05.19-.08.29-.04.02-.14.04-.17.02-.1-.1-.19-.2-.24-.3-.02-.04-.03-.09-.05-.13-.05-.15-.11-.38-.37-.5l-.14-.06-.12.1s-.1.09-.15.13c-.11.1-.21.19-.33.27-.03.02-.15,0-.17-.04-.28-.91-.41-1.62-.44-2.3,0-.18-.11-.35-.18-.48l-.03-.04c-.05-.08-.13-.14-.24-.16-.2-.04-.41.07-.55.17-.84.66-1.38,1.41-1.65,2.3-.06.19-.16.39-.33.64-.05.08-.14.13-.24.15-.1.02-.2,0-.27-.07-.16-.12-.3-.26-.45-.41-.08-.08-.16-.15-.24-.23-.13-.12-.32-.17-.51-.13-.19.04-.34.15-.41.31-.03.07-.05.14-.07.21-.07.44-.19.48-.31.47-.19,0-.31-.17-.47-.49-.04-.07-.06-.16-.09-.26-.03-.11-.06-.23-.11-.34-.2-.42-.49-.86-1.13-.92-.16-.02-.32-.06-.49-.11-.08-.02-.16-.05-.25-.07h-.05s-.05,0-.05,0c-.29.05-.44.24-.56.4l-.06.08c-.3.36-.6.73-.94,1.05-.16.15-.37.16-.62.03-.04-.02-.07-.09-.07-.11.03-.09.09-.17.15-.26.11-.17.24-.37.26-.66.03-.62-.06-1.38-1.02-1.77-.21-.09-.42-.19-.63-.3-.46-.24-.94-.49-1.52-.53-.22-.02-.3-.25-.32-.35-.03-.14-.06-.27-.09-.41-.02-.12-.05-.25-.07-.37-.03-.14-.14-.26-.29-.31-.17-.06-.35-.02-.48.09-.52.44-.63.82-.41,1.39.03.08.07.15.11.23.05.09.11.19.1.25-.02.39-.18.68-.49.88-.05.03-.14.04-.22.01-.06-.02-.11-.06-.13-.1-.1-.24-.19-.47-.22-.69v-.1c-.06-.46-.12-.98-.58-1.37-.04-.03-.07-.12-.1-.19-.02-.05-.04-.1-.07-.15-.4-.79-.42-.99.26-1.72.28-.3.53-.69.23-1.26-.19-.36-.34-.68-.47-.99-.26-.66-.87-.62-1.16-.6-.43.03-.76.34-.76.72,0,.28-.01.56.05.84.1.43.22.85.37,1.26.13.36.1.67-.11,1.02-.09.16-.18.32-.26.48-.09.18-.17.35-.27.5-.08.12-.18.18-.31.17-.11-.01-.18-.1-.28-.25l-.03-.05s-.05-.11-.05-.16c.04-.95-.24-1.83-.51-2.68l-.07-.22c-.16-.51-.16-.88-.02-1.25.09-.23.15-.47.16-.69.03-.46.06-.9.25-1.32.14-.3.17-.66.08-1,.01,0,.03,0,.04-.01l.12-.04.05-.11c.03-.07.05-.23,0-.34-.02-.04-.09-.16-.24-.17-.14,0-.21.06-.34.23l-.3.03.1.21-.05.05c-.13.13-.25.26-.38.39-.26.25-.56.6-.63,1.09-.03.21-.14.38-.31.58-.18.21-.3.46-.39.81-.16.59-.47,1.12-.79,1.67l-.17.28c-.04.07-.12.1-.16.11-.12.03-.26.01-.36-.04-.12-.07-.21-.21-.3-.35-.14-.22-.31-.47-.64-.57-.22-.07-.43-.13-.65-.19-.13-.04-.26-.07-.39-.11-.02-.03-.04-.08-.04-.08.09-.16.18-.32.29-.48l.19-.3-.02-.09c-.02-.13-.05-.27-.08-.41-.06-.31-.13-.64-.16-.96-.03-.35-.13-.66-.23-.97-.03-.1-.06-.2-.09-.31-.07-.26-.06-.55-.05-.86,0-.12,0-.23,0-.35,0-.17.09-.31.3-.49.05-.04.1-.07.15-.1.03-.02.07-.04.1-.06.6-.38.49-1.02.46-1.23-.07-.44-.27-.75-.59-.96-.14-.09-.28-.19-.42-.29l-.09-.07c-.07-.05-.14-.13-.13-.36.01-.21.06-.43.1-.59.13-.54.27-1.07.41-1.6l.11-.42c.02-.07.03-.13.04-.2.03-.14.06-.27.11-.37.3-.6.5-1.16.61-1.72.02-.1.08-.21.14-.32.04-.07.08-.14.11-.21.07-.14.18-.32.33-.36.16-.04.35.09.45.17.12.1.24.19.36.28.42.32.81.62,1.05,1.08.1.19.28.31.45.42.04.02.07.05.11.07l.25.17c.53.36,1.03.7,1.38,1.22.22.33.57.45.81.51.18.05.37.13.55.21.22.1.35.24.41.42.03.09.05.18.07.28.03.12.06.23.1.35.07.21.17.52.52.64.37.13.7.08.97-.15l.1-.08-.02-.13c-.06-.42-.23-.8-.52-1.13-.29-.32-.35-.72-.19-1.1.09-.2.15-.41.21-.62.1-.35.2-.68.42-.95.11-.14.15-.3.19-.45.02-.07.03-.14.06-.21.08-.18.15-.36.26-.49.05-.06.14-.13.22-.19.14-.11.3-.23.39-.41.36-.72.98-.89,1.81-.93.55-.03,1.1.11,1.64.25.02,0,.07.07.11.19.04.13.03.25,0,.3-.06.09-.15.17-.17.17-.34.05-.68.07-1.02.1-.13,0-.25.02-.37.03h-.06s-.05.04-.05.04c-.84.57-1.33,1.37-1.8,2.14-.07.11-.13.21-.2.32-.18.29-.19.65-.04,1,.06.12.11.24.17.36.2.41.38.79.46,1.22.05.26.25.46.34.53.24.21.33.49.42.86.07.29.24.39.33.42.09.03.27.07.5-.09.27-.19.47-.3.73-.29.12,0,.24,0,.36,0h.05c.43,0,.84,0,1.22.2.18.1.39.1.57.1.05,0,.1,0,.15,0,.1,0,.21,0,.31,0,.16,0,.31-.01.41.03.83.34,1.67.33,2.49.32.3,0,.62-.01.92,0h.21c.35.02.67.03.99.14.4.14.84.16,1.18.16,1.88.02,3.77.02,5.65.02h.63c.44-.01.98-.03,1.5-.23.23-.09.5-.1.78-.12.09,0,.17,0,.26-.02.1,0,.21,0,.32,0,.24.02.49.03.72-.08.4-.2.83-.21,1.29-.22.28,0,.57-.02.86-.07.26-.05.51-.11.76-.18.35-.09.72-.18,1.09-.22h.07s.06-.06.06-.06c.25-.21.57-.27.9-.34.17-.03.34-.07.52-.12.41-.13.84-.29,1.37-.52.32-.14.65-.27.98-.39.71-.28,1.44-.56,2.12-.96.11-.06.16-.08.19-.08.87-.04,1.58-.46,2.26-.86l.07-.04c.56-.33,1.13-.62,1.69-.86.96-.41,1.74-.99,2.38-1.75.06-.07.13-.13.21-.2.03-.02.06-.05.09-.08l1.16-.15.06-.08c.39-.53.91-.92,1.46-1.33.34-.26.7-.52,1.02-.83.02-.02.05-.04.08-.06.13-.07.27-.14.4-.2.3-.15.61-.3.89-.5.23-.16.43-.34.63-.52.16-.15.32-.29.48-.41.93-.69,1.63-1.42,2.25-2.36.03-.04.05-.08.07-.12.03-.05.05-.09.07-.11.78-.77,1.31-1.67,1.79-2.54.12-.22.32-.34.6-.35.2-.01.4,0,.59.03.11.02.26.06.33.18.06.11.06.27-.02.45-.06.16-.17.32-.28.48-.07.1-.14.2-.2.3-.16.27-.16.58,0,.85.07.11.14.22.22.32.05.07.1.14.15.22.07.11.17.33.07.52-.29.54-.29.98.02,1.44.06.09.09.24.13.44.03.13.06.28.1.45l.34,1.32.17-1.8c.02-.23.04-.4.05-.57.02-.39.04-.79.22-1.16.19-.4.2-.85.04-1.28-.28-.76-.38-1.61-.29-2.5v-.04s0-.04,0-.04c-.11-.39-.39-.5-.57-.57-.06-.02-.12-.05-.16-.08-.29-.22-.49-.43-.55-.75-.07-.38-.24-.67-.5-.84-.32-.21-.51-.51-.68-.9-.07-.16-.25-.26-.48-.26h0c-.19,0-.42.07-.51.26-.12.27-.24.53-.27.81-.02.17.02.34.05.48.02.07.03.14.04.21,0,.07-.09.24-.27.36-.06.04-.26.15-.41.05-.03-.02-.07-.05-.1-.07-.06-.04-.11-.09-.18-.12-.31-.18-.67-.19-.95-.03-.27.15-.43.42-.45.74-.03.42,0,.84.04,1.25v.07c.02.15.05.3.07.44.02.12.05.24.06.36,0,.08-.02.16-.09.23-.07.08-.17.13-.27.13h-.05s-.09,0-.14,0c-.04,0-.12-.03-.19-.06-.16-.07-.44-.19-.69.03-.13.11-.19.26-.25.39-.03.07-.06.14-.1.19-.11.15-.24.3-.37.37-.42.2-.73.53-.98,1.01-.13.25-.28.27-.41.26-.52-.04-.91.17-1.14.61,0,0,0,0-.01.01-.02.01-.04.03-.05.04-.01.01-.07.02-.15,0-.07-.02-.1-.06-.11-.09v-.06c-.05-.2-.09-.45-.03-.58.21-.5.23-.96.06-1.56-.09-.3-.11-.62-.14-.95-.02-.2-.03-.4-.06-.6-.03-.19-.21-.28-.35-.36-.17-.09-.37.03-.37.03l-.12.08v.13c0,.14-.03.29-.05.44-.05.32-.11.69.04,1.06.14.36.14.71-.01,1.07-.14.34-.04.62.05.81.09.18.09.37,0,.59-.09.24-.17.48-.25.72-.04.12-.08.23-.12.35-.04.13-.14.21-.26.22-.14.01-.26-.04-.35-.16-.05-.07-.09-.17-.13-.28l-.03-.09c-.02-.06-.05-.13-.07-.19-.03-.09-.06-.17-.09-.26-.07-.18-.29-.2-.33-.2-.11,0-.35.04-.37.25l-.03.2c-.04.25-.08.51-.08.78,0,.33-.16.59-.37.91-.07.11-.17.14-.24.15-.12.02-.26-.03-.38-.14-.04-.04-.07-.09-.07-.09,0-.06.02-.13.04-.2.02-.08.04-.16.05-.24,0-.06.01-.12.02-.18.03-.22.06-.45.01-.68-.02-.11-.05-.22-.08-.33-.09-.32-.16-.6-.03-.93.14-.35.14-.72.15-1.09,0-.14,0-.27.01-.41,0-.15,0-.29,0-.44,0-.32,0-.63.13-.92.03-.06.08-.17.05-.29-.04-.13-.17-.28-.33-.29-.31-.01-.46.06-.5.22-.13.51-.27,1.01-.48,1.48-.1.23-.1.5-.1.73,0,.05,0,.11,0,.16v.32c-.01.74-.02,1.51,0,2.27.01.55-.14,1.08-.49,1.7-.05.06-.3.1-.39.04-.41-.27-.58-.71-.42-1.1.32-.79.33-1.58.29-2.31-.01-.19-.22-.4-.41-.41-.19-.01-.35.1-.45.19-.1.1-.18.25-.21.4l-.02.09c-.08.39-.16.79-.21,1.2-.04.33,0,.59.11.76.14.23.12.46.11.74,0,.07,0,.15-.01.22-.04,1.47-.06,1.49-.81,1.95-.08.05-.18.11-.28.18,0-.09-.02-.19-.04-.28,0-.04-.02-.08-.02-.13-.04-.23-.1-.61-.53-.7-.18-.03-.31.03-.41.11.12-.31.18-.62.23-.91.03.03.05.07.07.11.03.04.05.08.08.12.18.25.46.3.73.13.3-.19.45-.56.34-.83-.13-.31-.4-.58-.7-.7-.22-.09-.45-.09-.64,0-.12.06-.24.12-.35.18-.39.21-.73.39-1.14.3-.17-.04-.3.1-.36.19-.18.25-.45.29-.77.35-.08.01-.16.03-.23.04l-.09.02-.05.07c-.21.27-.19.56-.18.8,0,.14.01.26-.02.37-.06.18-.11.36-.16.54-.05.18-.1.36-.16.54-.07.2-.15.35-.61.27-.25-.05-.6-.11-.94.1-.08.05-.16.08-.24.12-.06.03-.12.06-.18.09-.15.08-.28.18-.4.29-.23.19-.37.3-.58.29-.23-.02-.47-.07-.72-.12-.11-.02-.23-.05-.34-.07l-.09-.02-.08.05c-.39.23-.68.56-.96.87l-.15.17c-.15.16-.21.36-.26.53-.06.2-.11.33-.23.42-.03-.02-.06-.05-.1-.08-.18-.14-.37-.29-.59-.39-.3-.14-.44-.4-.58-.73-.15-.34-.04-.41.12-.49.71-.32.71-.89.65-1.29-.02-.16-.14-.28-.23-.38l-.11-.08h-.11s-.2.02-.29.15c-.07.09-.14.17-.21.26-.2.25-.42.5-.56.83-.25.59-.77.95-1.24,1.23-.03.02-.08.03-.14.04-.04,0-.08.02-.12.03-.06.02-.14,0-.2-.04-.05-.03-.08-.08-.08-.12,0-.09,0-.19.02-.29.03-.22.07-.48-.09-.77-.05-.09-.13-.25-.33-.22-.12.02-.27.05-.39.14-.1.08-.18.21-.23.37-.03.08-.04.16-.06.24-.02.08-.03.15-.05.21-.11.25-.31.43-.56.51-.24.07-.48.03-.69-.11-.1-.07-.19-.15-.29-.24-.15-.13-.3-.27-.48-.37-.11-.06-.23-.12-.34-.18-.31-.16-.6-.31-.88-.51-.33-.23-.71-.21-1.06-.19-.17,0-.33.02-.47,0-.18-.02-.37-.08-.52-.16-.03-.02-.07-.05-.11-.08-.12-.1-.35-.28-.64-.14-.17.08-.27.26-.35.4l-.04.07c-.11.2-.31.25-.61.32h-.06c-.2.06-.29,0-.34-.07-.07-.09-.14-.19-.21-.29-.08-.12-.16-.24-.26-.36-.17-.2-.41-.32-.65-.33-.21-.01-.41.07-.55.21-.3.3-.65.53-1.03.76-.12.08-.25.15-.37.23-.11.07-.25.07-.38,0-.23-.12-.47-.24-.68-.38-.09-.06-.21-.17-.23-.35-.02-.2-.04-.39-.05-.59-.02-.23-.04-.46-.06-.69-.04-.34-.27-.63-.56-.69-.39-.08-.67-.3-.97-.58-.49-.47-.7-.37-1.26,0-.19.13-.26.16-.34.12-.31-.13-.6-.09-.85-.05h-.06c-.21.04-.36-.02-.49-.18-.02-.03-.04-.06-.07-.09-.1-.15-.28-.4-.61-.36-.19.02-.34.13-.47.22l-.06.04c-.16.11-.39.2-.59.01-.57-.53-1.22-.95-1.85-1.36-.22-.14-.44-.28-.65-.43-.18-.12-.3-.27-.41-.51-.04-.09-.2-.39-.45-.46-.28-.08-.49-.21-.69-.43-.14-.15-.35-.2-.54-.24-.05-.01-.1-.02-.15-.04-.08-.02-.17-.04-.26-.06-.07-.01-.14-.03-.19-.04-.05-.04-.15-.21-.16-.25.11-.42.37-.72.77-.9.11-.05.33-.02.49,0,.06,0,.08.03.14.24l.02.06c.06.19.17.31.33.34.15.03.3-.03.41-.17.11-.14.2-.28.29-.42.13-.21.26-.42.45-.56l.05-.04c.22-.17.44-.34.69-.4.25-.06.4-.25.45-.54.04-.26.07-.53.08-.83,0-.35-.1-.65-.34-.9-.16-.17-.31-.36-.46-.59-.23-.35-.28-.66-.14-.99.31-.73.33-1.38.06-1.97l.04-.15h0s0,0,0,0l-.13-.03s-.06-.01-.09-.02l-.46-.13.07-.13c.58-.34.8-.89,1.01-1.43l.02-.06c.1-.25.24-.51.43-.8.2-.3.44-.47.74-.52.26-.04.51-.09.76-.14l.42-.08.05-.07s.07-.08.1-.12c.08-.09.16-.18.23-.29.05-.07.09-.15.13-.23.14-.27.24-.43.45-.5.24-.07.47.03.78.15.09.04.39.14.65.04.11-.04.21-.08.32-.13.56-.21,1.13-.44,1.57-.92.33-.36.74-.61,1.18-.86l.06-.03c.49-.29.83-.28,1.19.04.08.08.18.16.29.23.31.18.65.19.99.03l.05-.02c.29-.14.61-.29.81-.64l.03-.06c.05-.08.11-.2.17-.23.42-.23.77-.54,1.1-.85.23-.21.44-.4.67-.57.02,0,.08,0,.12.04.04.04.1.12.08.17-.07.13-.14.25-.22.38-.09.15-.18.3-.26.46-.1.21.08.47.15.55.1.1.31.23.51.18.13-.03.36-.11.53-.29.07-.07.13-.14.2-.21.28-.28.56-.58.77-.93.3-.51.66-.87,1.15-1.12.14-.07.24-.19.33-.29.03-.03.05-.06.08-.09.21-.22.21-.65.07-.89-.16-.28-.58-.43-.87-.3-.1.05-.2.1-.3.15-.14.07-.27.14-.41.2l-.14.06c-.19.08-.37.16-.53.17-.59.02-1.13.18-1.77.52-.39.21-.83.35-1.28.49-.16.05-.33.1-.49.16-.14.05-.27.07-.38.06-1.31-.07-2.52.32-3.69.69l-.29.09c-.08.02-.15.05-.23.08-.21.08-.41.16-.62.14-.32,0-.6.09-.89.3-.48.35-1.05.54-1.68.56-.41.02-.78.16-1.16.45-.29.22-.6.43-.92.64-.12.08-.25.17-.38.26l-1.52.08-.05.04s-.07.05-.11.06c-.09.05-.18.1-.25.19-.51.68-1.11,1.21-1.84,1.63-.27.15-.51.34-.69.53-.34.36-.76.76-1.33.96-.16.06-.39.2-.5.4-.2.37-.49.57-.98.69-.35.08-.55.33-.72.55-.07.09-.14.18-.21.24-.42.4-.61.83-.58,1.32.03.44-.05.79-.24,1.09l-.03.04v.05c-.21,1.38-.7,2.8-1.56,4.45-.09.18-.19.36-.28.53-.08.15-.16.3-.24.46-.27.52-.65.87-1.14,1.07-.27.11-.53.27-.75.45-.31.26-.64.38-1.02.36-.38-.01-.73.08-1.05.27-.41.25-.86.4-1.33.55-.14.05-.28.09-.41.14-.06.02-.11.04-.17.07-.08.04-.16.08-.21.07-.65,0-1.26.16-1.85.32-.35.1-.67.19-1.01.24l-.11.02c-.52.09-1.06.18-1.59.19h-.22c-.25,0-.52,0-.78.04-.2.03-.39.09-.57.14-.05.01-.09.03-.14.04-.65-.36-1.21-.8-1.75-1.23-.47-.37-.8-.79-1.02-1.29-.12-.28-.29-.53-.44-.78-.07-.12-.15-.23-.22-.35-.04-.07-.08-.13-.12-.2-.1-.16-.19-.31-.25-.46-.13-.35-.27-.69-.41-1.03-.3-.73-.6-1.48-.8-2.26-.16-.63-.16-1.13.01-1.63.02-.04.05-.11.05-.19.03-.76.31-1.46.89-2.2.15-.19.26-.41.36-.62.06-.13.13-.26.2-.38.44-.73.89-1.37,1.36-1.95.13-.16.26-.31.39-.47.6-.7,1.21-1.43,1.56-2.35.18-.47.49-.81.94-1.04.25-.13.42-.33.5-.62.08-.27.2-.54.31-.8l.03-.07c.12-.29.29-.49.5-.61.35-.19.64-.46.92-.71.31-.29.61-.56.98-.72l.05-.02.03-.04c.12-.13.25-.25.38-.38.3-.29.6-.59.85-.94.35-.48.67-.83,1.04-1.11.33-.25.66-.58.94-.97.4-.55.89-.94,1.5-1.21.57-.25,1.07-.63,1.49-1.11.29-.34.63-.66.96-.96l.28-.26c.15-.14.35-.2.47-.14.6.3,1.21.3,1.8.31.12,0,.23,0,.35,0,.33,0,.65.03.94.06.04,0,.09.05.13.12.05.1.06.23.02.3-.22.39-.51.82-.97,1.12-.72.46-1.32,1.09-1.83,1.91-.5.81-1.24,1.43-1.84,1.88l-.09.07c-.16.11-.33.24-.44.43-.12.22-.27.41-.44.62-.31.39-.63.8-.73,1.37-.06.32-.37.58-.66.83l-.04.03c-.42.36-.62.81-.6,1.32.02.32-.1.59-.35.81-.33.29-.54.65-.75,1.01-.17.3-.34.58-.57.81-.04.04-.08.1-.08.21,0,.12.06.31.17.41.14.14.36.1.48.08.14-.03.2-.15.25-.25.23-.4.46-.8.78-1.14.28-.31.52-.66.75-1,.1-.15.2-.3.3-.45.09-.13.2-.26.3-.39.31-.38.63-.77.75-1.32.03-.14.16-.31.39-.51.66-.58,1.22-1.3,1.73-2.21.3-.54.65-.92,1.1-1.19.24-.15.43-.34.62-.54.16-.16.3-.31.47-.43.06-.04.11-.08.17-.11.31-.2.66-.43.79-.9,0-.02.06-.09.23-.18.78-.44,1.37-1.05,1.74-1.81.06-.13.18-.22.33-.26.03,0,.06,0,.1-.01.08,0,.17-.02.26-.06.15-.07.3-.15.45-.23.28-.15.54-.28.81-.36.29-.08.59-.09.92-.1.16,0,.32-.01.47-.03.12-.01.23-.09.29-.21.08-.17.06-.4-.05-.56-.2-.29-.43-.45-.69-.46h-.15c-.55-.05-1.12-.09-1.7.19-.56.27-1.13.31-1.69.12-.17-.06-.35-.07-.51-.09-.15-.01-.3-.03-.42-.07-.38-.14-.73-.13-1.1.03-.24.1-.43.02-.55-.07-.22-.17-.35-.47-.31-.75.05-.37.1-.74.16-1.1.05-.28-.08-.51-.36-.63-.3-.13-.74.01-.88.27-.06.12-.13.24-.19.36-.06.12-.12.24-.18.35-.03.05-.05.1-.08.15-.07.13-.13.26-.21.35-.45.51-.57.52-1.01.14-.12-.1-.23-.21-.34-.32-.23-.23-.54-.34-.93-.3h-.14c-.24.02-.48.04-.72.13-.33.13-.62.02-.96-.1l-.11-.04c-.21-.08-.31-.19-.34-.38l-.02-.13c-.03-.24-.06-.5-.26-.74-.09-.12-.25-.19-.42-.19-.15,0-.28.05-.36.14l-.05.05c-.07.07-.14.15-.19.26-.14.3-.35.45-.68.49-.37.05-.75.11-1.14.17-.15.02-.3.05-.45.07h-.01c-.49-.3-1.05-.64-1.75-.62-.22.02-.44-.09-.72-.31-.19-.15-.38-.27-.58-.39-.17-.11-.34-.21-.49-.33-.17-.13-.27-.31-.29-.51-.02-.16.09-.33.19-.34.4-.05.7-.02.98.1.33.14.61.19.87.2.2,0,.39-.04.57-.07.23-.04.45-.08.65-.05.11.01.22.03.33.05.32.05.64.1.98.09h.04c.22,0,.48-.02.69-.13.27-.14.56-.18.87-.22l.13-.02c.69-.1,1.24-.42,1.64-.95.1-.13.22-.25.34-.37.06-.06.13-.13.19-.19l.09-.09c.09-.09.18-.18.25-.28.23-.29,1.25-2.84,1.29-3.24.01-.11.01-.23.01-.35,0-.08-.02-.16-.03-.21-.31-1.25-.25-2.39.18-3.48l.04-.13-.05-.1c-.05-.09-.21-.25-.36-.28-.16-.03-.35,0-.49.1-.22.16-.43.32-.65.5l-.13.1c-.06-.04-.12-.08-.18-.11-.21-.13-.41-.26-.54-.42-.31-.38-.67-.61-1.16-.76-.1-.03-.2-.08-.3-.12-.32-.14-.73-.31-1.18-.09-.1-.01-.2-.03-.3-.05-.3-.05-.62-.1-.94-.08-.26.02-.49.12-.72.21-.14.06-.26.11-.39.14-.17.05-.37.05-.57.04-.57-.02-1.13-.05-1.7-.08l-.55-.03c-.37-.02-.65-.23-.92-.48,0-.03,0-.07.02-.1.02-.06.05-.12.09-.15l.23-.19c.49-.41.95-.81,1.56-.98.22-.06.45-.19.64-.35.78-.67,1.62-1.13,2.56-1.42.33-.1.65-.24.96-.38.43-.19.83-.37,1.27-.46.19-.04.34-.16.48-.27.05-.04.09-.07.14-.11.17-.11.33-.24.49-.36.36-.27.7-.52,1.07-.71.28-.14.59-.23.92-.33.24-.07.49-.14.73-.24.65-.26,1.31-.52,1.92-.88.7-.41,1.23-.38,1.79.09.1.08.24.12.39.09.21-.04.41-.19.51-.36.05-.1.12-.23.14-.38.02-.12.02-.3-.06-.45-.19-.38-.03-.6.37-.97.09-.08.21-.14.34-.2.05-.03.11-.05.16-.08.53-.28.98-.59,1.37-.95.19-.18.42-.32.66-.48.16-.1.34-.21.5-.34.5-.38.93-.45,1.39-.22l.22.11.1-.22c.33-.73.72-1.2,1.24-1.52.34-.2.65-.47.91-.77.38-.44.81-.76,1.32-.97.87-.37,1.42-1.06,1.95-1.73l.14-.17s.06-.08.1-.12c.12-.16.22-.3.38-.39.57-.32.8-.86,1.03-1.37.04-.1.09-.19.13-.29.09-.19-.05-.46-.19-.56l-.04-.03c-.21-.16-.53-.4-.93-.18-.12.06-.21.08-.3.06-.04-.14-.08-.28-.12-.41-.16-.53-.31-1.04-.31-1.58,0-.66.14-1.1.48-1.47l.08-.08c.17-.18.37-.4.39-.73,0-.16-.11-.47-.34-.5-.19-.02-.37-.01-.55-.01-.09,0-.17,0-.26,0-.14,0-.25-.07-.35-.2-.01-.02-.02-.05-.04-.09-.02-.06-.05-.14-.11-.21-.53-.69-.74-1.41-.63-2.22.05-.41-.03-.82-.23-1.23-.1-.19-.14-.43-.18-.68l-.03-.19c-.03-.17-.03-.28-.01-.33.13-.27.22-.56.3-.83.13-.43.26-.83.53-1.18.53-.68.95-1.52,1.23-2.51.3-1.05.75-1.74,1.47-2.24.05-.03.15-.08.19-.18.19-.46.53-.82.88-1.2.34-.37.7-.75.93-1.24.2-.43.6-.75,1.03-1.06.19-.14.37-.29.51-.45.32-.34.51-.74.69-1.12.14-.3.28-.58.46-.82.33-.45.56-1.09.71-2.04.07-.45.26-.86.62-1.34.29-.39.4-.77.34-1.21,0-.07-.02-.13-.03-.2-.02-.14-.04-.28-.04-.4,0-.15,0-.38.08-.52.55-1.08.94-2.02,1.05-3.08l.24-.56c.23-.53.47-1.08.72-1.6.04-.08.14-.17.25-.26.05-.04.1-.08.14-.12.2-.19.44-.25.64-.17.5.21,1,.31,1.51.29.2,0,.43.1.63.3.22.22.34.49.33.73,0,.05-.01.1-.02.15-.02.11-.05.24-.02.38.03.15.15.46.38.55.49.19.74.57.78,1.17.03.52.19.93.52,1.31.15.18.2.4.14.71-.01.07-.04.12-.15.17-.08.04-.16-.01-.19-.05-.33-.3-.49-.59-.51-.94,0-.12-.05-.23-.11-.39-.03-.09-.07-.2-.12-.35l-.46-1.39v1.47c0,.19,0,.36,0,.5,0,.31,0,.53.01.75.01.13.07.23.11.33.03.05.05.11.06.14.02.12.04.25.05.37.03.26.05.54.18.78.18.34.47.68.89,1.04.49.42.74.98,1.01,1.57.13.28.25.56.41.83.03.05.04.12.04.18-.03.45.07.87.16,1.28.06.28.12.55.14.82.04.54.22,1.03.58,1.59.41.64.71,1.34.93,2.13.18.67.4,1.37.68,2.16.25.7.37,1.48.37,2.46,0,.34-.02.69-.04,1.02-.02.46-.05.93-.03,1.4,0,.19-.08.36-.18.56-.12.24-.26.51-.23.86v.12s.26.16.26.16c.11.07.23.14.35.23.03.02.05.06.06.1,0,.02,0,.07-.03.1-.05.06-.11.1-.17.15-.06.05-.12.1-.18.15-.08.08-.26.25-.21.47.04.19.22.29.39.35.05.02.11.03.17.04.02,0,.04,0,.06.01.09.1.13.18.13.2,0,.08-.03.18-.07.28-.03.1-.06.2-.08.31-.03.18.08.42.24.5.18.1.41,0,.52-.06.08-.05.14-.12.18-.18.02-.02.04-.06.05-.06.39-.29.87-.61,1.47-.74.64-.15,1.26-.38,1.86-.68.39-.2.48-.18.78.21.03.04.05.07.08.11.06.1.13.2.24.29.15.12.41.1.56.01.14-.08.26-.27.27-.45.02-.3-.14-.49-.27-.65-.05-.06-.1-.12-.12-.15,0-.05.06-.19.1-.21.5-.17,1.01-.16,1.58.03.03,0,.09.05.21.24.1.15.26.26.43.27.14.01.26-.03.34-.11.53-.54,1.12-.62,1.97-.27l.08.03.4-.13c.24-.08.48-.16.73-.24.28-.09.6-.08.98.03.27.08.37.2.37.46,0,.6,0,1.2,0,1.82v.67s-.69.33-.69.33l-.29.16.05.19c0,.05.04.2.18.25.46.15.91.29,1.37.42.15.04.32,0,.49-.1.17-.11.28-.27.3-.42.05-.37.08-.8-.09-1.23-.24-.59-.25-1.24-.03-1.87.2-.56.1-.95-.35-1.38-.09-.08-.09-.17-.07-.23.03-.11.13-.19.26-.22.25-.05.42-.02.57.09.22.17.45.32.66.46.06.04.15.07.29,0,.12-.06.19-.15.2-.25.01-.13,0-.26-.02-.37-.11-.47-.35-.87-.59-1.26l-.06-.1c-.05-.08-.05-.16-.02-.23.05-.11.17-.21.33-.26.04,0,.13.03.15.04.04.07.06.16.08.27.02.1.04.2.08.3.1.27.34.46.65.52.26.05.47-.08.52-.33.1-.46,0-.91-.3-1.26-.35-.43-.45-.94-.54-1.44l-.02-.1s.02-.04.02-.05c0-.02,0-.03,0-.03.37-.38.73-.81.9-1.4.03-.03.12-.07.22-.1.05-.01.16.06.2.17.03.09.05.18.08.27.05.16.1.33.16.5.07.16.18.21.25.23.13.03.26,0,.39-.12.22-.19.34-.43.35-.73v-.23c.03-.61.05-1.25.05-1.87,0-.54.14-1.04.43-1.56.58-1.04,1.22-2.06,1.85-3.05.19-.3.38-.61.57-.91.45-.73.99-1.4,1.51-2.06.29-.37.59-.74.88-1.13.23-.3.54-.55.87-.81.13-.11.27-.21.39-.32.04-.02.19,0,.25.08.06.07.11.15.13.2-.11.22-.17.46-.22.69-.09.37-.17.7-.45.92-.13.1-.22.3-.22.47,0,.38-.19.66-.47.97-.14.15-.19.35-.24.52-.01.05-.03.11-.05.16-.04.12.01.26.06.33l.08.11h.16c.12.02.29.03.41-.09.35-.37.6-.81.84-1.24.08-.13.15-.26.23-.39.48-.79.76-1.56.85-2.34.04-.29.1-.57.17-.86.12-.49.24-1,.21-1.55-.02-.38.2-.76.68-1.16.29-.25.61-.46.95-.68.11-.07.22-.15.33-.22.6-.4,1.23-.76,1.92-1.09.66-.31,1.26-.26,1.9.15.97.63,1.65,1.25,2.18,1.99,0,.07.01.15.02.23.02.24.04.49.04.74,0,.64,0,1.29,0,1.93,0,.54,0,1.08,0,1.61,0,.09,0,.17,0,.26,0,.31-.01.62.08.93.09.31.09.59,0,.97-.11.52-.11.93,0,1.24.24.66.24,1.32.23,2.03v.11c0,.62.14,1.1.44,1.51.17.22.24.5.23.92,0,.54.11,1.03.24,1.48l.03.1c.22.76.44,1.55.43,2.35,0,.36.1.72.18,1.01.12.43.25.86.37,1.29.15.5.29.99.43,1.49.06.22.07.47.07.73,0,.22-.15.4-.35.41-.23.01-.47.01-.78,0-.14,0-.24-.07-.31-.21-.08-.14-.15-.27-.2-.4-.2-.52-.41-.89-.74-1.01-.29-.1-.59.01-1.01.18-.08.03-.17.07-.26.1-.06.02-.28.12-.38.3-.14.27-.38.45-.63.65-.16.12-.32.25-.46.4-.32.34-.43.88-.46,1.17-.02.16-.04.33-.05.49-.05.53-.1,1.02-.26,1.52-.11.34-.09.7-.08,1.05,0,.15.01.31.01.46-.02.48-.22.9-.68,1.41-.02.03-.1.06-.2.06h0c-.14,0-.27-.05-.31-.11-.33-.38-.43-.8-.3-1.28.03-.09.06-.18.09-.27.06-.16.12-.33.14-.52.04-.24,0-.52-.08-.75-.06-.16-.22-.3-.47-.41-.26-.11-.5.25-.53.32-.1.22-.15.4-.15.56.02.54-.12.95-.45,1.3-.17.18-.23.46-.29.7-.06.29-.24.48-.58.65-.19.09-.36.08-.54-.02-.37-.21-.27-.4-.23-.47.35-.63.44-1.32.53-1.98v-.11c.03-.14-.05-.26-.1-.33-.06-.07-.15-.16-.27-.17-.18-.02-.44-.02-.61.12-.32.26-.32.66-.32.93,0,.44-.21.8-.44,1.18l-.1.18c-.07.12-.23.17-.36.18-.1.01-.21-.03-.28-.11-.03-.03-.08-.1-.06-.18,0-.04.01-.08.02-.12,0-.05.01-.11.03-.13.43-.83.32-1.7.18-2.51-.02-.14-.09-.25-.2-.31-.1-.06-.22-.07-.35-.03-.26.09-.39.2-.41.35-.05.4-.19.78-.35,1.18-.1.25-.19.51-.27.78-.02.08-.08.17-.13.26-.02.04-.04.07-.06.1-.05.05-.26.14-.33.13-.34-.07-.57-.29-.73-.68,0-.03.02-.13.08-.25.53-.97.34-1.94.12-2.67-.06-.2-.28-.23-.46-.26-.18-.03-.31.12-.38.23-.05.09-.12.21-.14.34-.04.25-.1.48-.17.74-.11.43-.23.87-.21,1.31-.02.05-.17.14-.24.14h0c-.09,0-.22-.11-.23-.16-.07-.87-.33-1.75-.78-2.69-.32-.66-.47-1.39-.45-2.22,0-.22,0-.45.01-.67.01-.72.02-1.47.08-2.2.03-.47.12-.84.45-1.14.41-.37.61-.78.63-1.28.01-.22.1-.46.18-.69.16-.43.18-.84.05-1.26l-.09-.3-.26.17c-.57.37-.99.69-1.08,1.3-.1.63-.33,1.2-.57,1.81l-.11.28c-.16.4-.37.96-.18,1.56.01.03,0,.1,0,.12-.27.45-.26.91-.25,1.36,0,.17,0,.32,0,.48-.02.25.01.48.05.71.04.29.08.56.01.83-.09.38-.08.78-.07,1.16,0,.11,0,.22,0,.33,0,.28.01.55.02.83,0,.26.02.52.02.78,0,.26,0,.53-.01.79,0,.22-.01.44-.01.66,0,.53-.1.92-.3,1.27-.24.42-.34.89-.4,1.3-.05.35-.17.69-.28,1.05-.07.21-.14.41-.19.62-.07.25-.12.53-.14.83-.03.31.13.69.47.78.18.04.35.12.53.2.31.14.63.28,1.04.28h.03c.23,0,.42.12.58.36.27.41.66.59,1.01.73.22.08.42.19.64.31.12.06.23.12.35.18.39.19.55.41.58.78.04.63.6.61.82.6.06,0,.12,0,.17-.02.09-.01.21-.03.23,0,.31.42.74.55,1.13.67.08.02.16.05.24.07.03.01.06.02.09.03.08.03.16.06.25.08.41.08.58.27.58.63,0,.54.25.95.53,1.31.16.22.51.36.72.23.13-.08.27-.24.22-.53-.02-.09-.02-.17,0-.23.02-.13.11-.25.23-.33.06-.03.17-.09.3-.05.19.06.37.15.56.25.09.05.18.1.28.14l.11.06.11-.06c.3-.18.25-.48.22-.63,0-.04-.02-.08-.02-.11,0-.19.05-.33.31-.43.05.03.1.05.15.08.2.11.41.22.62.31.28.12.58.03.72-.21.16-.26.11-.53-.13-.72-.03-.03-.07-.05-.11-.08-.08-.06-.16-.12-.2-.18-.07-.1-.06-.24.01-.34.02-.03.1-.07.15-.08.19.08.39.21.57.37.45.42.97.38,1.42.28.16-.03.28-.16.37-.28.07-.09.1-.21.07-.36-.02-.14-.09-.32-.22-.42l-.05-.04c-.08-.06-.18-.13-.3-.16-.41-.09-.54-.27-.48-.65.03-.17.06-.37.02-.56-.03-.16-.11-.32-.25-.51-.06-.08-.13-.15-.2-.21-.06-.06-.14-.13-.16-.18-.05-.21.02-.47.21-.68.27-.31.5-.68.7-1.16.26-.6.56-1.03.95-1.34.87-.7,1.34-1.66,1.79-2.59.11-.23.23-.46.35-.69.13-.25.16-.55.18-.82v-.05c.03-.27.04-.54.05-.81,0-.16.01-.33.02-.49.02-.29.17-.51.49-.69.32-.17.66-.17,1.02,0,.25.12.4.41.34.66l-.05.2c-.16.66-.32,1.32-.49,1.98v.04c-.06.18-.1.36-.19.49-.11.16-.21.32-.31.48-.42.65-.82,1.27-1.39,1.78-.52.47-1,1-1.47,1.51-.18.2-.36.4-.55.59-.05.06-.11.11-.16.16-.19.18-.38.38-.49.62-.12.26-.16.54-.21.81-.02.11-.04.21-.06.32l-.02.12.08.09c.43.5.91.76,1.42.76.5,0,.97.14,1.57.45.04.02.09.05.13.07.15.09.33.18.52.22.43.08.65.24.78.59.11.28.37.51.62.69l.15.11c.35.26.71.53,1.12.7.42.17.62.48.84.91.12.21.26.45.49.58.57.32.98.83,1.28,1.6.14.35.39.62.75.82.15.08.27.23.28.29.06.46.29.8.52,1.13.09.12.17.24.24.37.1.18.18.36.27.56.04.1.08.19.13.29.13.28.26.57.39.86.33.73.67,1.48,1.02,2.2l.04.09c.17.35.33.67.4,1.04.03.17.09.33.15.49.06.15.11.29.13.42.07.47.31.8.75,1.04.06.03.13.1.2.17.02.02.04.04.07.06v.31c.02.34.04.68.04,1.02,0,.34,0,.68,0,1v.47s.04.06.04.06c.6.88.97,1.56,1.22,2.26.19.53.51,1.07,1,1.71.07.09.15.19.23.28.19.23.37.44.48.71.06.16.2.3.34.36.64.28.92.87,1.22,1.5l.12.24c.25.52.57.97.88,1.38.18.25.38.48.58.71.43.5.83.98,1.07,1.57.03.06.06.11.09.15l.02.03c.11.15.25.24.38.32.15.1.24.16.28.27.03.09.05.18.07.26.05.23.11.49.32.71.23.24.32.55.31,1.03,0,.26-.01.61.2.79.29.26.41.61.54.99.12.33.24.66.47.96.54.69.68,1.44.42,2.2-.04.12-.02.24,0,.33,0,.03,0,.05.01.08v.1s.08.06.08.06c.41.36.91.5,1.39.64.13.04.27.08.4.12l.07.11c.1.14.2.3.3.46.18.29.43.47.76.57.14.04.22.1.24.13.33.63.81,1.19,1.52,1.76.16.13.27.27.3.38.13.46.35.85.56,1.21.14.23.23.5.33.78.04.12.08.24.13.36.18.47.18.53-.34.9l-.07.05c-.11.08-.23.16-.33.25-.22.18-.32.45-.28.73.04.27.22.5.48.6.21.08.42.15.65.22l.21.07c.13.43.24.92.36,1.54.02.12.02.25-.02.32-.22.45-.33.89-.32,1.34,0,.08-.04.2-.12.31-.57.86-.83,1.88-.82,3.2,0,.79-.34,1.45-1.05,2-.15.12-.31.13-.49.03-.11-.06-.29-.19-.25-.39,0-.04.03-.08.04-.13.02-.06.04-.11.06-.17.1-.38.05-.72-.14-.97-.18-.25-.48-.38-.86-.4-.24,0-.48.05-.69.1-.18.05-.32.21-.36.44-.04.22.02.42.17.52.1.07.21.13.32.19.16.09.31.17.39.28.09.13.14.32.18.52.02.1.05.21.08.3l.03.09.43.27c.25.16.5.31.75.47.32.21.46.65.32.99-.09.23-.21.45-.32.68-.06.11-.11.22-.17.33l-.05.1.16.35c.16.35.32.69.47,1.04,0,.02-.02.05-.01.05-.28.03-.39,0-.47-.13-.02-.04-.05-.08-.07-.13-.05-.1-.11-.22-.21-.31-.12-.13-.31-.12-.47-.11-.16,0-.3.17-.32.31l-.03.2c-.04.3-.09.61-.11.92,0,.15.02.3.04.44.01.08.03.15.03.23.01.19-.02.34-.1.4-.07.05-.19.04-.34-.03-.31-.14-.62-.28-.93-.42l-.6-.27-.1.22s-.02.05-.03.07c-.03.06-.06.12-.07.2-.01.3.06.57.13.83.07.25.13.49.11.74-.04.42-.03.85-.02,1.26,0,.12,0,.25,0,.37,0,.2.02.39.03.59l.02.22c0,.14.07.26.16.33.09.07.21.1.33.07.05,0,.31-.07.42-.27l.15-.28c.2-.38.41-.78.56-1.2.1-.29.25-.47.47-.67.16-.15.28-.31.41-.47.11-.14.21-.27.31-.37.01,0,.05-.02.2-.02-.02.06-.05.13-.07.19-.23.63-.45,1.23-1,1.62l-.04.03-.03.04c-.09.14-.19.28-.29.41-.28.39-.57.79-.67,1.34-.06.32-.37.41-.62.43-.62.04-.93-.16-1.11-.71-.05-.14-.08-.29-.09-.43-.02-.16-.03-.31-.04-.47-.03-.43-.06-.88-.26-1.33-.09-.2-.13-.42-.17-.66-.05-.29-.1-.59-.25-.89-.09-.18-.1-.43-.11-.67,0-.06,0-.12-.01-.18-.04-.5-.22-.92-.58-1.29l-.27-.29-.14.43c-.2.62-.24.73-.08,1.24l.04.13c.09.27.14.44.05.63-.02.04-.07.18-.03.32.25.82.23,1.65.2,2.52-.01.36-.02.73-.01,1.09,0,.36.16.66.45.87.09.07.19.14.29.2.12.08.24.17.36.26.1.09.16.21.15.33,0,.1-.06.19-.14.25-.26.17-.53.34-.81.5-.25.15-.5.33-.65.66-.17.36-.43.63-.77.8-.64.31-1,.85-1.21,1.23-.02.03-.1.08-.16.11,0,0,0,0,0,0-.46-.29-.81-.7-1.17-1.36-.03-.05-.08-.11-.18-.14-.04-.01-.17-.04-.28.02l-.03.02c-.12.06-.28.15-.32.32-.04.17-.07.41.02.61.2.47.21.97.2,1.48,0,.5-.02,1.02-.22,1.49-.05.12-.13.26-.24.26-.9.02-1.5.42-1.82,1.24-.12.29-.37.52-.65.58-.7.15-1.2.57-1.57,1.33-.01.02-.09.07-.24.11-.25.06-.51.02-.59-.03-.01-.01-.04-.06-.05-.13-.01-.06-.04-.23-.19-.31-.1-.06-.21-.06-.34-.02-.34.11-.57.27-.7.49,0-.04-.01-.08-.02-.12-.02-.09-.07-.14-.11-.19-.01-.01-.03-.03-.04-.05l-.14-.18-.18.12s-.06.04-.1.06c-.1.06-.21.12-.3.23-.11.13-.11.31-.11.45,0,.19.21.3.33.32.22.03.42-.03.54-.17,0,0,0,0,.01-.01,0,.08,0,.16.03.24,0,.05.02.1.03.15.04.19.08.36.03.53-.08.32-.3.54-.53.56-.25.01-.5,0-.78,0-.14,0-.25-.07-.33-.2-.08-.13-.17-.27-.26-.4-.23-.35-.46-.72-.66-1.09-.13-.24-.21-.54-.23-.82-.04-.56-.06-1.2.18-1.8.18-.46.08-.92-.3-1.29-.29-.29-.49-.69-.58-1.15-.15-.79-.68-1.26-1.15-1.68-.14-.12-.37-.1-.4-.1-.11.01-.19.06-.24.13-.25.37-.49.75-.71,1.13l-.06.09c-.07.12-.07.28,0,.44.07.17.2.28.34.31l.1.02c.13.03.26.06.39.07.08,0,.16.01.23.01.25,0,.4.02.51.15.26.32.41.67.43,1.03.02.26,0,.51-.06.72-.09.35-.1.68-.05,1.05.14.91.03,1.68-.33,2.36-.23.45-.15.91-.07,1.31l.02.1c.04.22-.17.49-.44.55-.37.09-.7.1-1,.02-.14-.04-.24-.13-.27-.25-.04-.2-.07-.4-.1-.62-.03-.21-.06-.43-.11-.64-.04-.17-.15-.34-.35-.5-.14-.12-.45-.15-.6-.01-.1.09-.16.2-.22.29-.03.05-.05.09-.09.13-.06.09-.14.13-.18.14-.04,0-.11-.04-.19-.18-.11-.17-.21-.33-.27-.49-.03-.09-.05-.19-.06-.29-.02-.11-.04-.22-.07-.32-.07-.23-.2-.55-.56-.76-.45-.26-.88-.56-1.3-.85,0-.01-.03-.05-.04-.08l.19-.39-.46.14-.19-.04c-.27-.05-.53-.1-.8-.14-.15-.02-.29.07-.36.18-.06.1-.07.21-.03.31.03.08.09.18.26.25.28.12.54.09.78.03-.05.31-.02.63.11.97.04.12.1.23.15.34.06.13.12.25.16.38.29.99.23,1.85-.18,2.63-.06.11-.15.19-.26.22-.11.03-.25.01-.37-.06-.14-.08-.22-.19-.23-.33-.06-.48-.12-1.02-.51-1.47-.1-.11-.27-.12-.38-.1-.11.02-.24.11-.29.25v.04c-.05.11-.1.25-.06.4.06.21.12.42.18.63.09.3.18.6.25.9,0,.04-.04.14-.07.16-.04.02-.16.04-.21.01l-.04-.02c-.4-.18-.79-.35-.98-.73-.03-.06-.07-.12-.11-.17-.08-.1-.15-.2-.23-.3-.18-.24-.37-.5-.59-.72-.13-.13-.16-.3-.19-.51-.04-.21-.08-.45-.24-.65-.12-.15-.38-.19-.54-.13-.3.12-.41.37-.51.57-.02.05-.05.11-.08.16-.15.27-.37.26-.53.2-.2-.07-.39-.15-.59-.23-.02,0-.05-.03-.07-.04-.09-.06-.21-.13-.35-.1-.47.1-.87-.09-1.34-.34-.15-.08-.3,0-.41.06-.03.02-.06.03-.09.05l-.15.06v.16c0,.06,0,.13,0,.19,0,.15,0,.3,0,.46.08,1.01-.08,2-.49,3.04-.18.45-.29.91-.4,1.4-.04.18-.08.36-.13.54-.15.06-.33.07-.51.08-.29.02-.61.03-.9.23-.02-.03-.04-.09-.05-.15-.04-.17-.1-.46-.47-.55-.19-.05-.4-.15-.66-.31-.36-.22-.48-.56-.35-.99l.03-.09c.13-.41.26-.84.07-1.31-.06-.16-.22-.22-.36-.29-.14-.06-.27,0-.34.03-.06.03-.17.08-.23.18-.33.54-.66.96-1.04,1.33-.35.33-.58.76-.81,1.18-.06.12-.13.23-.19.34-.09.16-.16.32-.22.48-.06.14-.11.27-.17.4-.06.11-.15.22-.23.34-.11.15-.23.3-.31.47-.22.45-.57.8-.96,1.16-.28.26-.64.25-.99-.05-.18-.15-.27-.41-.2-.6.27-.81.78-1.54,1.23-2.17.32-.46.54-.96.68-1.54.04-.16.02-.31,0-.45v-.1c-.03-.15-.18-.29-.33-.3-.12,0-.25.05-.33.13l-.09.09c-.12.13-.25.27-.35.43-.14.24-.25.49-.35.76-.16.4-.45.61-.91.65-.11.01-.23.03-.34.05-.42.08-.64.38-.76.61-.05.08-.08.17-.1.24-.02.07-.05.14-.08.18-.1.16-.35.2-.52.09-.11-.07-.22-.16-.33-.25-.06-.04-.11-.09-.17-.13l-.15-.12ZM126.32,128.18s-.06-.09-.1-.13c-.21-.28-.21-.6.01-.93.27-.4.59-.78.91-1.14l.16-.19s.06-.01.11-.01c.03,0,.08.01.13.03.05.02.1.03.15.04.08.02.16.02.24.03l.28.03.44-.89.19.38-.2.8c-.13.14-.3.27-.48.41-.4.31-.85.65-1,1.29l-.02.1.22.34c.14.21.29.44.43.66.03.05,0,.24-.06.29-.02.02-.05.05-.07.07-.05.04-.09.09-.12.1-.51.28-.85.65-1.07,1.15-.13.3-.36.51-.66.61-.03,0-.06.01-.09.01-.07-.08-.11-.15-.11-.17.06-.41.29-.75.63-1.13.47-.55.5-1.18.08-1.76ZM125.83,125.3s-.02.08-.02.08c-.49.42-1.03.86-1.67,1.38-.03.01-.12-.04-.13-.1-.11-.35,0-.45.05-.49.35-.31.81-.71,1.32-1.06.02-.01.07-.02.13-.02s.15,0,.23.03c.02.02.06.08.08.12,0,0,0,.02.01.03,0,.01,0,.02,0,.03ZM179.11,129.43c.06-.18.22-.3.41-.45.02-.01.05,0,.06,0,.02,0,.04.03.05.05,0,.03,0,.06,0,.09v.04c0,.09-.01.24-.1.29-.08.05-.22.05-.42-.02ZM131.46,74.07s.07-.05.11-.08c.13.06.12.15.12.18,0,.02-.04.07-.04.08-.09,0-.15-.06-.18-.11-.02-.04-.01-.07,0-.08ZM185.12,66.17c0-.09,0-.2,0-.32.01-.43.09-.7.22-.8.12-.09.36-.09.77.02.05.01.1.02.15.03.05.01.1.02.15.03.08.02.2.14.25.28.03.07.02.11.01.13-.26.4-.3.82-.33,1.23-.01.13-.02.27-.04.4-.08.53-.39.91-.98,1.19h0c-.2-.47-.38-.97-.26-1.51.03-.12.04-.24.04-.36,0-.06,0-.12.02-.19h0s0-.13,0-.13ZM182.93,192.89l-3.88-13.98-3.08,8.52-1.43.23-6.05-6.89.81,14.15-5.03.22-.49-21.88,4.38-.17,6.15,7.55,2.83-9.17,3.87-.83,7.03,20.85-5.1,1.4ZM206.17,183.43l-5.69-5.46-5.84,2.68,1.63,8.06-4.71,1.44-4.18-22.38,5.32-2.18,18.5,14.77-5.04,3.07ZM226.55,168.1l-17.78-2.71-.13.32,11.64,8.55-4.46,3.2-17.8-14.47,4.47-2.75,13.44,1.69.12-.32-8.14-5.51,3.23-3.22,17.97,12.42-2.56,2.82ZM227.5,156.83c.71-.24,3.21-1.19,4.19-2.86.63-1.08.73-2.32.25-3.17-.28-.48-.86-1.05-2.07-1.05-.26,0-.55.03-.86.09-1.19.22-2.12.84-3.09,1.49-1.47.98-3.13,2.09-6.12,2.09-.23,0-.47,0-.72-.02-.16,0-1.32-.03-2.48-1.02-.15-.12-3.59-3.01-.24-7.28.02-.02,2.22-2.51,4.45-3.11l2.68,2.37c-.85.46-3.78,2.11-4.24,3.29-.18.47-.15.92.09,1.28.27.39.74.61,1.31.61.43,0,.89-.13,1.33-.38.11-.06.31-.21.58-.43,1.38-1.07,4.63-3.58,8.28-3.58,1.38,0,2.7.37,3.9,1.1.22.15,5.42,3.82,1.34,9.85-.02.03-3.2,4.02-6.7,5.05l-1.87-4.33Z" class="cls-1"></path>
      <polygon points="193.63 176.78 197.69 174.89 191.86 169.89 193.63 176.78" class="cls-1"></polygon>
      <path d="M163.92,159.01l.31-.12-.27-.35-.18.11-.04-.09s-.1.03-.15.07c-.07.06-.1.13-.12.18l-.82,1.76,1.22-1.51s.03-.04.05-.06Z" class="cls-1"></path>
      <path d="M173.57,148.74h0c.27,0,.35-.39.36-.47.08-.47-.07-.89-.44-1.21-.1-.09-.24-.1-.33-.11-.02,0-.05,0-.07,0l-.12-.02-.09.09s-.04.03-.06.05c-.07.06-.17.14-.21.27-.14.5,0,.94.39,1.25.17.13.4.16.56.17Z" class="cls-1"></path>
      <path d="M141.01,154.21c-.19-1.04-.32-1.12-1.3-1.21-.11,0-.21-.02-.32-.03h-.16c-.18-.02-.35.05-.44.2-.11.16-.12.37-.03.56.41.9,1.04,1.65,1.88,2.23.06.04.13.06.2.06.1,0,.21-.04.29-.06.15-.05.19-.2.22-.29.13-.41-.03-.74-.17-1.04-.07-.15-.14-.29-.16-.43Z" class="cls-1"></path>
      <path d="M168.68,148.14c.05.18.1.36.14.54.02.08.07.14.11.18.14.29.3.45.48.48.02,0,.05,0,.07,0,.1,0,.19-.04.27-.11l.03-.03c.13-.12.29-.26.32-.47.06-.38.09-.76.11-.99v-.17c.04-1.69-.01-1.97-.59-3.3-.06-.14-.25-.23-.4-.19-.11.03-.33.16-.29.37.07.35.04.52-.12.66-.41.37-.58.9-.47,1.53.08.5.21,1,.34,1.48Z" class="cls-1"></path>
      <path d="M171.33,146.96c.06.13.17.15.26.15.03,0,.05,0,.07,0,.02,0,.04,0,.06,0h.24v-.59c0-.56,0-1.12,0-1.68,0-.12-.08-.19-.12-.24-.01-.01-.03-.03-.05-.05l-.19-.22-.18.24s-.05.07-.08.1c-.07.08-.13.17-.18.26-.1.16-.19.33-.27.48l-.14.26.16.34c.15.34.29.65.44.95Z" class="cls-1"></path>
      <path d="M172.87,144.27c0,.15.02.3.03.44.02.23.05.45.12.66.06.19.3.29.48.29h.02c.17-.01.42-.19.43-.4,0-.17,0-.33-.02-.5-.01-.25-.03-.49,0-.72v-.07c.06-.4.11-.81.02-1.23,0-.06.01-.13.02-.19.02-.2.05-.4.03-.6-.03-.29-.16-.56-.26-.81-.08-.17-.29-.28-.45-.29-.09,0-.17.03-.26.1-.04.03-.16.15-.17.31,0,.14,0,.29,0,.43,0,.23.02.44-.03.62-.12.44-.13.79-.03,1.19.06.24.07.51.09.78Z" class="cls-1"></path>
      <path d="M175.55,147.27s.04.04.06.06l.12.13.16-.07c.48-.21.71-.65.54-1.06-.22-.54-.21-1.1-.21-1.64,0-.18,0-.35,0-.53-.02-.67-.04-1.3.28-1.88l.03-.05v-.37c.01-.32.02-.65.02-.97,0-.08-.03-.15-.06-.22-.08-.26-.3-.39-.54-.32-.14.04-.33.11-.4.28-.42.96-.58,1.98-.74,2.97l-.03.18c-.18,1.11.18,2.16.59,3.23.04.12.13.19.2.26Z" class="cls-1"></path>
      <path d="M166.57,152.61c0,.21.09.4.26.56.09.09.2.17.31.22.12.06.25.09.38.09.09,0,.18-.02.27-.05.17-.06.31-.18.37-.32.1-.21.17-.44.25-.65.03-.08.06-.17.09-.25.03-.08.08-.13.23-.18l.91.49-.62-.83c.04-.14.14-.25.28-.4.09-.1.19-.2.26-.32.18-.29.17-.59-.04-.86-.07-.09-.15-.17-.24-.25-.04-.03-.08-.07-.12-.11l-.27-.27-.12.36c-.04.13-.08.25-.12.36-.09.26-.18.51-.25.77-.04.16-.05.33-.01.49-.2,0-.39.07-.55.12-.06.02-.11.04-.17.05-.06.02-.11.03-.17.04-.21.04-.45.09-.65.31-.17.18-.27.4-.26.62Z" class="cls-1"></path>
      <path d="M139.05,151.16s0,.14,0,.23c.02.33.19.65.47.9.3.27.67.41,1.04.41.03,0,.05,0,.08,0,.2-.01.37-.18.45-.27.06-.07.26-.32.23-.57-.02-.16-.08-.3-.13-.43-.07-.17-.12-.28-.08-.4.07-.26.13-.53.19-.8l.03-.13c.01-.06.01-.11.01-.16v-.04c.02-.27-.11-.55-.34-.77-.25-.24-.57-.36-.86-.33-.16.02-.51.13-.59.38-.05.16-.12.32-.19.48-.18.42-.38.9-.31,1.5h0Z" class="cls-1"></path>
      <path d="M136.6,150.5c-.29-.06-.59-.1-.92-.15l-.53-.08-.08.08c-.09.09-.18.17-.27.25-.19.17-.35.32-.5.49-.23.26-.37.59-.42,1-.04.32.21.66.53.72.18.03.37.06.55.06.46,0,.9-.16,1.2-.73.11-.21.26-.41.41-.61.1-.13.2-.26.29-.4.08-.12.09-.26.04-.39-.05-.12-.16-.21-.3-.24Z" class="cls-1"></path>
      <path d="M123.49,148.95c-.16.05-.19.21-.21.31-.04.2.03.32.1.38.06.05.13.08.21.08.03,0,.06,0,.1-.01.16-.04.19-.2.21-.29v-.02c.04-.21-.03-.33-.1-.38-.08-.07-.19-.09-.3-.06ZM123.5,149.38s0,0,0,0c-.03-.02-.04-.04-.05-.06h0s.06,0,.06,0c0,.02,0,.04,0,.06ZM123.51,149.31h0s-.05,0-.05,0c.01-.01.03-.02.05-.03,0,.01,0,.02,0,.04ZM123.7,149.37s-.03.02-.06.03c0-.02,0-.03,0-.04,0-.03,0-.06,0-.08,0,0,.01,0,.02,0,.03.02.04.04.05.06,0,0-.02.02-.03.03Z" class="cls-1"></path>
      <path d="M125.91,148.6c-.13.03-.28.07-.37.19-.33.43-.2.75.12,1.13.08.09.19.1.26.11h0s.13,0,.13,0l.09-.08s.11-.08.15-.16c.16-.32.16-.66-.02-.98-.09-.17-.22-.25-.36-.23Z" class="cls-1"></path>
      <path d="M166.29,147.49c.07.21.13.41.16.61.04.27.05.55.06.84,0,.13,0,.26.02.38v.2s.68.08.68.08l.05-.8c.03-.45.06-.91.08-1.36,0-.21,0-.42-.03-.62l-.02-.2c-.01-.16-.1-.32-.24-.41-.12-.08-.26-.1-.38-.06-.11.03-.42.14-.48.5,0,.02,0,.05-.01.07-.02.09-.04.21-.01.33.04.15.08.29.13.44Z" class="cls-1"></path>
      <path d="M163.37,65.56c-.09-.08-.22-.2-.39-.14-.35.12-.69.27-1.01.42-.14.07-.18.2-.22.3,0,.02-.02.05-.03.07l-.11.23.23.1s.07.04.11.06c.1.06.22.12.34.12.04,0,.09,0,.13-.03.29-.12.55-.28.81-.44l.16-.09c.14-.08.13-.23.13-.33v-.14s-.1-.08-.1-.08c-.02-.01-.04-.03-.06-.05Z" class="cls-1"></path>
      <path d="M127.86,100.81h.01c.14,0,.25-.08.35-.13.03-.02.06-.04.09-.05l.22-.11-.11-.22s-.03-.07-.05-.11c-.04-.09-.08-.2-.19-.27-.12-.08-.27-.1-.41-.05-.14.04-.25.14-.3.27-.06.15-.03.34.07.48.08.11.2.18.33.18Z" class="cls-1"></path>
      <path d="M142.54,113.07l-.06.1-.27-.05.12.28s-.06.09-.08.14c-.09.2-.03.33.02.39.04.05.12.12.26.12.04,0,.08,0,.12-.01.1-.02.2-.11.25-.18l.06-.1h0s.89.14.89.14l-1.3-.82Z" class="cls-1"></path>
      <path d="M140.84,113.85s-.14.11-.15.24c-.02.24.1.34.16.38.05.03.1.04.15.04.06,0,.13-.02.19-.06.11-.07.13-.18.15-.26l.04-.12-.36-.43-.19.2ZM140.95,114.06h0s0,0,0,0c0,0,.02,0,.03-.01l-.02.02ZM141.17,114.12h0s-.08-.06-.08-.06c.05.03.08.06.08.06Z" class="cls-1"></path>
      <path d="M195.08,126.34c.1-.1.26-.24.23-.44-.04-.24-.1-.48-.16-.7l-.05-.2v-.04c0-.05,0-.1,0-.11,0-.01.06-.03.06-.03h0c.25.04.44.19.57.43.47.88.92,1.84,1.02,2.9.03.3.14.55.26.79.03.06.06.12.09.19.07.16.22.35.54.35.03,0,.05,0,.08,0,.37-.03.44-.37.48-.54.04-.16.07-.39,0-.6-.14-.37-.3-.73-.45-1.08l-.15-.35c0-.57-.21-1.05-.43-1.52-.16-.35-.32-.69-.37-1.05v-.05s-.04-.05-.04-.05c-.41-.61-.7-1.31-.93-2.28-.11-.46-.46-.74-.77-.99-.2-.16-.58-.13-.76.06-.38.4-.47.94-.22,1.31.13.2.28.39.42.57.08.11.17.22.25.33.09.13.1.35,0,.47-.07.09-.14.18-.21.26-.17.2-.35.41-.46.7-.23.6.03,1.32.59,1.67.1.06.31.1.44-.02Z" class="cls-1"></path>
      <path d="M127.78,89.83c-.03.07-.05.21.08.37.06.07.17.12.28.12.06,0,.13-.02.18-.06.16-.12.17-.26.16-.33,0-.05-.03-.12-.1-.18l.04-.18-.34.05s-.04,0-.06.01l-.3-.03.06.23h0Z" class="cls-1"></path>
      <path d="M127.98,99.29h.02c.24,0,.45-.16.54-.41.04-.12.03-.26-.04-.38-.08-.14-.22-.23-.39-.26-.04,0-.07-.01-.11-.02h-.08s-.03,0-.03,0c-.03,0-.05,0-.08,0-.09,0-.19,0-.29.05-.14.06-.31.21-.33.38-.02.18.09.4.25.48.17.09.36.14.53.15Z" class="cls-1"></path>
      <path d="M148.98,111.68c.14-.06.28-.13.42-.2.21-.1.4-.12.61-.06.16.04.32.05.47.07.06,0,.13,0,.19.02l.22.02.04-.22c.1-.55.09-1.03,0-1.53l-.04-.18h-.18c-.46-.04-.8.19-1.05.36-.11.08-.22.16-.33.24-.31.24-.61.46-.95.51-.42.06-.72.31-.97.52-.18.15-.36.3-.56.37-.11.04-.23.08-.34.12-.14.05-.27.1-.41.14-.13.04-.27.08-.4.12-.12.04-.24.07-.36.11-.19.06-.34.28-.37.45-.03.13.01.25.11.33.1.08.24.15.39.15.03,0,.05,0,.08,0,.1-.02.19-.07.26-.11.04-.02.13-.06.13-.06.82,0,1.49-.36,2.05-.69.32-.18.66-.34,1-.49Z" class="cls-1"></path>
      <path d="M159.18,65.78c-.02-.09-.04-.21-.14-.29-.11-.1-.25-.13-.38-.08-.13.05-.21.17-.23.32-.01.11.02.21.05.28,0,.02.02.04.02.07l.07.28.68-.33-.06-.2s0-.04-.01-.06Z" class="cls-1"></path>
      <path d="M160.3,137.61c-.07-.05-.32-.21-.6.08-.3.31-.39.7-.24,1.11.03.08.09.14.12.17l.13.1.12-.02c.05,0,.13,0,.21-.05.53-.31.58-.73.53-1.02-.03-.16-.16-.28-.28-.37Z" class="cls-1"></path>
      <path d="M152.19,112.47c-.09-.27-.19-.58-.5-.78l-.06-.04h-.07c-.48,0-.84.23-1.19.44-.12.07-.24.15-.37.21l-.06.03-.04.06c-.28.49-.81.64-1.32.79-.64.19-1.19.53-1.69,1.06l-.04.05c-.14.27-.09.52-.05.73.01.07.03.13.03.2.03.35-.07.58-.33.74-.41.26-.45.7-.48,1.02-.03.29.17.53.49.59.06.01.15.03.24.03.15,0,.31-.04.43-.22.06-.1.11-.19.15-.29.04-.1.09-.19.14-.26.13-.17.26-.33.4-.49.31-.37.62-.76.86-1.2.02-.03.13-.08.21-.08.3,0,.59,0,.91.02.12,0,.24.01.37.02h.07s.06-.03.06-.03c.07-.04.14-.08.21-.13.14-.09.29-.18.44-.24.74-.29,1.01-.94,1.24-1.51l.04-.09c.07-.16.04-.36,0-.49-.02-.05-.04-.1-.05-.16Z" class="cls-1"></path>
      <path d="M159.07,102.12c0-.14-.07-.3-.16-.43-.25-.33-.41-.71-.57-1.11-.12-.29-.24-.59-.4-.86l-.04-.08-.08-.03c-.11-.04-.21-.07-.32-.1-.2-.06-.39-.11-.52-.21-.57-.43-.95-.15-1.25.14-.05.05-.2.14-.6.17-.23.02-.5-.04-.71-.1-.33-.09-.83-.17-1.27.22-.33.29-.68.34-1.11.18-1.01-.39-1.94-.36-2.84.07-.11.05-.26.06-.42.08h-.13c-.13.02-.25.03-.38.03-.14,0-.28.01-.43.03-.29.03-.53.16-.71.37q-.58.7-1.44,1.02l-.06.02c-.21.08-.4.18-.59.28-.1.05-.2.1-.3.15-.1.05-.19.09-.29.14-.24.12-.47.23-.71.31-.54.18-1.06.38-1.5.77-.1.08-.28.15-.42.14-.79-.04-1.52.22-2.23.8-.19.16-.37.18-.66.06-.06-.02-.28-.1-.48-.02-.28.1-.56.2-.84.29-.68.22-1.39.45-2.03.87-.29.2-.6.29-.92.26-.81-.06-1.51.09-2.14.47-.25.15-.54.19-.84.22l-.15.02c-.59.08-.91.45-.86,1.01.03.41-.14.66-.42.93-.11.1-.24.2-.35.28-.81.56-1.69,1.27-1.95,2.46-.01.06-.05.13-.09.16-.61.61-.96,1.34-1.22,1.98-.05.12-.16.24-.27.36l-.07.08c-.2.23-.47.52-.76.81-.37.36-.75.82-.8,1.54-.02.33-.21.57-.6.78l-.06.03c-.43.23-.84.46-1.32.49-.4.02-.58.4-.65.54l-.04.08.03.09c.1.34.35.51.57.67.06.04.12.08.17.12.08.06.2.19.19.36,0,.17-.01.33-.01.5,0,.57-.02,1.11-.29,1.6-.15.28-.26.61-.33.98-.05.25-.04.51-.04.75,0,.08,0,.16,0,.24,0,.14.1.34.32.37.05,0,.1.01.16.01.1,0,.21-.02.3-.1.2-.17.43-.37.59-.62.19-.29.38-.58.58-.87.46-.68.93-1.38,1.3-2.14.09-.19.23-.28.43-.3.81-.04,1.13-.44,1.26-.77.14-.34.31-.46.78-.5.28-.03.54-.19.77-.33.06-.04.12-.08.18-.11.18-.1.29-.29.31-.5.02-.22-.07-.43-.22-.56q-.64-.54-.36-1.19c.09-.2.18-.38.27-.55.1-.17.38-.28.55-.21.13.05.26.11.4.18.1.05.2.1.31.15.28.12.67.03.87-.21.07-.09.13-.17.2-.26.09-.13.18-.24.27-.35.12-.12.3-.11.39-.02.15.13.2.3.14.42-.34.6-.67.88-1.15.95-.2.03-.35.17-.41.23-.06.07-.21.24-.2.45,0,.18.14.35.27.43.31.21.68.23,1.01.04.39-.21.81-.31,1.25-.42h.04c.6-.15,1.19-.2,1.82-.25.18-.01.35-.03.53-.05.44-.04.82-.43.83-.86,0-.26,0-.52,0-.79v-.57s-.17-.05-.17-.05c-.05-.01-.1-.03-.16-.04-.12-.03-.25-.07-.37-.11-.36-.14-.58-.39-.66-.75,0-.02,0-.08.03-.11.15-.24.38-.32.75-.26.26.04.45.19.55.42.04.09.05.2.06.33,0,.09.02.17.03.26.06.31.22.46.35.53.13.07.36.14.69,0,.22-.09.43-.18.62-.31.5-.34.64-.83.39-1.4-.1-.23-.19-.44-.17-.65.03-.32.05-.64.1-.95.04-.3.34-.52.68-.51.46.02.87.23,1.3.44l.08.04s.03.05.03.06v.07c0,.15-.01.34-.07.41-.13.18-.3.35-.47.52-.09.09-.18.18-.27.27-.08.08-.11.22-.11.31v.12s.13.09.13.09c.11.08.25.2.42.16.72-.15,1.3-.52,1.93-.95.3-.21.43-.54.32-.84-.23-.61-.12-1.13.38-1.68.13-.15.22-.32.31-.49.06-.13.12-.25.2-.34.03-.03.13-.06.17-.05.21.06.41.14.62.22.14.05.28.11.42.16q.81.28.98,1.28l.03.16.16.03c.39.09.76-.02,1.07-.32.2-.18.3-.4.27-.61-.02-.17-.12-.33-.29-.43-.55-.34-.94-.86-1.2-1.65-.07-.21-.07-.42,0-.63.05-.12.16-.23.29-.27.06-.02.17-.04.27.03.49.33.97.66,1.46.99.04.03.08.07.12.11.03.03.06.06.09.09.25.23.28.42.13.73l-.05.1c-.09.17-.19.37-.17.62,0,.09.06.22.16.3.1.08.28.11.44.02.35-.22.71-.44,1.06-.68.11-.08.15-.2.19-.3.01-.04.02-.07.04-.11l.06-.14-.11-.11s-.08-.08-.11-.13c-.1-.11-.21-.24-.35-.34-.29-.21-.49-.49-.7-.8-.09-.13-.18-.26-.28-.39-.05-.07-.07-.18-.05-.31.03-.19.15-.38.29-.47.28-.18.56-.2.84-.06.09.04.18.11.27.18.13.1.26.2.42.26.22.09.47.06.69.03h.04c.12-.02.21-.11.27-.26.07-.15.06-.27,0-.37-.23-.3-.47-.59-.7-.87l-.08-.1s.02-.02.03-.02c.1-.07.23-.15.35-.19.02,0,.08,0,.09.01.05.03.09.08.14.13.06.06.12.13.2.19.1.07.2.12.3.16.05.02.1.05.15.07.16.09.27.21.3.35.03.12,0,.25-.07.37-.03.05-.08.1-.14.15-.06.06-.12.11-.17.18-.28.36-.19.86.2,1.17.28.22.64.26.87.11.08-.05.17-.11.26-.16.24-.15.48-.3.7-.48.29-.24.56-.52.82-.78l.23-.23c.09-.09.12-.22.1-.38-.03-.15-.11-.34-.28-.42-.32-.15-.65-.17-.96-.18-.08,0-.15,0-.23-.01-.22-.02-.35-.13-.5-.44-.15-.3-.1-.47.18-.65.13-.08.28-.13.45-.2.09-.03.18-.06.28-.1l.11-.04.11-.43c.06-.24.12-.49.2-.73.07-.22.23-.39.52-.54.05-.03.22.01.24.06.1.18.19.35.23.52.09.4.02.82-.06,1.17-.07.31-.03.58.14.84l.09.13.16-.03c.06-.01.12-.02.18-.04.13-.03.26-.06.39-.07.21-.02.39.04.5.17.09.11.12.25.08.4-.02.08-.05.17-.08.25-.06.18-.13.37-.14.57-.02.51-.24.93-.72,1.34-.18.15-.36.3-.55.45-.15.12-.29.24-.44.36l-.1.09c-.3.25-.59.5-.88.76-.61.55-1.15,1.26-.5,2.25.05.07.06.2.06.33-.04,0-.09-.01-.13-.02-.22-.02-.33.11-.36.17-.03.06-.09.2.04.39.07.1.23.2.39.14.1-.04.19-.08.28-.13l.31.07-.03-.27.13-.12c.39-.38.71-.52,1.1-.49.6.05,1.15-.04,1.68-.29.14-.06.31-.08.49-.1.13-.01.27-.03.4-.06.21-.05.34-.25.4-.37.04-.09.18-.38.06-.65-.04-.1-.09-.22-.17-.32-.26-.31-.27-.64-.02-1.07.08-.14.17-.29.25-.44.25-.45.51-.91.84-1.29.91-1.05.84-2.24.77-3.39,0-.15-.02-.29-.02-.44ZM125.34,118.48c-.01.07-.07.15-.16.19-.08.04-.16.05-.22.02-.1-.05-.2-.13-.32-.22,0-.01,0-.06,0-.06.14-.11.29-.22.44-.26h0s.07.01.12.06c.1.08.15.2.14.26h0ZM127.4,117.51c-.21-.03-.44-.19-.61-.41-.17-.23-.25-.5-.22-.7.01-.02.07-.07.1-.1,0,0,0,0,.01-.01.03,0,.06,0,.08,0,.04,0,.09,0,.11,0,.32.15.65.3.94.48.03.03.06.13.06.17-.07.29-.29.47-.47.58ZM139.97,108.75c-.06.03-.14.05-.22.07-.02,0-.04,0-.06.01-.02,0-.06,0-.06,0h-.04s-.05-.04-.06-.03c0-.02,0-.07.03-.1.07-.1.19-.14.38-.17.03-.01.05.07.05.07.01.05.02.12-.02.14ZM157.46,104.28c-.01.08-.13.19-.18.2-.07,0-.21-.12-.23-.17-.03-.38-.05-.79-.07-1.27,0-.08.04-.18.05-.22.02-.06.06-.12.1-.19v-.03s.12-.04.16-.04h.02s.06.05.08.07c.05.26.09.51.12.74l.03.19-.08.71Z" class="cls-1"></path>
      <path d="M160.83,95.9c-.03-.2-.13-.36-.28-.47-.16-.11-.36-.14-.58-.1-.15.03-.41.22-.38.45.05.33.12.65.21.95.04.13.16.24.37.32.05.02.11.03.17.03.06,0,.12-.01.17-.04.11-.05.19-.15.23-.27.03-.11.06-.22.09-.31l.04-.15-.02-.18c0-.09-.02-.16-.03-.23Z" class="cls-1"></path>
      <path d="M128.04,102.19l-.24.06.07.24c.11.34.34.56.56.72.1.07.19.11.28.11.03,0,.06,0,.08-.01.06-.01.17-.06.24-.21.03-.06.07-.16.06-.28-.04-.28-.15-.46-.32-.58-.18-.12-.42-.14-.74-.06Z" class="cls-1"></path>
      <path d="M133.91,98.51s.07,0,.11-.02c.13-.04.22-.16.25-.32v-.06s-.14-.6-.14-.6l-.25.11s-.04.02-.07.02c-.1.03-.26.08-.31.24-.06.18.04.41.17.52.08.06.16.1.25.1Z" class="cls-1"></path>
      <path d="M134.31,65.05c.12.11.29.11.41.11h.02c.06,0,.15-.02.23-.12.04-.05.11-.15.09-.27-.06-.33-.12-.66-.18-.99l-.05-.27.23-.4-.94.15.14.25c-.14.22-.28.46-.28.79,0,.32.11.57.31.75ZM134.5,63.26c.1-.03.19.02.22.06l-.11.06h-.05s-.15-.08-.15-.08c.02-.02.05-.04.09-.05Z" class="cls-1"></path>
      <path d="M135.35,100.73l-.3-.25-.11.45c-.02.07-.04.15-.04.23,0,.15.12.23.19.28l.22.18.14-.26s.02-.03.03-.05c.04-.06.1-.15.1-.27,0-.16-.12-.25-.19-.3-.01,0-.03-.02-.04-.03Z" class="cls-1"></path>
      <path d="M134.57,66.26c-.09.25-.02.51.19.67.06.04.13.06.21.06.04,0,.09,0,.14-.02.14-.04.31-.16.38-.33.04-.12.04-.24-.02-.35-.06-.13-.19-.23-.36-.28-.24-.08-.45.02-.54.26Z" class="cls-1"></path>
      <path d="M134.22,66.78c.02-.13-.04-.28-.15-.37-.52-.41-.74-.94-.67-1.62.03-.26,0-.52-.06-.73-.06-.18-.17-.34-.27-.48-.03-.04-.06-.08-.08-.12-.08-.11-.21-.12-.28-.12l-.17-.03-.08.16s-.02.04-.04.06c-.06.09-.13.21-.1.36.03.13.07.26.12.4.12.36.22.65.04.97-.1.18-.03.42.04.54.06.1.11.2.17.31.2.38.41.77.77,1.07.08.07.2.1.31.1.1,0,.19-.02.26-.07.14-.1.17-.27.2-.43Z" class="cls-1"></path>
      <path d="M132.84,105.35c.11.02.22.03.36.04l.28.03.06-.03s.07-.03.11-.04c.13-.05.28-.11.43-.22.23-.16.31-.44.22-.7-.16-.43-.46-.44-.58-.43-.35.03-.67.09-.97.16-.36.09-.38.46-.39.61-.02.27.21.53.5.57Z" class="cls-1"></path>
      <path d="M130.68,103.06s.04.01.07.02l.12.05.11-.08s.05-.03.07-.05c.09-.06.19-.13.27-.23.11-.14.06-.33.03-.47-.01-.06-.06-.14-.17-.19-.06-.03-.17-.07-.28-.02l-.04.02c-.13.06-.27.12-.39.24-.14.14-.08.33-.03.5.04.14.17.18.24.2Z" class="cls-1"></path>
      <polygon points="129.81 107.47 129.42 106.53 128.97 107.43 129.81 107.47" class="cls-1"></polygon>
      <path d="M131.75,104.71c-.07-.11-.13-.22-.23-.31-.1-.1-.25-.15-.41-.14-.15,0-.29.07-.37.17-.05.07-.09.15-.12.23-.05.19-.02.37.09.51.1.13.26.2.45.2h.04c.13,0,.23-.05.35-.09.05-.02.1-.04.16-.05l.31-.09-.18-.27c-.04-.06-.07-.11-.1-.16Z" class="cls-1"></path>
      <path d="M131.06,98.55c.1.06.21.08.32.08.09,0,.18-.02.26-.05.13-.05.18-.17.23-.26.02-.03.03-.07.05-.1l.11-.17-.16-.13s-.05-.05-.08-.07c-.08-.08-.17-.17-.3-.22-.27-.11-.54-.05-.7.17-.06.08-.09.2-.07.3.03.2.15.36.32.46Z" class="cls-1"></path>
      <polygon points="127.52 94.76 127.01 95.58 127.9 95.65 127.52 94.76" class="cls-1"></polygon>
      <path d="M188.01,95c.01.17.15.39.33.44.04.01.08.02.12.02.16,0,.32-.08.43-.17.15-.12.23-.27.21-.42-.02-.16-.11-.27-.18-.36-.02-.02-.03-.04-.04-.06l-.07-.1h-.12c-.28-.02-.44.09-.52.17-.08.08-.17.23-.15.48Z" class="cls-1"></path>
      <path d="M188.59,134.27l.1.04.1-.05c.31-.16.5-.36.57-.59.05-.18.02-.36-.08-.54-.15-.25-.17-.53-.19-.83-.02-.22-.04-.44-.1-.67l-.04-.13-.13-.03c-.4-.09-.67.12-.86.27-.06.04-.11.09-.17.13-.41.25-.65.63-.87,1-.06.1-.12.2-.18.29-.1.15-.01.34.08.43.04.03.17.15.33.13.37-.03.67.14,1,.32.15.08.3.17.46.23Z" class="cls-1"></path>
      <path d="M185.49,119.24c.02.18.12.33.31.47.05.04.17.1.28.1h.03s.11-.02.11-.02l.08-.11c.09-.12.2-.28.12-.45-.07-.14-.17-.27-.26-.39-.03-.04-.07-.09-.1-.14l-.19-.27-.2.26c-.14.19-.21.37-.18.55Z" class="cls-1"></path>
      <path d="M162.5,85.92s0-.05,0-.08v-.14s-.1-.08-.1-.08c-.02-.02-.04-.04-.07-.06-.08-.07-.18-.16-.32-.2-.29-.09-.58.03-.68.3-.06.15-.04.35.03.49.1.17.29.27.52.27h0c.24,0,.45-.11.55-.29.04-.08.05-.15.05-.21Z" class="cls-1"></path>
      <path d="M186.81,84.06c-.11-.12-.25-.2-.37-.28l-.05-.03c-.12-.08-.26-.09-.37-.04-.12.05-.2.16-.23.3v.05c-.05.17-.09.38,0,.56.26.48.55.95.83,1.4l.14.22c.08.14.25.15.33.15h.03c.13-.01.27-.12.3-.25.02-.07.04-.15.06-.27l.04-.22v-.04c-.1-.66-.33-1.17-.71-1.56Z" class="cls-1"></path>
      <path d="M186.92,111.46c-.06,0-.12.02-.17.02l-.26.02.04.25s0,.06,0,.08c0,.06,0,.14.06.21.34.51.58.7.99.7.15,0,.33-.03.55-.07.17-.04.25-.19.31-.31l.02-.04s.05-.12.02-.23c-.01-.05-.06-.16-.17-.21-.07-.03-.13-.07-.2-.11-.21-.12-.44-.24-.68-.31-.18-.05-.35-.03-.51,0Z" class="cls-1"></path>
      <path d="M194.71,97.97c.14-.19.2-.38.17-.57-.03-.21-.17-.4-.41-.57-.12-.09-.38-.18-.55-.06-.1.07-.19.15-.28.23-.1.09-.19.18-.28.21-.71.23-1.08.75-1.38,1.27-.08.14-.21.26-.34.39-.08.08-.17.16-.24.24-.12.13-.08.34-.01.44.06.08.19.17.32.17.04,0,.07,0,.11-.02.36-.16.76-.19,1.19-.23.16-.01.32-.03.48-.05h.1s.44-.57.44-.57c.25-.32.47-.6.68-.88Z" class="cls-1"></path>
      <path d="M189.62,96.79c-.21-.07-.45,0-.64.17-.19.17-.28.41-.24.62.03.15.16.22.25.27.02.01.04.02.06.03l.07.05h.09c.38-.04.68-.31.73-.66.03-.2-.15-.43-.31-.48Z" class="cls-1"></path>
      <path d="M191.82,130.33c-.01-.13-.09-.23-.16-.29-.06-.05-.13-.07-.18-.09l-.2-.08-.11.14s-.03.03-.04.05c-.08.08-.19.2-.14.37.14.45.19.92.25,1.41.03.29.06.59.12.88.03.17.09.32.15.46.02.05.04.11.06.16.05.15.2.25.39.27.02,0,.05,0,.05,0,.16,0,.3-.07.37-.19l.02-.03c.09-.14.19-.32.19-.52,0-.28-.1-.53-.17-.69-.26-.56-.52-1.18-.57-1.86Z" class="cls-1"></path>
      <path d="M188.26,153.1c-.26.15-.38.47-.3.81.06.25.3.43.57.43,0,0,.02,0,.05,0,.25-.04.41-.2.49-.48.03-.1.06-.21.09-.31l.11-.38-.24-.06c-.48-.11-.56-.13-.76-.01Z" class="cls-1"></path>
      <path d="M189.39,135.39c.01-.16-.02-.32-.05-.45v-.07c-.03-.1-.11-.21-.19-.27l-.1-.06-.1.02c-.12.02-.28.05-.39.16-.12.11-.2.28-.21.44-.01.23,0,.47,0,.71v.03h-.11s.05.54.05.54c.03.32.06.65.1.98.01.09.06.16.15.22.03.02.16.11.3.11.02,0,.04,0,.07,0,.38-.08.62-.23.74-.45.11-.21.1-.47-.03-.78-.19-.45-.26-.77-.23-1.12Z" class="cls-1"></path>
      <path d="M189.31,151.39l-.08-.2-.21.05c-.05,0-.17.02-.24.14-.05.09-.09.23-.03.35.09.19.22.21.3.21h.03c.08,0,.22-.06.28-.3.03-.11-.01-.19-.04-.26h0ZM188.98,151.49h0s-.08.03-.08.03c.02-.02.07-.05.12-.06h.02s.01,0,.01,0c-.03,0-.07,0-.08.02ZM189.13,151.68l-.02-.07s0,0,0-.01c0-.04-.02-.08-.04-.12.05.01.08.04.09.05.02.04.02.08.01.09-.02.03-.04.05-.06.07Z" class="cls-1"></path>
      <path d="M136.04,99.83h.05c.11,0,.22-.04.29-.11.1-.1.15-.26.13-.47l-.02-.08-.03-.05c-.02-.05-.07-.15-.18-.2-.12-.05-.27-.03-.4.07-.13.09-.26.26-.24.45.02.19.23.36.4.38Z" class="cls-1"></path>
      <path d="M166.34,100.19l-.3-.29-.14.34s-.08.14-.06.25c.01.08.04.16.07.23l.16.4.27-.24s.1-.08.13-.16c.03-.06.08-.21,0-.35-.04-.08-.1-.13-.14-.17Z" class="cls-1"></path>
      <path d="M176.71,127.87l-.04-.05c-.07-.09-.18-.15-.33-.17-.17-.02-.34.02-.45.11l-.03.03c-.16.13-.32.27-.45.45-.18.26-.24.54-.16.79.07.22.24.39.48.47.07.02.14.05.21.08.23.09.48.19.76.19.06,0,.12,0,.19-.02h.08s.06-.08.06-.08c.23-.26.22-.58.2-.79-.06-.42-.3-.74-.51-1.03Z" class="cls-1"></path>
      <path d="M169.45,107.88c-.12.03-.24.13-.31.27-.04.08-.11.24-.06.4.04.15.1.26.17.35.16.21.38.33.61.33h.02c.21,0,.4-.12.53-.32.09-.13.15-.28.2-.41.02-.05.04-.1.06-.15l.08-.17-.14-.12c-.4-.33-.8-.28-1.14-.19Z" class="cls-1"></path>
      <path d="M163.08,95.5l-.08-.05s-.1-.08-.18-.1c-.25-.06-.47-.02-.62.11-.13.12-.2.29-.18.49.01.17.07.32.13.46l.07.14.09.04s.11.04.18.04c.04,0,.09,0,.13-.02.33-.13.61-.67.52-1.01l-.05-.11Z" class="cls-1"></path>
      <path d="M163.79,100.81l.16.19s.1.14.23.16h.03c.12,0,.19-.07.24-.12l.2-.15-.39-.46-.46.38ZM164.22,100.75l-.05-.06s.04,0,.06,0c.02,0,.04,0,.06.01l-.06.05Z" class="cls-1"></path>
      <path d="M189.48,86.69l-.06.19s-.06.13-.04.23c.04.25.17.31.27.33.01,0,.04,0,.04,0,.09,0,.21-.05.31-.24.06-.13.02-.27-.03-.36-.07-.13-.21-.13-.28-.14h0s-.2-.01-.2-.01ZM189.62,87.11v.03s-.05-.04-.07-.07c-.01-.03,0-.06,0-.06.01-.02.05-.04.09-.05-.02.03-.04.07-.03.1,0,.02,0,.04.01.05Z" class="cls-1"></path>
      <path d="M182.88,116.4c-.06.03-.16.11-.19.29l-.2.21.38.12h.01s.22.26.22.26l.1-.27c.07-.04.14-.11.17-.2.04-.14-.02-.31-.15-.39-.16-.09-.28-.05-.34-.02Z" class="cls-1"></path>
      <polygon points="179.23 122.15 180.32 121.87 179.36 121.36 179.23 122.15" class="cls-1"></polygon>
      <path d="M189.4,83.92c-.18-.1-.38-.14-.51-.15-.11-.01-.22.04-.3.13-.13.16-.12.4-.07.56.12.37.33.66.57,1l.48.67.1-.71c.06-.4.11-.74-.01-1.11-.06-.19-.15-.32-.27-.39Z" class="cls-1"></path>
      <path d="M187.12,135.42c-.06-.28-.32-.43-.65-.37-.16.03-.38.12-.53.28-.21.24-.13.58.06.76.27.25.46.46.48.77.01.17.18.27.28.3.02,0,.05.01.08.01.04,0,.1-.01.15-.04.05-.03.14-.09.16-.2.03-.11.05-.23.08-.37l.04-.21-.04-.27c-.03-.21-.06-.43-.11-.66Z" class="cls-1"></path>
    </g>
  </g>
</svg>