<?xml version="1.0" encoding="UTF-8"?>
<svg xmlns="http://www.w3.org/2000/svg" id="Layer_1" data-name="Layer 1" width="123.5702mm" height="123.5702mm" viewBox="0 0 350.2778 350.2778">
  <defs>
    <style>.cls-1,.cls-4{fill:#00966c;}.cls-2{fill:#fff;}.cls-3{fill:#004e42;}.cls-4{fill-rule:evenodd;}.cls-5{fill:#222221;}</style>
  </defs>
  <path class="cls-1" d="M184.252,359.3913,9.1134,184.2521l.184-.1845L184.252,9.1135l.1846.184L359.3912,184.2521Z" transform="translate(-9.1134 -9.1135)"></path>
  <rect class="cls-2" x="60.9317" y="60.9318" width="246.6404" height="246.6404" transform="translate(-85.4331 175.1388) rotate(-45.0001)"></rect>
  <rect class="cls-1" x="64.8567" y="64.5828" width="239.3523" height="239.3523" transform="translate(-85.3557 175.3391) rotate(-45)"></rect>
  <rect class="cls-2" x="65.4775" y="65.7574" width="236.9878" height="236.9878" transform="translate(175.0559 -85.2349) rotate(45)"></rect>
  <path class="cls-1" d="M134.9552,258.1266a3.133,3.133,0,0,1,3.0043-3.4336,2.42,2.42,0,0,1,2.7042,2.36c0,1.9746-1.8453,2.1035-1.8453,3.2627,0,1.416,2.189,3.1328,6.0088,3.1328,4.55,0,7.34-2.5322,7.34-6.2666,0-2.5322-1.6739-4.0771-4.6353-5.5371l-2.9189-1.416c-3.3052-1.6319-5.4512-3.6055-5.4512-7.211,0-4.5927,4.3779-8.542,10.9023-8.542,5.065,0,8.9707,2.4893,8.9707,6.0088a3.0015,3.0015,0,0,1-2.9184,3.22,2.3692,2.3692,0,0,1-2.6187-2.2325c0-1.6738,1.8033-2.0595,1.8033-3.1757,0-1.5889-1.9747-3.0909-5.2369-3.0909-4.4638,0-6.8247,2.6612-6.8247,5.795,0,2.5322,1.7168,3.9062,4.7217,5.4511l2.6611,1.33c3.6485,1.8457,5.7945,3.6914,5.7945,7.2969,0,5.28-5.1079,9.1-11.6748,9.1C139.2047,264.1784,134.9552,261.6462,134.9552,258.1266Z" transform="translate(-9.1134 -9.1135)"></path>
  <path class="cls-1" d="M175.8209,234.6052h.73c.3867,3.1757.8589,6.4814,1.3735,9.5283l2.3179,14.3369c.601,3.6055,1.3305,4.249,2.6616,4.85l-.0859.43c-3.2193-.1289-7.2539-.1289-10.6451,0l.1289-.43c2.2749-.4717,3.09-1.5879,2.8755-4.249-.1714-1.9746-.3862-3.82-.6006-5.666h-9.3574l-2.79,4.55c-1.76,2.8759-1.5879,4.6787,1.3306,5.3652l-.0855.43c-3.0478-.1289-4.8506-.1289-7.855,0l.1284-.43c2.49-1.0293,3.9063-2.6611,5.6231-5.5371Zm-10.13,18.0273H174.49c-.4722-3.5625-1.03-7.082-1.8457-11.2031h-.1289Z" transform="translate(-9.1134 -9.1135)"></path>
  <path class="cls-1" d="M196.2554,248.9411c-.7724,3.3057-1.5019,6.7822-2.1035,9.8291-.6006,3.22.086,4.25,2.4473,4.25h2.0166c3.1338,0,5.1084-2.79,10.2588-9.958l.3437.043a85.811,85.811,0,0,0-3.3056,10.6445l-13.9063-.086c-2.5761,0-5.1943,0-7.6406.086l.0859-.43c2.79-.5576,3.7344-1.5449,4.6787-4.85.7725-2.876,1.502-5.9668,2.3174-9.4434.7725-3.3047,1.3741-6.1377,1.8887-8.7558.6016-3.4346.1289-4.3789-2.4033-4.9366l.0859-.43c3.9053.1718,8.67.1718,12.6621,0l-.1289.43c-3.0908.6006-4.206,1.545-5.1074,4.8506C197.6715,242.9753,196.942,245.9362,196.2554,248.9411Z" transform="translate(-9.1134 -9.1135)"></path>
  <path class="cls-1" d="M220.7662,258.4274c-.6445,3.4336,0,4.292,2.79,4.8926l-.0859.43c-4.0352-.1719-8.8858-.1719-13.0059,0l.086-.43c3.09-.6006,4.1631-1.5449,5.0644-4.8926.9014-3.1767,1.6739-6.61,2.6182-10.5166,1.2451-5.3652,2.06-9.2715,2.6621-12.2324h-2.3613c-2.5323,0-5.15,3.3477-9.3575,9.0566l-.4287-.0859a81.5917,81.5917,0,0,0,3.1328-9.7441c3.6485.0859,7.254.0429,10.9024.0429h1.6318c3.6055,0,7.0821,0,10.6446-.0429a74.5686,74.5686,0,0,0-.8155,9.7441l-.43.0859c-1.5878-6.1816-2.832-9.0566-5.4511-9.0566h-2.36c-.9013,3.3477-1.8457,7.168-3.0049,12.1894C222.0963,251.8171,221.3668,255.2507,220.7662,258.4274Z" transform="translate(-9.1134 -9.1135)"></path>
  <path class="cls-3" d="M83.2269,207.2349c-2.8969-16.7228-5.8777-32.3692-9.1893-48.7611l-8.3614,35.9293c-1.9044,8.1952-1.325,10.7613,4.14,11.8377l-.1662.8279c-5.5453-.2485-9.9333-.2485-15.5625,0l.1647-.8279c5.3806-.9926,7.2849-3.6425,9.52-11.3407,1.325-4.9674,2.65-10.2657,4.0572-16.2272,1.4073-6.2086,2.5661-11.5069,3.4763-16.4736,1.2427-6.9541.3324-8.7753-4.5527-9.9341l.1662-.8279c5.3806.0823,8.2776.1654,15.7287,0,1.9867,14.57,4.8851,28.9752,7.7,43.379l17.136-27.65c3.8087-6.0431,6.2085-10.1826,9.107-15.7287,5.7953.2478,10.1819.2478,16.2257,0l-.1662.8279c-5.2983.9933-7.1188,2.98-9.0231,9.52-1.4073,5.05-2.7322,10.5135-4.2219,16.8875-1.49,6.7071-2.8145,12.5009-3.8086,18.0477-1.1588,6.6233-.2485,8.4438,4.5542,9.52l-.1662.8279c-7.285-.3309-15.8949-.3309-23.346,0l.2485-.8279c5.1321-1.0764,6.9541-3.0631,8.7761-9.52,1.572-5.5468,2.9793-11.4245,4.5527-18.0477,1.7382-7.45,3.56-15.7288,4.47-20.1161L84.47,207.2349Z" transform="translate(-9.1134 -9.1135)"></path>
  <path class="cls-3" d="M155.084,207.8143c-4.5542,0-7.12-2.2352-7.12-6.4571a18.0376,18.0376,0,0,1,.6632-4.3881h-.2485c-3.394,7.12-7.4512,10.7628-12.5833,10.7628-7.12,0-12.5009-5.1336-12.5009-15.1508,0-14.1553,9.52-28.3951,24.3386-28.3951a13.998,13.998,0,0,1,11.176,5.7123,43.4177,43.4177,0,0,0,5.4645-5.6292h.9925c-2.8969,11.3407-5.4629,22.4343-7.8643,33.8588a28.5989,28.5989,0,0,0-.8279,4.8013c0,1.3249.5794,2.07,1.822,2.07,1.9028,0,3.3116-1.9867,4.8836-5.713l.7455.2485C162.369,204.8335,159.2236,207.8143,155.084,207.8143Zm-1.9866-34.439c0-5.1329-1.9867-7.9474-5.3822-7.9474-7.9467,0-14.7346,17.22-14.7346,30.88,0,5.3807,1.9867,8.3614,5.3806,8.3614C145.5639,204.6688,153.0974,187.2,153.0974,173.3753Z" transform="translate(-9.1134 -9.1135)"></path>
  <path class="cls-3" d="M171.1451,179.667l5.5454-23.0145c1.5734-6.7887,1.4911-9.0239-3.394-10.1l.1662-.7456c4.8012.1654,9.4378.1654,14.3214,0,.5794,0,.6632.2485.497.8279-1.9866,7.3681-4.5527,17.6338-7.6158,29.9685-3.56,14.57-5.4645,22.6829-5.4645,25.9122,0,1.5734.7456,2.4837,1.9867,2.4837,1.822,0,3.0631-1.49,4.8013-5.713l.7455.2485c-1.572,5.216-4.388,8.2791-9.1893,8.2791-4.388,0-6.9541-2.4838-6.9541-6.7056C166.5909,197.6309,168.4129,191.1738,171.1451,179.667Z" transform="translate(-9.1134 -9.1135)"></path>
  <path class="cls-3" d="M217.67,207.8143c-4.8851,0-7.285-2.3176-7.285-6.4571a20.932,20.932,0,0,1,.6617-4.3881h-.2485c-3.5587,7.12-7.1188,10.8452-12.5833,10.8452-7.1188,0-12.5833-5.216-12.5833-15.3156,0-13.9905,9.2717-28.1473,23.677-28.1473a10.2062,10.2062,0,0,1,8.279,3.891c1.4073-5.1328,2.069-8.7753,2.8146-12.5832,1.2411-6.0431,1.3249-7.8651-3.6425-9.0239l.1647-.7448c4.8027.1654,9.7687.1654,14.6538,0,.497,0,.6617.2485.497.7448-1.0764,4.0564-2.319,9.0239-3.56,14.4876l-8.4438,37.005a21.8956,21.8956,0,0,0-.8279,4.8013c0,1.3249.5794,2.07,1.8205,2.07,1.9044,0,3.3116-1.9867,4.8851-5.6292l.7441.1647C225.0369,204.8335,221.8914,207.8143,217.67,207.8143Zm-2.0691-34.2736c0-5.1328-2.0705-7.9474-5.4644-7.9474-7.9482,0-14.9009,17.1368-14.9009,30.9626,0,5.3807,2.0691,8.1953,5.5454,8.1953C208.067,204.7512,215.6005,187.2,215.6005,173.5407Z" transform="translate(-9.1134 -9.1135)"></path>
  <path class="cls-3" d="M267.67,181.6536c0,12.9142-10.43,26.1607-23.3446,26.1607-9.1893,0-15.9787-5.8777-15.9787-17.7993,0-12.6656,10.3481-25.6636,23.2637-25.6636C260.6338,164.3514,267.67,170.3122,267.67,181.6536Zm-9.6849-5.5468c0-6.7879-1.9881-10.5135-6.1262-10.5135-7.782,0-13.9082,16.8059-13.9082,30.3833,0,6.87,1.8205,10.5966,6.2909,10.5966C251.8592,206.5732,257.9854,188.9386,257.9854,176.1068Z" transform="translate(-9.1134 -9.1135)"></path>
  <path class="cls-3" d="M299.2939,207.8143c-4.2234,0-6.8718-2.3176-6.8718-6.1262,0-2.1529.5794-4.9675,3.1455-14.8185,2.2352-8.7761,2.8984-11.4245,2.8984-13.8251,0-2.8977-1.5735-4.719-4.388-4.719-4.14,0-9.6041,5.2983-12.9157,18.2132-1.49,5.8777-2.9792,12.1686-4.5527,20.4477h-9.6025c2.8146-10.7628,5.3806-21.5241,7.5335-32.203,1.2411-6.0439,1.3234-7.8652-3.394-9.0247l.1647-.6617q7.0783.1235,14.4053,0c.497,0,.5793.2478.4132.7448-.9926,3.2286-2.4838,8.3607-3.3117,12.2517h.1662c4.1395-9.4371,9.0231-13.7421,14.8185-13.7421,6.2085,0,9.6863,3.8087,9.6863,9.4379,0,3.2293-.8279,6.8717-2.8984,14.4876-2.566,9.4378-3.394,13.3288-3.394,14.6523s.5794,2.07,1.822,2.07c1.6559,0,3.1455-1.49,4.8836-5.713l.7456.2485C307.0744,204.7512,303.929,207.8143,299.2939,207.8143Z" transform="translate(-9.1134 -9.1135)"></path>
  <path class="cls-3" d="M319.7812,168.1705a5.13,5.13,0,0,1-4.9514,5.3008,3.2971,3.2971,0,0,1-3.4563-3.4756,5.0882,5.0882,0,0,1,4.9514-5.1846A3.2793,3.2793,0,0,1,319.7812,168.1705Zm-8.0194,1.8252a2.9268,2.9268,0,0,0,3.1262,3.1648,4.7644,4.7644,0,0,0,4.5241-4.9707,2.93,2.93,0,0,0-3.1262-3.0679A4.6875,4.6875,0,0,0,311.7618,169.9957Zm4.1941.2328c-.058-.6408-.0776-1.01-.6795-1.01h-.4273l-.31,1.3786c-.0973.3493-.039.4269.3687.5045l-.0387.1942h-1.8445l.0386-.1942c.4856-.0776.5826-.1552.66-.5045l.7184-3.1069c.0776-.3494,0-.427-.4077-.5243l.039-.1745h2.019c1.0489,0,1.5149.3494,1.5149.9319,0,.66-.5826,1.2037-1.5925,1.32v.039c.68.1162.8157.4853.8544,1.0678.0389.466.1165.6408.2914.6408.1359,0,.2135-.0583.3494-.2138l.1555.1359a1.08,1.08,0,0,1-.9322.66C316.189,171.3739,316.0338,170.9859,315.9559,170.2285Zm-1.0485-1.2813h.5439a1.1728,1.1728,0,0,0,1.262-1.2041.6493.6493,0,0,0-.7378-.6794h-.5049c-.0973,0-.1359.0583-.1749.2328Z" transform="translate(-9.1134 -9.1135)"></path>
  <path class="cls-4" d="M184.46,58.9743,157.7188,85.715,184.46,112.4633,211.2,85.715Zm-.5283,1.97-24.71,24.7106,24.7708,24.7707L208.71,85.715Zm.5283,1.8643L161.5529,85.715,184.46,108.6216,207.3661,85.715Zm-.5133,1.8038-21.05,21.05,21.1027,21.1027,21.05-21.05ZM184.46,66.65l-19.065,19.065L184.46,104.78,203.5245,85.715Zm-.4227,1.5549L166.572,85.67l17.5026,17.5026L201.54,85.715Zm.4227,2.2792L169.2287,85.715,184.46,100.9458,199.69,85.715Zm-.34,1.3209L170.2476,85.6772l13.91,13.91L198.0224,85.715Zm.34,2.5208L173.07,85.715,184.46,97.1042,195.8488,85.715Zm-.2566,1.0794-10.28,10.2871,10.3175,10.31L194.5128,85.715Zm.2566,2.7623-7.5475,7.5475L184.46,93.27l7.555-7.555Zm-.1661.83L177.5989,85.7l6.7173,6.71,6.6946-6.6946Zm.1661,3.019-3.6983,3.6983,3.6983,3.6983,3.6982-3.6983Zm-.0755.7925-2.8982,2.8983,2.8982,2.9058L187.29,85.715Z" transform="translate(-9.1134 -9.1135)"></path>
  <path class="cls-5" d="M150.4757,126.3864c1.33,0,1.5219-.2734,1.5219-1.8813V119.278c0-1.6084-.1923-1.8657-1.5219-1.8657v-.3379h7.3056l.1446,2.123h-.3365l-.08-.3212c-.2247-.8365-.3848-1.2066-1.8589-1.2066h-2.3711v3.6509h.8012c1.6021,0,1.8584-.1929,1.8584-1.544h.3365V123.46h-.3365c0-1.351-.2563-1.5439-1.8584-1.5439h-.8012v2.3481c0,1.608.1924,1.8653,1.5219,1.8653h1.378c1.4741,0,1.65-.37,1.8584-1.2222l.08-.3218h.3369l-.1285,2.1392h-7.8505Z" transform="translate(-9.1134 -9.1135)"></path>
  <path class="cls-5" d="M160.9693,123.46h.3364a2.8653,2.8653,0,0,0,2.9483,2.8946,1.8445,1.8445,0,0,0,2.0024-1.7691c0-.74-.7368-1.3667-1.8423-1.9458l-1.538-.7881a3.0938,3.0938,0,0,1-1.7784-2.6538,2.4788,2.4788,0,0,1,2.66-2.396,2.9834,2.9834,0,0,1,1.9546.6592,1.3727,1.3727,0,0,0,.4643-.74h.3208v3.5381h-.3364c-.1123-1.2867-.5932-2.8145-2.4516-2.8145a1.4646,1.4646,0,0,0-1.5542,1.4317c0,.8359.561,1.27,1.955,1.9941l1.522.7881a2.7113,2.7113,0,0,1,1.6821,2.4443,2.9085,2.9085,0,0,1-3.06,2.895,7.109,7.109,0,0,1-2.4995-.7558,1.362,1.362,0,0,0-.4649.7558h-.32Z" transform="translate(-9.1134 -9.1135)"></path>
  <path class="cls-5" d="M171.5435,126.3864c1.33,0,1.5381-.2734,1.5381-1.8813v-6.8033h-2.083c-1.4741,0-1.6343.37-1.8584,1.2222l-.08.3218h-.3369l.1446-2.1714h9.7089l.1446,2.1714h-.3369l-.08-.3218c-.2241-.852-.3843-1.2222-1.8584-1.2222h-2.083v6.8033c0,1.6079.2085,1.8813,1.5381,1.8813v.3379h-4.3575Z" transform="translate(-9.1134 -9.1135)"></path>
  <path class="cls-5" d="M180.5313,125.9845a.8653.8653,0,1,1,.8653.8682A.8633.8633,0,0,1,180.5313,125.9845Z" transform="translate(-9.1134 -9.1135)"></path>
  <path class="cls-5" d="M188.6383,126.3864c1.3291,0,1.538-.2734,1.538-1.8813V121.964c0-1.6084-.2089-1.8818-1.538-1.8818V119.76h4.2138v.3218c-1.3467,0-1.539.2734-1.539,1.8818v2.5411c0,1.6079.1923,1.8813,1.539,1.8813v.3379h-4.2138Z" transform="translate(-9.1134 -9.1135)"></path>
  <path class="cls-5" d="M194.5982,124.3117c0-1.6563,1.169-2.3638,2.3389-2.8623-.9609-.5952-1.7949-1.2388-1.7949-2.332a2.7265,2.7265,0,0,1,5.3681-.1289c0,1.1259-.9775,1.7368-2.0508,2.2353,1.2657.6436,2.5948,1.3027,2.5948,2.96a3.0175,3.0175,0,0,1-3.2364,2.8144A2.9807,2.9807,0,0,1,194.5982,124.3117Zm5.1582.1289c0-1.3188-1.0888-2.01-2.3066-2.7021a2.8949,2.8949,0,0,0-1.57,2.5732,1.9292,1.9292,0,0,0,1.9384,2.0586A1.8961,1.8961,0,0,0,199.7564,124.4406Zm-.5439-5.5806a1.348,1.348,0,0,0-1.3946-1.4316A1.3341,1.3341,0,0,0,196.44,118.86a2.3447,2.3447,0,0,0,1.5225,2.1065A2.38,2.38,0,0,0,199.2125,118.86Z" transform="translate(-9.1134 -9.1135)"></path>
  <path class="cls-5" d="M202.9928,124.3117c0-1.6563,1.1689-2.3638,2.3388-2.8623-.9609-.5952-1.7949-1.2388-1.7949-2.332a2.7266,2.7266,0,0,1,5.3682-.1289c0,1.1259-.9776,1.7368-2.0508,2.2353,1.2656.6436,2.5947,1.3027,2.5947,2.96a3.0174,3.0174,0,0,1-3.2363,2.8144A2.9807,2.9807,0,0,1,202.9928,124.3117Zm5.1582.1289c0-1.3188-1.0889-2.01-2.3067-2.7021a2.8949,2.8949,0,0,0-1.57,2.5732,1.9293,1.9293,0,0,0,1.9385,2.0586A1.8961,1.8961,0,0,0,208.151,124.4406Zm-.544-5.5806a1.3479,1.3479,0,0,0-1.3945-1.4316,1.3341,1.3341,0,0,0-1.378,1.4316,2.3447,2.3447,0,0,0,1.5225,2.1065A2.38,2.38,0,0,0,207.607,118.86Z" transform="translate(-9.1134 -9.1135)"></path>
  <path class="cls-5" d="M214.8648,126.7243H211.564v-.3862l2.836-2.2354a3.2782,3.2782,0,0,0,1.5381-2.4443,1.5228,1.5228,0,0,0-1.73-1.4961,1.5458,1.5458,0,0,0-1.3779,2.4126l-.4805.4985c-1.9229-1.1577-.93-3.5864,1.8584-3.5864,1.57,0,3.06.82,3.06,2.1553,0,1.2866-1.4746,2.2514-1.4746,2.2514l-2.4668,1.898h4.15l-.4,2.2031h-.337C216.7388,126.9333,216.4664,126.7243,214.8648,126.7243Z" transform="translate(-9.1134 -9.1135)"></path>
</svg>
